<?xml version="1.0" encoding="UTF-8"?>
<svg xmlns="http://www.w3.org/2000/svg" width="24" height="24" viewBox="0 0 24 24">
    <path d="M15 5V3h3V0h2v3h3v2h-3v3h-2V5h-3Zm-3-1.19c-.33-.04-.66-.06-1-.06-4.56 0-8.25 3.69-8.25 8.25 0 2.25.9 4.28 2.35 5.77C6.51 16.08 8.63 15 11 15s4.49 1.08 5.9 2.77c1.45-1.49 2.35-3.52 2.35-5.77 0-.34-.02-.67-.06-1h2.01c.03.33.05.66.05 1 0 5.66-4.59 10.25-10.25 10.25S.75 17.66.75 12 5.34 1.75 11 1.75c.34 0 .67.02 1 .05v2.01ZM6.66 19.02c1.26.78 2.75 1.23 4.34 1.23s3.08-.45 4.34-1.23C14.3 17.78 12.74 17 11 17s-3.3.78-4.34 2.02Zm6.09-8.77c0 .97-.78 1.75-1.75 1.75s-1.75-.78-1.75-1.75S10.03 8.5 11 8.5s1.75.78 1.75 1.75ZM11 14c2.07 0 3.75-1.68 3.75-3.75S13.07 6.5 11 6.5s-3.75 1.68-3.75 3.75S8.93 14 11 14Z"/>
</svg>
