<?xml version="1.0" encoding="UTF-8"?>
<svg xmlns="http://www.w3.org/2000/svg" width="24" height="24" viewBox="0 0 24 24">
    <path d="M12 3.75c-4.56 0-8.25 3.69-8.25 8.25 0 2.25.9 4.28 2.35 5.77C7.51 16.08 9.63 15 12 15s4.49 1.08 5.9 2.77c1.45-1.49 2.35-3.52 2.35-5.77 0-4.56-3.69-8.25-8.25-8.25Zm4.34 15.27C15.3 17.78 13.74 17 12 17s-3.3.78-4.34 2.02c1.26.78 2.75 1.23 4.34 1.23s3.08-.45 4.34-1.23ZM1.75 12C1.75 6.34 6.34 1.75 12 1.75S22.25 6.34 22.25 12c0 3.26-1.53 6.17-3.9 8.05-1.74 1.38-3.95 2.2-6.35 2.2s-4.61-.82-6.35-2.2c-2.37-1.88-3.9-4.79-3.9-8.05ZM12 8.5c-.97 0-1.75.78-1.75 1.75S11.03 12 12 12s1.75-.78 1.75-1.75S12.97 8.5 12 8.5Zm-3.75 1.75C8.25 8.18 9.93 6.5 12 6.5s3.75 1.68 3.75 3.75S14.07 14 12 14s-3.75-1.68-3.75-3.75Z"/>
</svg>
