<?xml version="1.0" encoding="UTF-8"?>
<svg xmlns="http://www.w3.org/2000/svg" width="24" height="24" viewBox="0 0 24 24">
    <path d="M4.98 4.48C5.88 2.94 7.52 2 9.3 2h5.4c1.78 0 3.43.94 4.32 2.48l2.92 5c.91 1.56.91 3.48 0 5.04l-2.92 5c-.11.2-.24.39-.38.57-.94 1.2-2.39 1.91-3.94 1.91H9.3c-1.55 0-3-.72-3.94-1.92-.14-.17-.26-.36-.38-.56l-2.92-5c-.91-1.56-.91-3.48 0-5.04l2.92-5ZM9.3 4c-1.07 0-2.05.57-2.59 1.49l-2.92 5c-.55.93-.55 2.09 0 3.02l2.41 4.14C7.61 16.03 9.68 15 12 15s4.39 1.03 5.8 2.65l2.41-4.14c.55-.93.55-2.09 0-3.02l-2.91-5C16.76 4.57 15.77 4 14.7 4H9.3Zm7.28 15.34C15.55 17.92 13.88 17 12 17s-3.55.92-4.58 2.34c.52.42 1.18.66 1.88.66h5.4c.7 0 1.36-.24 1.88-.66ZM12 8.5c-.97 0-1.75.78-1.75 1.75S11.03 12 12 12s1.75-.78 1.75-1.75S12.97 8.5 12 8.5Zm-3.75 1.75C8.25 8.18 9.93 6.5 12 6.5s3.75 1.68 3.75 3.75S14.07 14 12 14s-3.75-1.68-3.75-3.75Z"/>
</svg>
