<?xml version="1.0" encoding="UTF-8"?>
<svg xmlns="http://www.w3.org/2000/svg" width="24" height="24" viewBox="0 0 24 24">
    <path d="M6.05 2.83c-1.25.84-2.63 2.61-3.33 5.41L.78 7.76c.8-3.2 2.42-5.43 4.16-6.59l1.11 1.66ZM2.86 18H7.1c.46 2.28 2.48 4 4.9 4s4.43-1.72 4.9-4h4.23l-1.14-8.96c-.51-4.02-3.94-7.04-8-7.04s-7.49 3.02-8 7.05L2.86 18Zm11.97 0c-.41 1.17-1.53 2-2.83 2-1.31 0-2.42-.83-2.83-2h5.66Zm8.39-10.24c-.8-3.2-2.42-5.43-4.17-6.59l-1.11 1.66c1.26.84 2.64 2.61 3.34 5.41l1.94-.48Z"/>
</svg>
