<?xml version="1.0" encoding="UTF-8"?>
<svg xmlns="http://www.w3.org/2000/svg" width="24" height="24" viewBox="0 0 24 24">
    <path d="M3 5.5C3 4.119 4.119 3 5.5 3h13C19.881 3 21 4.119 21 5.5v13c0 1.381-1.119 2.5-2.5 2.5h-13C4.119 21 3 19.881 3 18.5v-13ZM5.5 5c-.276 0-.5.224-.5.5v13c0 .276.224.5.5.5h13c.276 0 .5-.224.5-.5v-13c0-.276-.224-.5-.5-.5h-13Zm8.267 5.921h1.447v3.457h1.337v-3.457H18V9.654h-4.233v1.267Zm-1.285-1.266h-1.336v4.723h3.121v-1.349h-1.785V9.655ZM7.51 9.621l-1.76 4.757h1.289l.295-.843H8.93l.301.843h1.405l-1.76-4.757H7.51Zm.162 2.895.465-1.343.461 1.343h-.926Z"/>
</svg>
