<?xml version="1.0" encoding="UTF-8"?>
<svg xmlns="http://www.w3.org/2000/svg" width="24" height="24" viewBox="0 0 24 24">
    <path d="M19.518 7.57C17.542 6.582 14.883 6 12 6s-5.543.582-7.518 1.57C2.566 8.528 1 10.036 1 12c0 1.393.803 2.565 1.913 3.446 1.054.836 2.473 1.488 4.087 1.923v-2.082c-1.19-.372-2.158-.863-2.844-1.408C3.322 13.218 3 12.564 3 12c0-.798.673-1.789 2.376-2.641C7.019 8.537 9.36 8 12 8s4.98.537 6.624 1.359C20.327 10.211 21 11.202 21 12s-.673 1.789-2.376 2.641c-1.299.65-3.038 1.116-5.012 1.286l1.353-1.459-1.467-1.359-3.564 3.845 3.844 3.564 1.36-1.467-1.231-1.141c2.137-.196 4.081-.714 5.612-1.479 1.916-.958 3.482-2.466 3.482-4.43s-1.566-3.472-3.482-4.43Z"/>
</svg>
