<?xml version="1.0" encoding="UTF-8"?>
<svg xmlns="http://www.w3.org/2000/svg" width="24" height="24" viewBox="0 0 24 24">
    <path d="M12 4.25c-4.28 0-7.75 3.47-7.75 7.75s3.47 7.75 7.75 7.75c1.499 0 2.894-.424 4.078-1.158l1.318 2.125c-1.568.972-3.418 1.534-5.396 1.534-5.661 0-10.25-4.589-10.25-10.25S6.339 1.75 12 1.75 22.25 6.339 22.25 12c0 .534-.032 1.061-.08 1.549-.223 2.285-2.31 3.65-4.378 3.471-1.128-.098-2.114-.621-2.817-1.396-1.008 1.136-2.467 1.802-4.077 1.576-2.748-.386-4.354-3.149-3.973-5.86s2.686-4.924 5.434-4.538c.793.111 1.491.421 2.074.87l.038-.32 2.482.298-.584 4.861c-.122 1.015.621 1.93 1.64 2.019.927.081 1.605-.515 1.674-1.223.042-.426.068-.869.068-1.306 0-4.28-3.47-7.75-7.75-7.75H12Zm.01 5.026c-1.08-.152-2.377.746-2.611 2.41s.765 2.885 1.845 3.036c1.08.152 2.377-.746 2.611-2.41.234-1.664-.765-2.884-1.845-3.036Z"/>
</svg>
