<svg xmlns="http://www.w3.org/2000/svg" width="24" height="24" viewBox="0 0 24 24">
    <path id="bounds" opacity="0" d="M0 0h24v24H0z"/>
    <path d="M14.64 8.108h-.31c.44-.534.71-1.217.71-1.958 0-.91-.39-1.72-1.02-2.285V2.768c0-.297.24-.534.53-.534.41 0 .75-.336.75-.742 0-.406-.34-.742-.75-.742-1.12 0-2.03.91-2.03 2.018v.376c-.17-.03-.34-.05-.52-.05s-.35.02-.52.05v-.376C11.48 1.66 10.57.75 9.45.75c-.41 0-.75.336-.75.742 0 .405.34.742.75.742.29 0 .53.237.53.534v1.098C9.35 4.43 8.96 5.24 8.96 6.15c0 .742.27 1.424.71 1.958h-.31C5.3 8.108 2 11.372 2 15.388v.335c0 .81.67 1.474 1.49 1.474h.89c1.03 0 2.02-.218 2.91-.593.07 2.027 1.44 3.73 3.3 4.322.14 1 .91 1.988 1.02 2.136.09.12.24.188.39.188.16 0 .3-.07.39-.188.12-.148.88-1.137 1.02-2.136 1.85-.593 3.22-2.285 3.29-4.332.89.386 1.88.603 2.92.603h.89c.82 0 1.49-.663 1.49-1.474v-.336c0-4.015-3.3-7.28-7.36-7.28zm-3.05 3.264h.82c.15.732.41 1.424.76 2.057h-2.34c.35-.634.61-1.326.76-2.058zm-3 1.82v.01c-.07.08-.13.158-.2.228-.26.297-.57.574-.9.8-.87.624-1.95.99-3.11.99H4c.08-2.433 1.82-4.46 4.14-4.985.39-.1.8-.148 1.22-.148h.38c-.01.445-.08.88-.21 1.286-.18.67-.51 1.285-.94 1.82zm5.83 4.47H9.56c-.18-.346-.28-.742-.28-1.147l.09-.91h5.32l.03.82c0 .446-.11.87-.3 1.237zm5.2-2.443c-1.1 0-2.13-.327-2.98-.89-.38-.258-.72-.555-1.03-.89v-.01c-.53-.585-.93-1.287-1.14-2.058-.13-.406-.2-.84-.21-1.286h.45c.46.01.91.07 1.33.188 2.23.593 3.89 2.57 3.96 4.945h-.38z"/>
</svg>
