<?xml version="1.0" encoding="UTF-8"?>
<svg xmlns="http://www.w3.org/2000/svg" width="24" height="24" viewBox="0 0 24 24">
    <path d="M11.998 7c-2.762 0-5 2.24-5 5s2.238 5 5 5 5-2.24 5-5-2.239-5-5-5Zm2.941 5.37c-.19.81-1.341.85-1.581.05l-.008-.02c-.116-.41-.348-.78-.646-1.08-.712-.71-1.589-.93-2.367-.84-.265.05-.431-.27-.265-.47.612-.74 1.589-1.15 2.649-.97 1.15.21 2.078 1.14 2.243 2.27.066.37.05.72-.025 1.06ZM11.971 1.75c-5.676 0-10.277 4.6-10.277 10.28 0 1.66.396 3.24 1.1 4.63l-1.045 5.59 5.593-1.05c1.392.71 2.965 1.1 4.629 1.1 5.676 0 10.277-4.59 10.277-10.27S17.647 1.75 11.971 1.75ZM11.998 19c-3.866 0-7-3.13-7-7s3.134-7 7-7 7 3.13 7 7-3.134 7-7 7Z"/>
</svg>
