<?xml version="1.0" encoding="UTF-8"?>
<svg xmlns="http://www.w3.org/2000/svg" width="24" height="24" viewBox="0 0 24 24">
    <path d="M13.35 12.4c-.116-.41-.348-.78-.646-1.08-.712-.71-1.589-.93-2.367-.84-.265.05-.431-.27-.265-.47.612-.74 1.589-1.15 2.649-.97 1.15.21 2.078 1.14 2.243 2.27.066.37.05.72-.025 1.06-.19.81-1.341.85-1.581.05l-.008-.02Zm5.148-.4c0 3.59-2.91 6.5-6.5 6.5s-6.5-2.91-6.5-6.5 2.91-6.5 6.5-6.5 6.5 2.91 6.5 6.5Zm-6.5 4.5c2.485 0 4.5-2.01 4.5-4.5s-2.015-4.5-4.5-4.5-4.5 2.01-4.5 4.5 2.015 4.5 4.5 4.5Zm10.25-4.47c0 5.67-4.601 10.27-10.277 10.27-1.664 0-3.237-.39-4.629-1.1l-5.593 1.05 1.045-5.59c-.704-1.39-1.1-2.97-1.1-4.63 0-5.68 4.601-10.28 10.277-10.28s10.277 4.6 10.277 10.28ZM4.717 16.02l.173.31-.639 3.42 3.418-.64.314.17c1.181.65 2.54 1.02 3.988 1.02 4.571 0 8.277-3.7 8.277-8.27s-3.706-8.28-8.277-8.28-8.277 3.71-8.277 8.28c0 1.45.371 2.8 1.023 3.99Z"/>
</svg>
