<?xml version="1.0" encoding="UTF-8"?>
<svg xmlns="http://www.w3.org/2000/svg" width="24" height="24" viewBox="0 0 24 24">
    <path d="M18.425 10.77h.001c.182.372.025.82-.348 1-.372.182-.822.025-1.002-.348-.78-1.61-2.878-1.556-3.575.124l-.306.74c-.116.281-.391.463-.694.463s-.577-.184-.693-.464l-.308-.74c-.697-1.679-2.795-1.733-3.575-.123-.182.373-.629.529-1.002.347-.373-.18-.528-.628-.348-1 1.23-2.542 4.46-2.648 5.925-.495 1.465-2.154 4.695-2.047 5.925.496ZM22 2.439v14.205l-.579.269c-1.803.837-3.466 1.11-5.015 1.11-1.561 0-3.005-.278-4.359-.539-2.443-.471-4.581-.863-7.047.17V22H3V2h2v1.514c2.705-.89 5.1-.443 7.425.005 2.633.509 5.12.988 8.154-.422L22 2.438ZM20 5.47c-3.009.967-5.616.464-7.953.014-2.443-.471-4.581-.863-7.047.17v9.86c2.705-.891 5.1-.442 7.425.005 2.462.475 4.798.925 7.575-.173V5.47Z"/>
</svg>
