<?xml version="1.0" encoding="UTF-8"?>
<svg xmlns="http://www.w3.org/2000/svg" width="24" height="24" viewBox="0 0 24 24">
    <path d="M20.579 3.098c-3.035 1.41-5.521.931-8.154.422C10.1 3.072 7.704 2.624 5 3.515V2.001H3V22h2v-4.346c2.466-1.033 4.603-.641 7.047-.17 1.354.261 2.798.539 4.359.539 1.548 0 3.212-.273 5.015-1.11l.579-.269V2.438l-1.421.659Zm-2.501 8.672c-.372.182-.822.025-1.002-.348-.78-1.61-2.878-1.556-3.575.124l-.306.74c-.116.281-.391.463-.694.463s-.577-.184-.693-.464l-.308-.74c-.697-1.679-2.795-1.733-3.575-.123-.182.373-.629.529-1.002.347-.373-.18-.528-.628-.348-1 1.23-2.542 4.46-2.648 5.925-.495 1.465-2.154 4.695-2.047 5.925.496h.001c.182.372.025.82-.348 1Z"/>
</svg>
