<svg width="24" height="24" xmlns="http://www.w3.org/2000/svg"><path d="M13.617 12l5.08-4.091c.194-.156.303-.37.303-.592 0-.223-.11-.437-.302-.593l-5.576-4.489c-.288-.232-.718-.3-1.09-.17-.37.13-.613.43-.613.762v7.403L6.703 6.432c-.396-.319-1.031-.312-1.418.015s-.379.85.018 1.17L10.745 12l-5.442 4.383c-.397.319-.405.843-.018 1.17.387.327 1.022.334 1.418.014l4.716-3.797v7.402c0 .333.242.634.614.763.125.044.258.065.389.065.257 0 .51-.081.7-.235l5.576-4.49c.193-.155.302-.369.302-.592 0-.223-.11-.436-.302-.592L13.618 12zm-.192-7.209l3.136 2.526-3.136 2.525v-5.05zm0 14.418v-5.051l3.136 2.525-3.136 2.526z"/></svg>