<?xml version="1.0" encoding="UTF-8"?>
<svg xmlns="http://www.w3.org/2000/svg" width="24" height="24" viewBox="0 0 24 24">
    <path d="M1.002 4h7.764c1.23 0 2.386.49 3.236 1.32.85-.83 2.006-1.32 3.236-1.32h7.764v16h-8.146c-.839 0-1.488.51-1.959 1.45h-1.789l-.171-.34C10.598 20.43 9.906 20 9.148 20H1.002V4Zm10 3.26C10.53 6.48 9.685 6 8.766 6H3.002v12h6.146c.658 0 1.292.16 1.854.46V7.26Zm2 11.21c.527-.29 1.143-.47 1.854-.47h6.146V6h-5.764c-.918 0-1.764.48-2.236 1.26v11.21ZM19 11h-4V9h4v2Zm0 4h-4v-2h4v2Z"/>
</svg>
