<svg xmlns="http://www.w3.org/2000/svg" width="24" height="24" viewBox="0 0 24 24">
    <path id="bounds" opacity="0" d="M0 0h24v24H0z"/>
    <path d="M12 1.25C6.063 1.25 1.25 6.063 1.25 12S6.063 22.75 12 22.75 22.75 17.937 22.75 12 17.937 1.25 12 1.25zm9.376 10.01l-1.04.09-.015-.155 1.042-.09.014.155zm-.1-.815l-1.8.318-.027-.154 1.8-.32.026.155zm-.172-.803l-1.01.27-.04-.15 1.01-.27.04.15zm-.24-.785l-1.718.626-.054-.147 1.718-.626.054.147zm-.308-.76l-.946.44-.066-.14.947-.443.066.142zm-.372-.732L18.6 8.28l-.077-.137 1.583-.914.078.135zm-.527-.824l.09.13-.856.598-.09-.128.857-.6zm-.404-.526l-1.4 1.176-.1-.12 1.4-1.176.1.12zm-1.15-1.17L16.93 6.247l-.12-.1 1.174-1.402.12.1zm-.644-.505l-.6.855-.128-.09.6-.856.127.09zm-.69-.448l-.913 1.584-.136-.078.915-1.584.136.078zm-.866-.45l.142.065-.44.947-.143-.066.44-.947zm-.76-.31l.147.055-.624 1.72-.147-.055.624-1.72zm-.785-.238l.15.04-.27 1.01-.15-.04.27-1.01zm-.804-.17l.154.026-.318 1.8-.154-.026.318-1.8zm-.815-.1l.157.013-.09 1.04-.157-.013.09-1.04zm-.818-.03h.157v1.83h-.158v-1.83zm-.666.022l.09 1.04-.155.015-.09-1.04.156-.014zm-.814.1l.318 1.8-.154.028-.317-1.8.152-.028zm-.803.172l.27 1.01-.152.04-.27-1.01.15-.04zm-.785.24l.625 1.72-.147.052-.626-1.718.148-.054zm-.76.308l.44.947-.142.066-.44-.948.14-.066zm-.732.373l.914 1.583-.136.078-.913-1.583.136-.078zm-.695.435l.6.856-.13.09-.6-.855.13-.09zm-.655.495l1.175 1.4-.12.102L5.893 4.84l.12-.1zm-.61.55l.74.738-.112.11-.738-.738.11-.11zm-.56.6l1.402 1.176-.1.12L4.742 6.01l.1-.12zm-.505.644l.856.6-.09.127-.856-.597.09-.13zm-.446.69l1.583.913-.078.136-1.584-.915.08-.135zm-.385.724l.946.442-.066.142-.947-.442.067-.142zm-.32.756l1.717.626-.053.146-1.717-.625.053-.146zm-.253.78l1.01.27-.04.153-1.01-.27.04-.152zm-.184.8l1.8.32-.027.153-1.8-.318.027-.155zm-.114.814l1.04.09-.013.157-1.04-.09.013-.157zm-.042.82h1.828v.156H2.594v-.157zm.03.822l1.04-.09.015.155-1.042.09-.014-.155zm.1.815l1.8-.318.027.154-1.8.32-.026-.155zm.172.803l1.01-.27.04.15-1.01.27-.04-.15zm.24.785l1.718-.626.054.147-1.72.626-.052-.147zm.308.76l.947-.44.067.14-.947.443-.066-.142zm.372.732L5.4 15.72l.077.137-1.583.914-.078-.135zm.527.824l-.09-.13.856-.598.09.128-.857.6zm.404.526l1.4-1.176.102.12-1.402 1.176-.1-.12zm1.15 1.17l1.174-1.402.12.1-1.174 1.402-.12-.1zm.644.505l.6-.855.128.09-.6.856-.127-.09zm.69.447l.913-1.584.136.078-.915 1.585-.136-.078zm.866.452l-.142-.067.44-.947.143.066-.44.947zm.76.307l-.147-.054.624-1.72.147.055-.624 1.72zm.785.24l-.15-.042.27-1.01.15.04-.27 1.01zm.804.17l-.154-.027.318-1.8.154.026-.318 1.8zm.815.1l-.157-.014.09-1.04.157.013-.09 1.04zm.818.03h-.157v-1.83h.158v1.83zm.666-.023l-.09-1.04.155-.015.09 1.04-.156.014zm-7.464-2.67l5.54-7.814 7.9-5.617-5.67 7.912-7.77 5.52zm8.278 2.57l-.318-1.8.154-.028.317 1.8-.152.028zm.803-.172l-.27-1.01.152-.04.27 1.008-.15.042zm.785-.24l-.625-1.72.147-.053.625 1.718-.147.054zm.76-.308l-.44-.947.14-.066.443.948-.142.066zm.732-.373l-.914-1.583.136-.078.913 1.583-.136.078zm.695-.435l-.6-.856.13-.09.598.855-.128.09zm.655-.495l-1.175-1.4.12-.102 1.175 1.4-.12.102zm.61-.55l-.74-.738.112-.11.738.738-.11.11zm.56-.6l-1.4-1.176.1-.12 1.4 1.176-.1.12zm.505-.644l-.856-.6.09-.127.856.598-.09.128zm.446-.69l-1.583-.913.078-.136 1.583.914-.078.137zm.385-.724l-.947-.442.066-.142.947.442-.067.142zm.32-.756l-1.717-.626.054-.147 1.718.626-.054.146zm.253-.78l-1.01-.272.042-.15 1.01.27-.042.15zm.184-.8l-1.8-.32.027-.153 1.8.318-.027.155zm.114-.814l-1.04-.09.013-.157 1.04.09-.013.157zm-1.786-.82v-.157h1.828v.157h-1.828z"/>
    <path opacity=".3" d="M10.82 10.9l2.232 2.295 5.67-7.912"/>
</svg>
