<svg xmlns="http://www.w3.org/2000/svg" width="24" height="24" viewBox="0 0 24 24">
    <path id="bounds" opacity="0" d="M0 0h24v24H0z"/>
    <path d="M12 7.163h9.59C19.82 3.658 16.196 1.25 12 1.25c-3.662 0-6.892 1.835-8.833 4.63l4.094 7.09c-.063-.312-.097-.637-.097-.97 0-2.672 2.165-4.837 4.837-4.837z"/>
    <path d="M7.838 14.427L3 6.13C1.897 7.82 1.25 9.833 1.25 12c0 5.636 4.34 10.25 9.86 10.705l4.11-7.118c-.857.77-1.977 1.25-3.22 1.25-1.783 0-3.323-.975-4.162-2.41z"/>
    <path d="M21.72 7.43h-8.196c1.92.642 3.313 2.434 3.313 4.57 0 .884-.255 1.702-.67 2.415l-4.756 8.305c.197.01.39.03.59.03 5.937 0 10.75-4.813 10.75-10.75 0-1.636-.376-3.18-1.03-4.57z"/>
    <circle cx="12" cy="12" r="4"/>
</svg>
