<svg xmlns="http://www.w3.org/2000/svg" width="24" height="24" viewBox="0 0 24 24">
    <path id="bounds" opacity="0" d="M0 0h24v24H0z"/>
    <path d="M12 22C6.486 22 2 17.513 2 12S6.486 2 12 2s10 4.486 10 10-4.486 10-10 10zm0-18.5c-4.687 0-8.5 3.813-8.5 8.5s3.813 8.5 8.5 8.5 8.5-3.813 8.5-8.5-3.813-8.5-8.5-8.5z"/>
    <path fill="#F91880" d="M12.024 6.335c-.516 0-1.01.07-1.48.186.776.34 1.32 1.105 1.32 2 0 1.205-.988 2.183-2.206 2.183S7.45 9.726 7.45 8.52v-.01c-.755.965-1.203 2.187-1.203 3.543 0 2.91 2.514 5.4 5.776 5.4 2.94 0 5.456-2.488 5.456-5.4 0-3.23-2.515-5.718-5.456-5.718z"/>
</svg>
