<?xml version="1.0" encoding="UTF-8"?>
<svg xmlns="http://www.w3.org/2000/svg" width="24" height="24" viewBox="0 0 24 24">
    <path d="M12 4.75C9.475 4.75 7.251 6.041 5.952 8H9v2H3V4h2v1.953C6.696 3.992 9.202 2.75 12 2.75c4.327 0 7.958 2.97 8.97 6.982l-1.94.489C18.237 7.076 15.389 4.75 12 4.75Zm-7.03 9.029c.793 3.145 3.641 5.471 7.03 5.471 2.525 0 4.749-1.291 6.048-3.25H15v-2h6v6h-2v-1.953c-1.696 1.961-4.202 3.203-7 3.203-4.327 0-7.958-2.97-8.97-6.982l1.94-.489ZM12 10c-1.105 0-2 .895-2 2s.895 2 2 2 2-.895 2-2-.895-2-2-2Z"/>
</svg>
