<?xml version="1.0" encoding="UTF-8"?>
<svg xmlns="http://www.w3.org/2000/svg" width="24" height="24" viewBox="0 0 24 24">
    <path d="M2.008 6.5c0-1.381 1.119-2.5 2.5-2.5h11c1.381 0 2.5 1.119 2.5 2.5v1.882l4-2v11.236l-4-2V17.5c0 1.381-1.119 2.5-2.5 2.5h-11c-1.381 0-2.5-1.119-2.5-2.5v-11Zm16 6.882 2 1V9.618l-2 1v2.764ZM4.508 6c-.276 0-.5.224-.5.5v11c0 .276.224.5.5.5h11c.276 0 .5-.224.5-.5v-11c0-.276-.224-.5-.5-.5h-11Zm5.5 4c-1.105 0-2 .895-2 2s.895 2 2 2 2-.895 2-2-.896-2-2-2Zm-4 2c0-2.209 1.791-4 4-4s4 1.791 4 4-1.791 4-4 4-4-1.791-4-4Z"/>
</svg>
