<?xml version="1.0" encoding="UTF-8"?>
<svg xmlns="http://www.w3.org/2000/svg" width="24" height="24" viewBox="0 0 24 24">
    <path d="m4.423 19.999-1.708 1.708-1.414-1.414 1.244-1.244c-.336-.426-.537-.964-.537-1.549v-11c0-1.381 1.119-2.5 2.5-2.5h11.5c.446 0 .859.146 1.192.394l2.101-2.101 1.414 1.414L4.508 19.914V20h-.085Zm-.409-2.421 2.966-2.965c-1.36-1.572-1.293-3.95.199-5.442s3.871-1.559 5.443-.2l2.972-2.972H4.508c-.276 0-.5.224-.5.5v11c0 .027.002.054.006.079Zm7.186-7.185c-.783-.583-1.896-.519-2.606.192-.711.71-.775 1.823-.192 2.606l2.798-2.798Zm10.808-4.394v12l-4-3v2.5c0 1.381-1.12 2.5-2.5 2.5h-6.5v-2h6.5c.276 0 .5-.224.5-.5v-7l6-4.5Zm-4 6.5 2 1.5v-4l-2 1.5v1Z"/>
</svg>
