<?xml version="1.0" encoding="UTF-8"?>
<svg xmlns="http://www.w3.org/2000/svg" width="24" height="24" viewBox="0 0 24 24">
    <path d="M9.697 3h4.606l3 2H19c1.381 0 2.5 1.119 2.5 2.5v11c0 1.381-1.119 2.5-2.5 2.5H5c-1.381 0-2.5-1.119-2.5-2.5v-11C2.5 6.119 3.619 5 5 5h1.697l3-2Zm.606 2-3 2H5c-.276 0-.5.224-.5.5v11c0 .276.224.5.5.5h14c.276 0 .5-.224.5-.5v-11c0-.276-.224-.5-.5-.5h-2.303l-3-2h-3.394ZM12 10.5c-1.105 0-2 .895-2 2s.895 2 2 2 2-.895 2-2-.895-2-2-2Zm-4 2c0-2.209 1.791-4 4-4s4 1.791 4 4-1.791 4-4 4-4-1.791-4-4Z"/>
</svg>
