<?xml version="1.0" encoding="UTF-8"?>
<svg xmlns="http://www.w3.org/2000/svg" width="24" height="24" viewBox="0 0 24 24">
    <path d="M7 3h13.5C21.88 3 23 4.12 23 5.5V15c0 1.1-.9 2-2 2V5.5c0-.28-.22-.5-.5-.5H5c0-1.1.9-2 2-2Zm2 10.27v-1.75H5v1.75h4Zm0 3.21v-1.75H5v1.75h4Zm2 .02h4v-5h-4v5Zm-9.88 2c0 1.31 1.07 2.38 2.38 2.38h13c1.31 0 2.38-1.07 2.38-2.38v-9c0-1.31-1.07-2.38-2.38-2.38h-13c-1.31 0-2.38 1.07-2.38 2.38v9ZM16.5 8.88c.35 0 .62.27.62.62v9c0 .35-.27.62-.62.62h-13c-.35 0-.62-.27-.62-.62v-9c0-.35.27-.62.62-.62h13Z"/>
</svg>
