<?xml version="1.0" encoding="UTF-8"?>
<svg xmlns="http://www.w3.org/2000/svg" width="24" height="24" viewBox="0 0 24 24">
    <path d="M10.5 17c0-.83.67-1.5 1.5-1.5s1.5.67 1.5 1.5-.67 1.5-1.5 1.5-1.5-.67-1.5-1.5Zm1.5-3c.5 0 1 .2 1 .2l.25-5.7h-2.5l.25 5.7s.5-.2 1-.2Zm10.568 6.745c.451-.783.45-1.717-.002-2.496l-8.4-14.511C13.712 2.957 12.903 2.49 12 2.49s-1.711.467-2.165 1.249l-8.4 14.509c-.453.78-.454 1.714-.002 2.497C1.886 21.531 2.696 22 3.6 22h16.8c.905 0 1.715-.469 2.168-1.255ZM12.435 4.741l8.4 14.511c.125.214.053.402 0 .495-.044.076-.174.253-.435.253H3.6c-.261 0-.391-.177-.435-.253-.053-.093-.125-.281 0-.495l8.4-14.51c.131-.228.348-.252.435-.252s.304.024.435.251Z"/>
</svg>
