<svg width="24" height="24" viewBox="0 0 24 24" xmlns="http://www.w3.org/2000/svg">
<path d="M21.503 6.745C21.978 7.777 22.251 8.921 22.251 10.13C22.251 13.085 20.643 15.81 18.055 17.24L10.001 21.699V18.247L12.001 16.247V18.307L17.087 15.491C19.039 14.412 20.251 12.358 20.251 10.131C20.251 9.487 20.15 8.867 19.965 8.284L21.503 6.745ZM4.91998 20.5L3.50598 19.086L5.69698 16.895C3.33998 15.5 1.75098 12.935 1.75098 10C1.75098 5.589 5.34198 2 9.75598 2H14.122C15.94 2 17.616 2.608 18.971 3.62L20.296 2.295L21.71 3.709L4.91998 20.5ZM7.17198 15.42L17.545 5.047C16.567 4.386 15.389 4 14.123 4H9.75698C6.44598 4 3.75198 6.691 3.75198 10C3.75198 12.389 5.15198 14.451 7.17198 15.42Z" />
</svg>
