<svg width="24" height="24" viewBox="0 0 24 24" xmlns="http://www.w3.org/2000/svg">
<path d="M1.75099 10C1.75099 8.94901 1.95808 7.90831 2.36043 6.93738C2.76278 5.96645 3.3525 5.08431 4.0959 4.34138C4.8393 3.59844 5.7218 3.00927 6.69298 2.60753C7.66416 2.20579 8.70499 1.99934 9.75599 2H14.122C15.9242 1.99957 17.6754 2.59821 19.1003 3.70175C20.5251 4.8053 21.5427 6.35115 21.9931 8.0962C22.4434 9.84124 22.301 11.6865 21.5881 13.3417C20.8752 14.9969 19.6323 16.3683 18.055 17.24L9.99999 21.7V18.01H9.93399C8.86727 18.0344 7.80645 17.8452 6.81396 17.4535C5.82147 17.0617 4.91737 16.4754 4.15488 15.7291C3.39238 14.9827 2.78689 14.0913 2.37406 13.1074C1.96122 12.1235 1.74937 11.067 1.75099 10ZM9.75599 4C8.95994 3.99727 8.17129 4.15282 7.4359 4.45759C6.7005 4.76237 6.03303 5.2103 5.4723 5.77534C4.91156 6.34038 4.46874 7.01125 4.16959 7.74896C3.87044 8.48666 3.72093 9.27647 3.72975 10.0725C3.73856 10.8685 3.90553 11.6548 4.22094 12.3857C4.53635 13.1166 4.99392 13.7775 5.56703 14.33C6.14014 14.8824 6.81737 15.3155 7.55933 15.6039C8.3013 15.8923 9.0932 16.0304 9.88899 16.01L10.24 16H12V18.3L17.087 15.49C18.2764 14.8329 19.2136 13.7991 19.7512 12.5511C20.2888 11.3031 20.3963 9.91182 20.0568 8.59608C19.7173 7.28033 18.95 6.11478 17.8756 5.28278C16.8013 4.45077 15.4808 3.99952 14.122 4H9.75599Z" />
</svg>
