<?xml version="1.0" encoding="UTF-8"?>
<svg xmlns="http://www.w3.org/2000/svg" width="24" height="24" viewBox="0 0 24 24">
    <path d="m23.367 8.254-3.455-2.878c-.73-.608-1.763-.751-2.63-.358L12.471 7.19c-.895.403-1.472 1.298-1.472 2.279v.692l-1.771-.8c.492-.673.771-1.496.771-2.361 0-2.206-1.794-4-4-4S2 4.794 2 7s1.794 4 4 4c.486 0 .969-.089 1.421-.261L10.212 12l-2.791 1.261C6.968 13.089 6.485 13 6 13c-2.206 0-4 1.794-4 4s1.794 4 4 4 4-1.794 4-4c0-.865-.278-1.688-.771-2.361l1.771-.8v.692c0 .981.578 1.876 1.471 2.278l4.812 2.173c.869.393 1.9.25 2.629-.357l3.455-2.879L15.073 12l8.294-3.746Zm-16.42.509C6.654 8.92 6.335 9 6 9c-1.103 0-2-.897-2-2s.897-2 2-2 2 .897 2 2c0 .736-.403 1.412-1.053 1.763ZM6 19c-1.103 0-2-.897-2-2s.897-2 2-2c.335 0 .654.08.947.237C7.596 15.588 8 16.263 8 17c0 1.103-.897 2-2 2Zm7-9.531c0-.196.115-.375.294-.456l4.812-2.173c.065-.029.135-.044.205-.044.116 0 .23.04.321.116l1.001.834L13 10.741V9.469Zm6.633 6.785-1.001.835c-.146.121-.352.149-.525.071l-4.812-2.174c-.178-.08-.293-.259-.293-.455v-1.272l6.633 2.995Z"/>
</svg>
