<?xml version="1.0" encoding="UTF-8"?>
<svg xmlns="http://www.w3.org/2000/svg" width="24" height="24" viewBox="0 0 24 24">
    <path d="M3 5.5C3 4.12 4.119 3 5.5 3h13C19.881 3 21 4.12 21 5.5v13c0 1.38-1.119 2.5-2.5 2.5h-13C4.119 21 3 19.88 3 18.5v-13Zm2.746 6.52c0 1.85 1.421 3.2 3.187 3.2v-.01h.003c1.369 0 2.154-.59 2.737-1.39l-1.22-.87c-.303.44-.812.73-1.39.73-.93 0-1.685-.75-1.685-1.68s.754-1.68 1.684-1.68c.559 0 1.051.27 1.357.69l1.207-.93c-.545-.76-1.36-1.29-2.62-1.29-1.872 0-3.26 1.41-3.26 3.21v.02Zm6.584 0c0 1.85 1.421 3.2 3.185 3.2 1.368 0 2.154-.6 2.738-1.4l-1.22-.87c-.304.44-.813.74-1.39.74-.93 0-1.684-.76-1.684-1.69s.755-1.68 1.685-1.68c.559 0 1.051.27 1.356.69l1.21-.93c-.547-.76-1.36-1.29-2.622-1.29-1.872 0-3.258 1.41-3.258 3.21v.02Z"/>
</svg>
