<?xml version="1.0" encoding="UTF-8"?>
<svg xmlns="http://www.w3.org/2000/svg" width="24" height="24" viewBox="0 0 24 24">
    <path d="m16.043 6.54 4.75-4.75 1.414 1.42-4.75 4.75-1.414-1.42ZM3.207 22.21l4.75-4.75-1.414-1.42-4.75 4.75 1.414 1.42Zm5.727-7h.002c1.369 0 2.154-.59 2.737-1.39l-1.22-.87c-.303.44-.812.73-1.39.73-.93 0-1.685-.75-1.685-1.68s.754-1.69 1.684-1.69c.559 0 1.051.28 1.357.7l1.207-.94c-.545-.76-1.36-1.29-2.62-1.29-1.872 0-3.26 1.42-3.26 3.22v.02c0 1.84 1.421 3.19 3.187 3.19Zm9.319-1.39-1.22-.87c-.304.44-.813.73-1.39.73-.93 0-1.684-.75-1.684-1.68s.755-1.68 1.685-1.68c.559 0 1.051.27 1.356.69l1.21-.94c-.547-.76-1.36-1.29-2.622-1.29-1.872 0-3.258 1.42-3.258 3.22v.02c0 1.84 1.421 3.19 3.185 3.19 1.368 0 2.154-.59 2.738-1.39ZM3 5.74V15h2V5.74c0-.27.224-.5.5-.5h9.258l2-2H5.5C4.119 3.24 3 4.36 3 5.74ZM18.5 19H9.243l-2 2H18.5c1.381 0 2.5-1.12 2.5-2.5V9h-2v9.5c0 .28-.224.5-.5.5Z"/>
</svg>
