<?xml version="1.0" encoding="UTF-8"?>
<svg xmlns="http://www.w3.org/2000/svg" width="24" height="24" viewBox="0 0 24 24">
    <path d="M5.747 12c0-1.8 1.388-3.22 3.26-3.22 1.26 0 2.075.53 2.62 1.29l-1.207.94c-.306-.42-.798-.7-1.357-.7-.93 0-1.684.76-1.684 1.69s.755 1.68 1.685 1.68c.578 0 1.087-.29 1.39-.73l1.22.87c-.583.8-1.368 1.39-2.737 1.39h-.003c-1.766 0-3.187-1.35-3.187-3.19V12Zm6.584.02c0 1.84 1.421 3.19 3.185 3.19 1.368 0 2.154-.59 2.738-1.39l-1.22-.87c-.304.44-.813.73-1.39.73-.93 0-1.684-.75-1.684-1.68s.755-1.68 1.685-1.68c.559 0 1.051.27 1.356.69l1.21-.94c-.547-.76-1.36-1.29-2.622-1.29-1.872 0-3.258 1.42-3.258 3.22v.02ZM18.5 3C19.881 3 21 4.12 21 5.5v13c0 1.38-1.119 2.5-2.5 2.5h-13C4.119 21 3 19.88 3 18.5v-13C3 4.12 4.119 3 5.5 3h13ZM5 18.5c0 .28.224.5.5.5h13c.276 0 .5-.22.5-.5v-13c0-.28-.224-.5-.5-.5h-13c-.276 0-.5.22-.5.5v13Z"/>
</svg>
