<?xml version="1.0" encoding="UTF-8"?>
<svg xmlns="http://www.w3.org/2000/svg" width="24" height="24" viewBox="0 0 24 24">
    <path d="M15.5 6C16.88 6 18 7.12 18 8.5v7c0 1.21-.86 2.22-2 2.45V8.5c0-.28-.22-.5-.5-.5H6.05c.23-1.14 1.24-2 2.45-2h7Zm-4 4c1.38 0 2.5 1.12 2.5 2.5v7c0 1.38-1.12 2.5-2.5 2.5h-7C3.12 22 2 20.88 2 19.5v-7C2 11.12 3.12 10 4.5 10h7ZM4 19.5c0 .28.22.5.5.5h7c.28 0 .5-.22.5-.5v-7c0-.28-.22-.5-.5-.5h-7c-.28 0-.5.22-.5.5v7ZM19.5 2C20.88 2 22 3.12 22 4.5v7c0 1.21-.86 2.22-2 2.45V4.5c0-.28-.22-.5-.5-.5h-9.45c.23-1.14 1.24-2 2.45-2h7Z"/>
</svg>
