<?xml version="1.0" encoding="UTF-8"?>
<svg xmlns="http://www.w3.org/2000/svg" width="24" height="24" viewBox="0 0 24 24">
    <path d="M9 3c-4.962 0-9 4.037-9 9s4.038 9 9 9 9-4.037 9-9-4.038-9-9-9Zm0 16c-1.342 0-2.593-.386-3.66-1.044C6.371 17.322 7.597 17 9 17s2.628.321 3.659.956C11.593 18.614 10.342 19 9 19Zm5.244-2.379C12.794 15.561 11.003 15 9.001 15s-3.793.562-5.243 1.622c-1.09-1.235-1.757-2.85-1.757-4.622 0-3.859 3.14-7 7-7s7 3.141 7 7c0 1.772-.667 3.387-1.756 4.621ZM24 12c0 4.963-3.14 9-7 9v-2c2.757 0 5-3.141 5-7s-2.243-7-5-7V3c3.86 0 7 4.037 7 9ZM9 7c-1.93 0-3.5 1.57-3.5 3.5S7.07 14 9 14s3.5-1.57 3.5-3.5S10.93 7 9 7Zm0 5c-.827 0-1.5-.673-1.5-1.5S8.173 9 9 9s1.5.673 1.5 1.5S9.827 12 9 12Z"/>
</svg>
