<?xml version="1.0" encoding="UTF-8"?>
<svg xmlns="http://www.w3.org/2000/svg" width="24" height="24" viewBox="0 0 24 24">
    <path d="M12 12V2L3.5 7l8.5 5Z" fill="#00ba7c"/>
    <path d="M12 12V2l8.5 5-8.5 5Z" fill="#ffd400"/>
    <path d="M12 22V12l-8.5 5 8.5 5Z" fill="#7856ff"/>
    <path d="M12 22V12l8.5 5-8.5 5Z" fill="#f4212e"/>
    <path d="m3.5 7 8.5 5-8.5 5V7Z" fill="#1d9bf0"/>
    <path d="M20.5 7 12 12l8.5 5V7Z" fill="#ff7a00"/>
    <path d="M12 3.75c-4.56 0-8.25 3.694-8.25 8.25s3.69 8.25 8.25 8.25 8.25-3.694 8.25-8.25S16.56 3.75 12 3.75ZM1.75 12C1.75 6.339 6.34 1.75 12 1.75S22.25 6.339 22.25 12 17.66 22.25 12 22.25 1.75 17.661 1.75 12Z"/>
</svg>
