<?xml version="1.0" encoding="UTF-8"?>
<svg xmlns="http://www.w3.org/2000/svg" width="24" height="24" viewBox="0 0 24 24">
    <circle cx="12" cy="12" r="6.25" fill="#010101" opacity=".5"/>
    <path d="M12 5.75c-2.295 0-4.295 1.241-5.382 3.084L12 12V5.75Z" fill="#00ba7c"/>
    <path d="M12 5.75V12l5.382-3.166C16.295 6.991 14.295 5.75 12 5.75Z" fill="#ffd400"/>
    <path d="M6.618 15.166C7.705 17.009 9.705 18.25 12 18.25V12l-5.382 3.166Z" fill="#7856ff"/>
    <path d="M12 18.25c2.295 0 4.295-1.241 5.382-3.084L12 12v6.25Z" fill="#f4212e"/>
    <path d="M6.618 8.834C6.07 9.763 5.75 10.843 5.75 12s.32 2.237.868 3.166L12 12 6.618 8.834Z" fill="#1d9bf0"/>
    <path d="M17.382 15.166c.548-.929.868-2.009.868-3.166s-.32-2.237-.868-3.166L12 12l5.382 3.166Z" fill="#ff7a00"/>
    <path d="M12 3.75c-4.56 0-8.25 3.694-8.25 8.25s3.69 8.25 8.25 8.25 8.25-3.694 8.25-8.25S16.56 3.75 12 3.75ZM1.75 12C1.75 6.339 6.34 1.75 12 1.75S22.25 6.339 22.25 12 17.66 22.25 12 22.25 1.75 17.661 1.75 12Z" fill="#fff"/>
</svg>
