<?xml version="1.0" encoding="UTF-8"?>
<svg xmlns="http://www.w3.org/2000/svg" width="24" height="24" viewBox="0 0 24 24">
    <path d="M12 22.25c-4.99 0-9.18-3.393-10.39-7.994l1.93-.512c.99 3.746 4.4 6.506 8.46 6.506s7.47-2.76 8.46-6.506l1.93.512c-1.21 4.601-5.4 7.994-10.39 7.994ZM5 8.75v2.75c0 3.866 3.13 7 7 7s7-3.134 7-7V11h-2v.5c0 2.761-2.24 5-5 5s-5-2.239-5-5V8.75c0-2.614 2.01-4.76 4.56-4.981l.48-.02L12 1.75c-.2 0-.39.008-.58.024C7.82 2.07 5 5.08 5 8.75ZM11.25 8v4.25c0 .414.34.75.75.75s.75-.336.75-.75V8c0-.414-.34-.75-.75-.75s-.75.336-.75.75Zm-3 1v2.25c0 .414.34.75.75.75s.75-.336.75-.75V9c0-.414-.34-.75-.75-.75s-.75.336-.75.75Zm6 0v2.25c0 .414.34.75.75.75s.75-.336.75-.75V9c0-.414-.34-.75-.75-.75s-.75.336-.75.75ZM15 3v2h3v3h2V5h3V3h-3V0h-2v3h-3Z"/>
</svg>
