<svg xmlns="http://www.w3.org/2000/svg" width="24" height="24" viewBox="0 0 24 24">
    <path id="bounds" opacity="0" d="M0 0h24v24H0z"/>
	<path d="M22.7 10.93c-.35-.11-.74-.17-1.17-.17-2.062 0-3.072 1.35-3.963 2.54-.9 1.2-1.52 1.94-2.76 1.94-1.182 0-1.942-1.8-2.672-3.54-.88-2.08-1.87-4.45-4.052-4.45S4.913 9.62 4.03 11.7c-.65 1.56-1.33 3.16-2.31 3.48-.3-1.01-.47-2.07-.47-3.18 0-5.94 4.812-10.75 10.755-10.75 5.583 0 10.165 4.24 10.695 9.68z"/>
	<path d="M22.75 12.58c-.31 5.66-5.002 10.17-10.745 10.17-4.302 0-8.014-2.53-9.735-6.17 1.57-.55 2.39-2.53 3.14-4.29.73-1.74 1.492-3.54 2.672-3.54s1.94 1.8 2.67 3.54c.88 2.08 1.872 4.45 4.053 4.45 2.05 0 3.07-1.35 3.962-2.54.9-1.21 1.52-1.94 2.76-1.94.483 0 .873.11 1.223.32z"/>
</svg>
