<?xml version="1.0" encoding="UTF-8"?>
<svg xmlns="http://www.w3.org/2000/svg" width="24" height="24" viewBox="0 0 24 24">
    <path d="M7 17h6v2H7v-2Zm7.5-15C15.88 2 17 3.12 17 4.5v15c0 1.38-1.12 2.5-2.5 2.5h-9C4.12 22 3 20.88 3 19.5v-15C3 3.12 4.12 2 5.5 2h9ZM5 19.5c0 .28.22.5.5.5h9c.28 0 .5-.22.5-.5v-15c0-.28-.22-.5-.5-.5h-9c-.28 0-.5.22-.5.5v15Zm15.74-3.49 1.64 1.15C23.4 15.7 24 13.92 24 12s-.6-3.7-1.62-5.16l-1.64 1.15C21.53 9.13 22 10.51 22 12s-.47 2.87-1.26 4.01Zm-.82-7.45-1.64 1.15c.45.65.72 1.43.72 2.29 0 .85-.27 1.64-.72 2.29l1.64 1.15C20.6 14.47 21 13.28 21 12s-.4-2.47-1.08-3.44Z"/>
</svg>
