<svg xmlns="http://www.w3.org/2000/svg" width="26" height="26" viewBox="0 0 26 26">
    <circle fill="#FFF" cx="13" cy="13" r="13"/>
    <circle cx="13" cy="13" r="11"/>
    <path fill="#FFF" d="M13 16.9c-1.38 0-2.68-.57-3.575-1.503.163 1.828 1.706 3.25 3.575 3.25s3.413-1.422 3.575-3.25C15.68 16.33 14.38 16.9 13 16.9z"/>
    <path fill="#FFF" d="M17.672 13.65c-.284-.325-.61-.65-.934-.894-.244-.203-.528-.366-.813-.528 1.22-.894 1.99-2.316 1.99-3.94 0-.49-.405-.854-.852-.854s-.853.406-.853.853c0 .69-.244 1.34-.61 1.87-.446-1.26-1.38-2.44-2.6-2.44s-2.152 1.18-2.6 2.44c-.365-.53-.608-1.18-.608-1.87 0-.488-.406-.853-.853-.853-.448 0-.854.406-.854.853 0 1.625.772 3.047 1.99 3.94-.283.163-.527.326-.81.53-.326.283-.65.568-.935.893-.893 1.056-1.42 2.438-1.42 3.9 0 .487.405.853.852.853.447 0 .853-.406.853-.853 0-.853.244-1.625.65-2.275.203-.325.447-.65.73-.894.692.854 1.748 1.382 2.967 1.382s2.234-.528 2.966-1.38c.284.283.528.568.73.893.407.65.65 1.462.65 2.275 0 .487.407.853.854.853s.853-.406.853-.853c.08-1.503-.45-2.844-1.343-3.9z"/>
</svg>
