<svg xmlns="http://www.w3.org/2000/svg" width="26" height="26" viewBox="0 0 26 26">
    <circle fill="#FFF" cx="13" cy="13" r="13"/>
    <circle cx="13" cy="13" r="11"/>
    <path fill="#FFF" d="M12.27 16.616c0-.244-.042-.447-.082-.65l3.738-3.738c.203.04.447.08.65.08 1.584 0 2.884-1.3 2.884-2.883 0-.325-.325-.772-.69-.406l-1.098 1.096s-.73.366-1.462-.366c-.73-.73-.366-1.463-.366-1.463L16.94 7.19c.366-.365-.08-.69-.406-.69-1.584 0-2.884 1.3-2.884 2.884 0 .244.04.447.08.65L9.994 13.77c-.203-.04-.447-.08-.65-.08-1.584 0-2.884 1.3-2.884 2.884 0 .325.324.772.69.406l1.097-1.097s.73-.366 1.462.366c.73.73.365 1.46.365 1.46L8.978 18.81c-.366.367.08.692.406.692 1.625 0 2.885-1.3 2.885-2.884z"/>
</svg>
