<svg width="24" height="24" fill="none" xmlns="http://www.w3.org/2000/svg"><path d="M9 4.003H1v-2h8v2zm-3 2H1v2h5v-2zm12.94 4.946c-.23 1.944-1.165 3.737-2.628 5.037-1.464 1.3-3.354 2.018-5.312 2.017H7.19c-.124.995-.187 1.997-.19 3H5c-.085-4.632 1.297-9.172 3.95-12.97 2.67-3.61 6.43-6.13 13.05-6.03.17 3.359-.21 7.147-3.06 8.946zM20 4.036c-1.863.1-3.68.618-5.316 1.516-1.636.898-3.049 2.153-4.134 3.67-1.457 2.03-2.478 4.338-3 6.78H11c1.275 0 2.516-.405 3.545-1.158 1.028-.753 1.79-1.814 2.175-3.03-.566.115-1.142.178-1.72.189h-1.5v-2H15c3.9 0 4.95-2.921 5-5.967z"/></svg>