<?xml version="1.0" encoding="UTF-8"?>
<svg xmlns="http://www.w3.org/2000/svg" width="24" height="24" viewBox="0 0 24 24">
    <path d="M19.5 3h-15C3.119 3 2 4.119 2 5.5v11C2 17.881 3.119 19 4.5 19h4.15l3.34 2.793L15.37 19h4.13c1.381 0 2.5-1.119 2.5-2.5v-11C22 4.119 20.881 3 19.5 3ZM8 12.25c-.69 0-1.25-.56-1.25-1.25S7.31 9.75 8 9.75s1.25.56 1.25 1.25-.56 1.25-1.25 1.25Zm4 0c-.69 0-1.25-.56-1.25-1.25s.56-1.25 1.25-1.25 1.25.56 1.25 1.25-.56 1.25-1.25 1.25Zm4 0c-.69 0-1.25-.56-1.25-1.25s.56-1.25 1.25-1.25 1.25.56 1.25 1.25-.56 1.25-1.25 1.25Z"/>
</svg>
