<?xml version="1.0" encoding="UTF-8"?>
<svg xmlns="http://www.w3.org/2000/svg" width="24" height="24" viewBox="0 0 24 24">
    <path d="M20 12h2v4.5c0 1.381-1.119 2.5-2.5 2.5h-4.13l-3.38 2.793L8.65 19H4.5C3.119 19 2 17.881 2 16.5v-11C2 4.119 3.119 3 4.5 3H13v2H4.5c-.276 0-.5.224-.5.5v11c0 .276.224.5.5.5h4.88L12 19.183 14.65 17h4.85c.276 0 .5-.224.5-.5V12Zm2.121-10.536L20 3.585l-2.121-2.121-1.414 1.414 2.121 2.121-2.121 2.121 1.414 1.414L20 6.413l2.121 2.121 1.414-1.414-2.121-2.121 2.121-2.121-1.414-1.414ZM8 12.25c.69 0 1.25-.56 1.25-1.25S8.69 9.75 8 9.75s-1.25.56-1.25 1.25.56 1.25 1.25 1.25Zm4-2.5c-.69 0-1.25.56-1.25 1.25s.56 1.25 1.25 1.25c.42 0 .773-.221 1-.539.146-.204.25-.441.25-.711s-.104-.507-.25-.711c-.227-.318-.58-.539-1-.539ZM16.711 12c.318-.227.539-.58.539-1 0-.69-.56-1.25-1.25-1.25s-1.25.56-1.25 1.25c0 .42.221.773.539 1 .204.146.441.25.711.25s.507-.104.711-.25Z"/>
</svg>
