<?xml version="1.0" encoding="UTF-8"?>
<svg xmlns="http://www.w3.org/2000/svg" width="24" height="24" viewBox="0 0 24 24">
    <path d="M12 1.75C6.339 1.75 1.75 6.34 1.75 12S6.339 22.25 12 22.25 22.25 17.66 22.25 12 17.661 1.75 12 1.75Zm1.161 10.672c-1.662 2.266-3.103 2.437-3.103 4.075 0 .428.099.902.395 1.283.052.069.109.127.17.185-.779-.185-1.488-.526-2.069-1.035-.918-.803-1.467-1.977-1.467-3.434 0-1.474.843-2.746 1.67-3.994.379-.572.755-1.139 1.045-1.717l.155.139c.373.335.744.671.987 1.121.479-.954.479-1.96.479-2.994v-.052c2.773 1.572 5.491 4.052 5.491 7.497 0 2.289-1.64 4.04-3.783 4.503.181-.121.348-.266.495-.422 1.434-1.532.595-3.356-.465-5.156Z"/>
</svg>
