<?xml version="1.0" encoding="UTF-8"?>
<svg xmlns="http://www.w3.org/2000/svg" width="24" height="24" viewBox="0 0 24 24">
    <defs>
        <linearGradient x1="32.316%" y1="99.437%" x2="100.016%" y2="45.39%" id="a">
            <stop stop-color="#FF0633" offset=".852%"/>
            <stop stop-color="#FA1980" offset="100%"/>
        </linearGradient>
    </defs>
    <path fill="url(#a)" d="M14.83 13.82c.143.28.333.67.524 1.12.372.88.785 2.1.785 3.22 0 1.18-.55 2.32-1.327 3.15-.255.27-.544.52-.857.73 3.707-.8 6.545-3.83 6.545-7.79C20.5 8.29 15.797 4 11 1.28v.09c0 1.79 0 3.53-.829 5.18-.42-.78-1.061-1.36-1.707-1.94l-.268-.24c-.501 1-1.151 1.98-1.807 2.97C4.959 9.5 3.5 11.7 3.5 14.25c0 2.52.949 4.55 2.538 5.94 1.004.88 2.232 1.47 3.579 1.79-.106-.1-.204-.2-.294-.32-.512-.66-.684-1.48-.684-2.22 0-1.55.876-2.5 1.805-3.33.216-.19.435-.37.656-.56.76-.64 1.535-1.29 2.233-2.24l.675-.92.577.98"/>
</svg>
