<?xml version="1.0" encoding="UTF-8"?>
<svg xmlns="http://www.w3.org/2000/svg" width="24" height="24" viewBox="0 0 24 24">
    <path d="M14.83 13.82c.14.28.33.67.52 1.12.468 1.013.736 2.106.79 3.22-.073 1.544-.865 2.965-2.14 3.84 3.767-.694 6.513-3.96 6.55-7.79 0-6-4.7-10.25-9.5-13v.09c.143 1.768-.142 3.545-.83 5.18-.473-.722-1.068-1.354-1.76-1.87l-.26-.24c-.541 1.036-1.146 2.038-1.81 3C5 9.5 3.5 11.7 3.5 14.25c-.083 2.252.831 4.426 2.5 5.94 1.038.895 2.282 1.517 3.62 1.81-.11-.097-.211-.204-.3-.32-.465-.645-.704-1.425-.68-2.22.062-1.326.724-2.552 1.8-3.33l.66-.56c.836-.649 1.585-1.402 2.23-2.24l.68-.92.58 1 .24.41Z"/>
</svg>
