<?xml version="1.0" encoding="UTF-8"?>
<svg xmlns="http://www.w3.org/2000/svg" width="24" height="24" viewBox="0 0 24 24">
    <path d="M7 6h10v2h-1v2.7l3.316 4.97c.446.67.684 1.46.684 2.26 0 2.25-1.822 4.07-4.07 4.07H8.07C5.822 22 4 20.18 4 17.93c0-.8.238-1.59.684-2.26L8 10.7V8H7V6Zm9.742 9.42c-.227-.04-.531-.08-.873-.12-.757-.08-1.62-.13-2.25-.06-.572.07-.983.15-1.424.24h-.005c-.445.09-.92.19-1.571.26-.869.11-1.922.03-2.707-.05-.288-.04-.55-.07-.769-.1l-.795 1.19c-.227.34-.348.74-.348 1.15C6 19.07 6.927 20 8.07 20h7.86c1.143 0 2.07-.93 2.07-2.07 0-.41-.121-.81-.348-1.15l-.91-1.36ZM10 3c-.552 0-1 .45-1 1s.448 1 1 1 1-.45 1-1-.448-1-1-1Zm3.5-2c-.828 0-1.5.67-1.5 1.5S12.672 4 13.5 4 15 3.33 15 2.5 14.328 1 13.5 1Z"/>
</svg>
