<?xml version="1.0" encoding="UTF-8"?>
<svg xmlns="http://www.w3.org/2000/svg" width="24" height="24" viewBox="0 0 24 24">
    <path d="M10 10c2.209 0 4-1.79 4-4s-1.791-4-4-4-4 1.79-4 4 1.791 4 4 4Zm0-6c1.105 0 2 .9 2 2s-.895 2-2 2-2-.9-2-2 .895-2 2-2Zm5.863 9.44C14.373 11.85 12.352 11 10 11s-4.373.85-5.863 2.44c-1.477 1.58-2.366 3.8-2.632 6.46l-.11 1.1h17.21l-.11-1.1c-.266-2.66-1.155-4.88-2.632-6.46ZM5.596 14.81C6.682 13.65 8.162 13 10 13s3.318.65 4.404 1.81c.921.978 1.602 2.388 1.939 4.19H3.657c.337-1.802 1.018-3.212 1.939-4.19ZM24 10h-4.583l1.79 1.79-1.414 1.42-3.5-3.5-.707-.71.707-.71 3.5-3.5 1.414 1.42L19.417 8H24v2Z"/>
</svg>
