<svg xmlns="http://www.w3.org/2000/svg" width="158" height="20" viewBox="0 0 158 20">
    <path d="M1.29 9.333v3.992H0V4.31h3.412c.876 0 1.443.22 1.88.593.54.464.89 1.147.89 1.92 0 .772-.35 1.454-.89 1.918-.437.375-1.004.593-1.88.593H1.29M3.35 8.11c.618 0 .953-.155 1.185-.4.22-.23.36-.54.36-.888s-.142-.657-.36-.888c-.232-.245-.567-.4-1.185-.4H1.29V8.11h2.06zM9.505 7.144c1.79 0 3.13 1.352 3.13 3.155 0 1.802-1.34 3.154-3.13 3.154-1.79 0-3.13-1.352-3.13-3.155 0-1.803 1.34-3.156 3.13-3.156m0 5.152c1.12 0 1.906-.89 1.906-1.996 0-1.108-.785-1.996-1.905-1.996S7.6 9.192 7.6 10.3c0 1.107.784 1.996 1.905 1.996zM18.53 7.273l1.662 4.134 1.66-4.134h1.263l-2.46 6.053h-.85l-1.7-4.25-1.7 4.25h-.85l-2.458-6.053h1.262l1.66 4.134 1.66-4.134h.85M24.62 10.557c.065 1.017.903 1.83 1.958 1.83.902 0 1.39-.44 1.738-.825l.8.76c-.452.58-1.315 1.133-2.55 1.133-1.765 0-3.13-1.34-3.13-3.155 0-1.816 1.236-3.155 2.95-3.155 1.686 0 2.91 1.365 2.91 3.155 0 .05 0 .142-.013.258H24.62m.104-1.03h3.297c-.18-.774-.875-1.315-1.596-1.315-.786 0-1.494.528-1.7 1.314zM33.79 8.355c-.143-.04-.284-.052-.477-.052-.63 0-1.3.438-1.636 1.018v4.006h-1.223V7.273h1.185v.695c.295-.412.926-.824 1.815-.824.13 0 .335.013.476.04l-.14 1.17M35.437 10.557c.064 1.017.902 1.83 1.957 1.83.902 0 1.39-.44 1.738-.825l.8.76c-.452.58-1.314 1.133-2.55 1.133-1.765 0-3.13-1.34-3.13-3.155 0-1.816 1.236-3.155 2.95-3.155 1.686 0 2.91 1.365 2.91 3.155 0 .05 0 .142-.013.258h-4.663m.103-1.03h3.297c-.18-.774-.876-1.315-1.597-1.315-.786 0-1.494.528-1.7 1.314zM46.073 12.772c-.49.438-1.146.682-1.867.682-.54 0-1.108-.154-1.52-.4-.915-.54-1.545-1.544-1.545-2.755 0-1.212.645-2.23 1.56-2.77.41-.245.913-.386 1.48-.386.657 0 1.314.206 1.854.657V4.183h1.223v9.143h-1.185v-.553m-.038-3.606c-.373-.49-.992-.863-1.726-.863-1.172 0-1.945.94-1.945 1.996 0 1.08.837 1.995 2.01 1.995.617 0 1.248-.31 1.66-.863V9.166zM53.85 13.326h-1.185V4.182h1.224v3.62c.54-.452 1.196-.658 1.853-.658.567 0 1.07.142 1.48.386.915.54 1.56 1.558 1.56 2.77 0 1.21-.632 2.214-1.546 2.755-.412.245-.98.4-1.52.4-.72 0-1.378-.245-1.867-.683v.554m.04-1.893c.41.554 1.042.863 1.66.863 1.172 0 2.01-.914 2.01-1.996 0-1.056-.773-1.996-1.946-1.996-.734 0-1.352.374-1.725.863v2.266zM60.185 16.416l1.635-3.72-2.588-5.423h1.313l1.893 3.992 1.74-3.992h1.287l-3.98 9.143h-1.3M99.592 7.853v1.223H96.63v4.25h-1.288V4.31h5.15v1.225H96.63v2.318h2.962M103.815 7.144c1.79 0 3.13 1.352 3.13 3.155 0 1.802-1.34 3.154-3.13 3.154-1.79 0-3.13-1.352-3.13-3.155 0-1.803 1.34-3.156 3.13-3.156m0 5.152c1.12 0 1.906-.89 1.906-1.996 0-1.108-.784-1.996-1.905-1.996-1.12 0-1.906.89-1.906 1.996 0 1.107.785 1.996 1.905 1.996zM108.656 12.437c-.374-.464-.554-1.056-.554-2.073v-3.09h1.223v3.283c0 .618.13.953.348 1.21.27.322.708.528 1.172.528.747 0 1.352-.45 1.7-.863v-4.16h1.223v6.052h-1.185v-.554c-.27.258-.94.682-1.777.682-.862.002-1.648-.384-2.15-1.015M118.906 8.355c-.142-.04-.283-.052-.476-.052-.63 0-1.3.438-1.636 1.018v4.006h-1.223V7.273h1.186v.695c.297-.412.927-.824 1.816-.824.13 0 .335.013.477.04l-.144 1.17M120.386 11.716c.567.438 1.185.67 1.79.67.528 0 1.056-.283 1.056-.76 0-.695-1.005-.734-1.893-1.03-.735-.244-1.392-.708-1.392-1.558 0-1.3 1.16-1.893 2.24-1.893.89 0 1.533.283 2.01.67l-.63.876c-.374-.282-.812-.475-1.302-.475-.592 0-1.095.283-1.095.76 0 .412.477.554 1.083.708.953.245 2.202.67 2.202 1.92 0 1.145-1.07 1.853-2.254 1.853-.965 0-1.776-.296-2.446-.837l.632-.904M128.615 13.454c-.54 0-1.108-.154-1.52-.4-.914-.54-1.545-1.544-1.545-2.755 0-1.212.644-2.23 1.558-2.77.412-.245.914-.386 1.48-.386.684 0 1.34.206 1.894.682v-.553h1.185v9.143h-1.224v-3.62c-.49.427-1.107.658-1.828.658m1.828-4.288c-.373-.49-.99-.863-1.726-.863-1.172 0-1.944.94-1.944 1.996 0 1.08.837 1.995 2.01 1.995.617 0 1.248-.31 1.66-.863V9.166zM133.893 12.437c-.374-.464-.554-1.056-.554-2.073v-3.09h1.223v3.283c0 .618.128.953.347 1.21.27.322.708.528 1.172.528.747 0 1.352-.45 1.7-.863v-4.16h1.223v6.052h-1.185v-.554c-.27.258-.94.682-1.777.682-.862.002-1.647-.384-2.15-1.015M145.225 12.772c-.49.438-1.146.682-1.867.682-.54 0-1.107-.154-1.52-.4-.914-.54-1.545-1.544-1.545-2.755 0-1.212.644-2.23 1.558-2.77.413-.245.916-.386 1.482-.386.683 0 1.34.206 1.893.682v-.553h1.185v6.052h-1.185v-.553m-.04-3.606c-.372-.49-.99-.863-1.724-.863-1.17 0-1.944.94-1.944 1.996 0 1.08.837 1.995 2.01 1.995.617 0 1.248-.31 1.66-.863V9.166zM151.418 8.355c-.142-.04-.283-.052-.476-.052-.63 0-1.3.438-1.636 1.018v4.006h-1.223V7.273h1.185v.695c.297-.412.927-.824 1.816-.824.13 0 .335.013.477.04l-.142 1.17M153.324 10.557c.065 1.017.902 1.83 1.957 1.83.903 0 1.392-.44 1.74-.825l.797.76c-.45.58-1.313 1.133-2.55 1.133-1.764 0-3.13-1.34-3.13-3.155 0-1.816 1.237-3.155 2.95-3.155 1.687 0 2.91 1.365 2.91 3.155 0 .05 0 .142-.013.258h-4.66m.102-1.03h3.297c-.18-.774-.876-1.315-1.597-1.315-.785 0-1.493.528-1.7 1.314zM86.48 0H75.813C74.34 0 73.91 1.107 73.91 1.805v16.947c0 .786.42 1.077.658 1.173.237.097.892.177 1.284-.276 0 0 5.105-5.863 5.188-5.954.08-.09.17-.092.22-.092h3.234c1.37 0 1.59-.992 1.732-1.567.12-.48 1.455-7.32 1.9-9.488C88.466.89 88.046 0 86.48 0m-.254 12.037c.12-.48 1.455-7.32 1.9-9.488m-2.275.337l-.447 2.333c-.053.253-.302.49-.596.49l-4.156-.005c-.467 0-.87.352-.87.82v.508c0 .467.38.85.85.85h3.524c.33 0 .608.31.537.663-.07.353-.438 2.216-.48 2.41-.04.192-.246.454-.576.454h-2.878c-.598.02-.726.023-1.077.46-.352.435-3.506 4.222-3.506 4.222-.03.037-.062.026-.062-.014V2.852c0-.298.26-.648.648-.648h8.56c.317 0 .61.296.53.683z"/>
</svg>
