<?xml version="1.0" encoding="UTF-8"?>
<svg xmlns="http://www.w3.org/2000/svg" width="24" height="24" viewBox="0 0 24 24">
    <path d="M12 1.75C6.348 1.75 1.75 6.348 1.75 12S6.348 22.25 12 22.25 22.25 17.652 22.25 12 17.652 1.75 12 1.75ZM14.5 7c.828 0 1.5 1.119 1.5 2.5s-.672 2.5-1.5 2.5S13 10.881 13 9.5 13.672 7 14.5 7Zm-5 0c.828 0 1.5 1.119 1.5 2.5S10.328 12 9.5 12 8 10.881 8 9.5 8.672 7 9.5 7Zm5.551 10.316C15.02 17.226 14.223 15 12 15s-3.021 2.227-3.053 2.322l-1.896-.638C7.101 16.534 8.322 13 12 13s4.898 3.533 4.949 3.684l-1.897.633Z"/>
</svg>
