<?xml version="1.0" encoding="UTF-8"?>
<svg xmlns="http://www.w3.org/2000/svg" width="24" height="24" viewBox="0 0 24 24">
    <path d="m22.96 15.56-1.59-6.91C20.74 5.93 18.32 4 15.52 4H8.48c-2.8 0-5.22 1.93-5.85 4.65l-1.59 6.91c-.41 1.76.54 3.54 2.22 4.2 1.83.71 3.89-.17 4.65-1.98L8.66 16h6.68l.75 1.78c.76 1.81 2.82 2.69 4.65 1.98 1.68-.66 2.63-2.44 2.22-4.2ZM8.5 12c-1.1 0-2-.9-2-2s.9-2 2-2 2 .9 2 2-.9 2-2 2Zm6.5-2c-.55 0-1-.45-1-1s.45-1 1-1 1 .45 1 1-.45 1-1 1Zm2 2c-.55 0-1-.45-1-1s.45-1 1-1 1 .45 1 1-.45 1-1 1Z"/>
</svg>
