<?xml version="1.0" encoding="UTF-8"?>
<svg xmlns="http://www.w3.org/2000/svg" width="24" height="24" viewBox="0 0 24 24">
    <path d="M18.5 3h-13C4.12 3 3 4.119 3 5.5v13C3 19.881 4.12 21 5.5 21h13c1.38 0 2.5-1.119 2.5-2.5v-13C21 4.119 19.88 3 18.5 3ZM8.72 13.375c.26 0 .51-.086.68-.172v-.515H8.38v-1.032h2.39v2.149c-.51.601-1.2.945-2.05.945C7.19 14.75 6 13.547 6 12s1.19-2.75 2.72-2.75c.77 0 1.54.344 2.05.945l-1.03.86c-.25-.258-.68-.43-1.02-.43-.76 0-1.36.687-1.36 1.375 0 .773.6 1.375 1.36 1.375Zm4.51 1.375h-1.44v-5.5h1.44v5.5ZM18 10.711h-2.3v.859h1.7v1.461h-1.7v1.719h-1.44v-5.5H18v1.461Z"/>
</svg>
