<svg xmlns="http://www.w3.org/2000/svg" width="24" height="24" viewBox="0 0 24 24">
    <path id="bounds" opacity="0" d="M0 0h24v24H0z"/>
    <path d="M14.156 6.97l-2.57 2.57V6.97M14.238 12.64v4.39h-2.652v-1.738M18.83 9.612v1.595H22v2.642h-3.17v3.18h-2.652V10.7l3.73-3.73h3.15v2.642"/>
    <path d="M9.747 8.677v.05l-1.95 1.556c-.48-.508-1.13-.803-1.83-.803-1.575 0-2.825 1.473-2.44 3.11.194.832.844 1.523 1.657 1.787.57.193 1.097.163 1.575-.01l-2.4 2.398c-1.655-.55-2.946-1.96-3.3-3.678C.367 9.837 2.846 6.97 5.966 6.97c1.463 0 2.824.62 3.78 1.707z"/>
    <path d="M9.747 11.37v.01l-2.52 2.52v-.65h-1.88v-1.88"/>
    <path d="M20.252 4.82l-4.074 4.074-1.94 1.94-2.653 2.663-2.205 2.195-4.552 4.562c-.152.152-.345.224-.55.224-.192 0-.385-.07-.537-.224-.294-.295-.294-.782 0-1.077l2.155-2.154 3.85-3.85 4.492-4.492 4.938-4.937c.305-.295.782-.295 1.077 0 .305.305.305.782 0 1.077z"/>
</svg>
