<svg xmlns="http://www.w3.org/2000/svg" width="24" height="24" viewBox="0 0 24 24">
    <path id="bounds" opacity="0" d="M0 0h24v24H0z"/>
    <path d="M16.11 16.95h2.606v-3.126h3.127v-2.606h-3.127V9.655h4.17V7.05H16.11M11.596 7.05H14.2v9.9h-2.604zM6.065 7.05c-2.73 0-4.95 2.22-4.95 4.95s2.22 4.95 4.95 4.95c1.48 0 2.805-.655 3.713-1.686V11.38H5.446v1.858h1.856v.894c-.366.213-.784.344-1.238.344-1.365 0-2.475-1.11-2.475-2.475S4.7 9.53 6.06 9.53c.69 0 1.33.292 1.797.79l1.916-1.53v-.05c-.94-1.07-2.28-1.686-3.712-1.686l.005-.004z"/>
</svg>
