<svg xmlns="http://www.w3.org/2000/svg" width="20" height="20" viewBox="0 0 20 20">
    <path fill="#242326" d="M10 0C4.477 0 0 4.477 0 10s4.477 10 10 10 10-4.477 10-10S15.523 0 10 0z"/>
    <path fill="#0F9" d="M5.598 5.252H6.93v9.333H5.6z"/>
    <path fill="#93F" d="M13.598 14.586h1.333V7.92L13.6 9.255M13.598 7.92h1.333H13.6z"/>
    <path fill="#0CF" d="M6.93 14.586H5.6v1.334h9.333v-1.334H13.6"/>
    <path fill="#FFF35C" d="M9.598 5.252L10.93 3.92H5.6V5.25H6.93"/>
    <path fill="#F66" d="M13.598 5.252h-1.334V3.92H10.93V7.918h4.001V6.585H13.6"/>
    <path fill="#93F" d="M13.598 9.254L14.93 7.92H13.6"/>
    <path fill="#0F0F0F" opacity=".4" d="M13.598 9.254L14.93 7.92H13.6"/>
    <path fill="#FFF35C" d="M10.93 5.252V3.92L9.6 5.25"/>
    <path fill="#0F0F0F" opacity=".4" d="M10.93 5.252V3.92L9.6 5.25"/>
</svg>
