<?xml version="1.0" encoding="UTF-8"?>
<svg xmlns="http://www.w3.org/2000/svg" width="24" height="24" viewBox="0 0 24 24">
    <path d="M6 9c-1.66 0-3 1.34-3 3s1.34 3 3 3 3-1.34 3-3v-.09C8.95 10.3 7.63 9 6 9Zm-4.9 2C1.56 8.72 3.58 7 6 7c2.18 0 4.03 1.39 4.72 3.33.83-.28 1.73-.28 2.56 0C13.97 8.39 15.82 7 18 7c2.42 0 4.44 1.72 4.9 4H24v2h-1.1c-.46 2.28-2.48 4-4.9 4-2.63 0-4.78-2.03-4.98-4.6-.63-.37-1.41-.37-2.04 0C10.78 14.97 8.63 17 6 17c-2.42 0-4.44-1.72-4.9-4H0v-2h1.1ZM18 9c-1.63 0-2.95 1.3-3 2.91V12c0 1.66 1.34 3 3 3s3-1.34 3-3-1.34-3-3-3Z"/>
</svg>
