<?xml version="1.0" encoding="UTF-8"?>
<svg xmlns="http://www.w3.org/2000/svg" width="24" height="24" viewBox="0 0 24 24">
    <path d="M4.65 8.24c-.57 1.13-.9 2.41-.9 3.76 0 4.56 3.69 8.25 8.25 8.25 2.87 0 5.4-1.47 6.88-3.69l-2.99-1.5.56-3.32-3.01-4.21 4.16-1.59c-1.27-1.17-2.91-1.95-4.72-2.14l-.5 2.38-2.08 1.04-.53 1.41 4.82 1.93-2.16 2.87-1.23 5.54-3.7-1.85V13.1l-.53-2.68.26-.71-2.58-1.47Zm1.13-1.66 2.16 1.23.77-2.03 1.91-.96.21-.99c-2.01.29-3.78 1.3-5.05 2.75Zm3.26 4 .46 2.32v2.98l.3.15.77-3.46.85-1.13-2.35-.94-.03.08Zm9.92-3.02-2.39.91 1.99 2.79-.45 2.68 1.67.83c.3-.87.47-1.8.47-2.77 0-1.63-.47-3.16-1.29-4.44ZM1.75 12C1.75 6.34 6.34 1.75 12 1.75S22.25 6.34 22.25 12 17.66 22.25 12 22.25 1.75 17.66 1.75 12Z"/>
</svg>
