<svg xmlns="http://www.w3.org/2000/svg" width="74" height="24" viewBox="0 0 74 24">
    <path id="bounds" opacity="0" d="M0 0h74v24H0V0z"/>
    <path fill="#4285F4" d="M9.833 17.667C5.013 17.667.96 13.74.96 8.92S5.007.173 9.833.173c2.667 0 4.567 1.047 5.993 2.413L14.14 4.273c-1.027-.96-2.413-1.707-4.307-1.707-3.52 0-6.273 2.84-6.273 6.36s2.753 6.36 6.273 6.36c2.28 0 3.587-.92 4.413-1.747.68-.68 1.133-1.668 1.3-3.008H10v-2.4h7.873c.087.428.127.94.127 1.495 0 1.793-.493 4.013-2.067 5.587-1.54 1.6-3.5 2.453-6.1 2.453z"/>
    <path fill="#EA4335" d="M30.633 12.04c0 3.24-2.533 5.633-5.633 5.633-3.107 0-5.633-2.387-5.633-5.633 0-3.267 2.527-5.633 5.633-5.633 3.1.006 5.633 2.373 5.633 5.633zm-2.466 0c0-2.027-1.467-3.413-3.167-3.413s-3.167 1.387-3.167 3.413c0 2.007 1.467 3.413 3.167 3.413s3.167-1.406 3.167-3.413z"/>
    <path fill="#FBBC05" d="M43.3 12.033c0 3.24-2.527 5.633-5.633 5.633s-5.633-2.387-5.633-5.633c0-3.267 2.527-5.633 5.633-5.633S43.3 8.773 43.3 12.033zm-2.467 0c0-2.027-1.467-3.413-3.167-3.413S34.5 10.007 34.5 12.033c0 2.007 1.467 3.413 3.167 3.413s3.166-1.406 3.166-3.413z"/>
    <path fill="#4285F4" d="M55.333 6.747V16.86c0 4.16-2.453 5.867-5.353 5.867-2.733 0-4.373-1.833-4.993-3.327l2.153-.893c.387.92 1.32 2.007 2.84 2.007 1.853 0 3.007-1.153 3.007-3.307v-.813H52.9c-.553.68-1.62 1.28-2.967 1.28-2.813 0-5.267-2.453-5.267-5.613 0-3.18 2.453-5.652 5.267-5.652 1.347 0 2.413.6 2.967 1.26h.087v-.92h2.346zM53.16 12.06c0-1.987-1.32-3.433-3.007-3.433-1.707 0-3.007 1.453-3.007 3.433 0 1.96 1.3 3.393 3.007 3.393 1.68-.006 3.007-1.433 3.007-3.393z"/>
    <path fill="#34A853" d="M59.807.78v16.553h-2.473V.78h2.473z"/>
    <path fill="#EA4335" d="M69.693 13.893l1.92 1.28c-.62.92-2.113 2.493-4.693 2.493-3.2 0-5.587-2.473-5.587-5.633 0-3.347 2.413-5.633 5.313-5.633 2.92 0 4.353 2.327 4.82 3.587l.253.64-7.534 3.113c.573 1.133 1.473 1.707 2.733 1.707s2.133-.62 2.773-1.554zm-5.906-2.026l5.033-2.093c-.28-.707-1.107-1.193-2.093-1.193-1.254 0-3.007 1.107-2.94 3.287z"/>
</svg>
