<svg width="24" height="24" viewBox="0 0 24 24" fill="none" xmlns="http://www.w3.org/2000/svg">
<path fill-rule="evenodd" clip-rule="evenodd" d="M18 2H6C3.79086 2 2 3.79086 2 6V18C2 20.2091 3.79086 22 6 22H18C20.2091 22 22 20.2091 22 18V6C22 3.79086 20.2091 2 18 2ZM11.9305 10.2492L6.64339 17.8H9.15822L13.7237 11.2799V11.8123H14.3355V12.5939H14.9473V13.3754H18.6183V12.5939H19.2302V11.8123H19.842V11.0308H20.4539V10.2492H21.0657V9.46769H14.9926L17.2666 6.22H14.7518L12.4777 9.46769H2.93433V10.2492H3.54616V11.0308H4.158V11.8123H4.76982V12.5939H5.38167V13.3754H9.05266V12.5939H9.66451V11.8123H10.2763V11.0308H10.8882V10.2492H11.9305Z" />
<path d="M6.04744 10.2473H5.43433V11.0289H6.04744V10.2473Z" />
<path d="M6.65925 11.0259H6.04614V11.8074H6.65925V11.0259Z" />
<path d="M7.27132 10.2473H6.6582V11.0289H7.27132V10.2473Z" />
<path d="M7.88314 11.0259H7.27002V11.8074H7.88314V11.0259Z" />
<path d="M15.6131 10.2473H15V11.0289H15.6131V10.2473Z" />
<path d="M16.2246 11.0259H15.6116V11.8074H16.2246V11.0259Z" />
<path d="M16.8368 10.2473H16.2236V11.0289H16.8368V10.2473Z" />
<path d="M17.4486 11.0259H16.8354V11.8074H17.4486V11.0259Z" />
<path d="M16.8368 11.8145H16.2236V12.596H16.8368V11.8145Z" />
<path d="M7.27132 11.8145H6.6582V12.596H7.27132V11.8145Z" />
</svg>
