<svg width="69" height="23" xmlns="http://www.w3.org/2000/svg"><path fill-rule="evenodd" clip-rule="evenodd" d="M.001 0h23v23h-23V0zm5.445 18.17L14.77 4.854l2.808-.001L8.253 18.17H5.446z"/><path d="M39.103 17.873c-.851.265-1.64.399-2.364.399-1.365 0-2.567-.281-3.605-.843-1.039-.561-1.839-1.331-2.4-2.31-.562-.978-.843-2.077-.843-3.297 0-1.425.302-2.66.906-3.705.604-1.044 1.42-1.844 2.446-2.4 1.026-.555 2.15-.833 3.37-.833.736 0 1.43.088 2.082.262.653.176 1.238.408 1.758.698l-.58 1.612c-.387-.217-.873-.407-1.459-.57-.586-.164-1.114-.245-1.585-.245-1.014 0-1.911.206-2.69.616-.78.41-1.38.996-1.803 1.757-.423.761-.634 1.649-.634 2.663 0 .942.211 1.782.634 2.518.423.737 1.02 1.308 1.794 1.712.773.405 1.655.607 2.645.607.459 0 .906-.045 1.34-.136.435-.09.798-.22 1.088-.39v-2.59h-2.61v-1.685h4.385v5.29c-.399.315-1.023.604-1.875.87zm7.265-6.558c.356-.314.734-.556 1.132-.725.399-.169.749-.26 1.05-.272l-.072 1.685c-.543-.024-1.035.085-1.476.326-.44.242-.785.577-1.033 1.006-.247.429-.371.885-.371 1.368v3.424h-1.685v-7.5h1.504l.127 1.775c.193-.41.467-.773.824-1.087zm3.913.969c.356-.61.852-1.09 1.486-1.44.634-.35 1.35-.526 2.146-.526.798 0 1.507.176 2.13.526.621.35 1.104.827 1.448 1.431.344.604.517 1.28.517 2.029 0 .749-.172 1.428-.517 2.038-.344.61-.83 1.09-1.458 1.44-.628.35-1.347.526-2.156.526-.809 0-1.492-.166-2.12-.498-.628-.333-1.12-.8-1.476-1.404-.356-.604-.534-1.305-.534-2.102 0-.736.178-1.41.534-2.02zm1.486 3.342c.21.399.5.713.87.942.367.23.775.345 1.222.345.7 0 1.28-.248 1.74-.743.458-.495.688-1.111.688-1.848 0-.736-.23-1.355-.689-1.857-.459-.5-1.038-.752-1.739-.752-.459 0-.87.118-1.232.354-.362.235-.649.552-.86.95-.212.4-.317.834-.317 1.305s.105.906.317 1.304zm12.328-2.046l2.771-2.229-1.032-.906-3.877 3.117V4.883h-1.685v13.243h1.685v-2.808l.978-.798 2.319 3.606h1.975l-3.134-4.546z"/><path fill-rule="evenodd" clip-rule="evenodd" d="M.001 0h23v23h-23V0zm5.445 18.17L14.77 4.854l2.808-.001L8.253 18.17H5.446z"/></svg>