<?xml version="1.0" encoding="UTF-8"?>
<svg xmlns="http://www.w3.org/2000/svg" width="24" height="24" viewBox="0 0 24 24">
    <path d="M12 1.75C6.339 1.75 1.75 6.34 1.75 12S6.339 22.25 12 22.25 22.25 17.66 22.25 12 17.661 1.75 12 1.75Zm5.223 11.005c-1.152 2.112-3.386 3.661-5.221 4.777-1.838-1.117-4.072-2.665-5.224-4.777-1.233-2.265-.54-4.069.693-4.852.43-.273.959-.435 1.524-.435 1.29 0 2.242.758 3.007 1.797.762-1.039 1.713-1.797 3.004-1.797.566 0 1.094.162 1.524.435 1.233.783 1.926 2.587.693 4.852Z"/>
</svg>
