<?xml version="1.0" encoding="UTF-8"?>
<svg xmlns="http://www.w3.org/2000/svg" width="24" height="24" viewBox="0 0 24 24">
    <path d="M15.002 19v.097c-.766.537-1.585 1.072-2.497 1.603l-.503.3-.504-.3c-4.379-2.55-7.029-5.19-8.382-7.67-1.36-2.5-1.41-4.86-.514-6.67.887-1.79 2.647-2.91 4.601-3.01 1.651-.09 3.368.56 4.798 2.01 1.429-1.45 3.146-2.1 4.796-2.01 1.954.1 3.714 1.22 4.601 3.01.737 1.488.82 3.351.075 5.356-.139-.969-.964-1.716-1.971-1.716h-2.501c-1.104 0-2 .896-2 2v1h-.998c-1.104 0-2 .896-2 2v2c0 1.104.896 2 2 2h1ZM19 15v-3h-2v3h-3v2h3v3h2v-3h3v-2h-3Z"/>
</svg>
