<?xml version="1.0" encoding="UTF-8"?>
<svg xmlns="http://www.w3.org/2000/svg" width="24" height="24" viewBox="0 0 24 24">
    <path d="M18.037 13.084c-.918 1.685-2.719 3.479-5.694 5.212l-.342.204-.343-.204c-2.976-1.733-4.777-3.527-5.696-5.212-.924-1.699-.958-3.303-.349-4.533.603-1.216 1.799-1.978 3.127-2.046 1.122-.061 2.289.381 3.261 1.366.971-.985 2.138-1.427 3.259-1.366 1.328.068 2.524.829 3.127 2.046.609 1.23.575 2.834-.349 4.533ZM19.42 3.16l1.42 1.42-1.77 1.76-1.41-1.41 1.76-1.77ZM13 .5h-2V3h2V.5ZM.5 13H3v-2H.5v2Zm2.66 6.42 1.42 1.42 1.76-1.77-1.41-1.41-1.77 1.76ZM21 11v2h2.5v-2H21ZM11 23.5h2V21h-2v2.5Zm6.66-4.43 1.76 1.77 1.42-1.42-1.77-1.76-1.41 1.41ZM6.34 4.93 4.58 3.16 3.16 4.58l1.77 1.76 1.41-1.41Z"/>
</svg>
