<svg width="24" height="24" viewBox="0 0 24 24" xmlns="http://www.w3.org/2000/svg">
<path d="M21 2C2.99998 20 8.79004 14.21 3 20L4.42 21.42L22.42 3.42L21 2Z"/>
<path d="M14.4769 6.07907C15.1571 5.70136 15.9219 5.50212 16.7 5.49994C17.3099 5.53186 17.9003 5.72562 18.4105 6.0613C18.678 6.2373 18.9184 6.44898 19.1256 6.68945C19.5797 6.23527 20.0528 5.76225 20.5455 5.2695C20.2401 4.93484 19.8926 4.63834 19.5102 4.38807C18.7013 3.8588 17.7655 3.5556 16.8 3.50994C15.9025 3.48055 15.0092 3.64486 14.1809 3.99171C13.3526 4.33856 12.6087 4.8598 12 5.51994C11.3911 4.86001 10.6472 4.33891 9.81893 3.99208C8.99067 3.64525 8.09745 3.48081 7.19998 3.50994C6.23441 3.5556 5.29865 3.8588 4.48979 4.38807C3.68092 4.91735 3.02842 5.65343 2.59998 6.51994C2.13688 7.59028 1.94271 8.75767 2.03439 9.92029C2.12608 11.0829 2.50084 12.2054 3.12598 13.1899C4.01535 14.8201 5.46515 16.5195 7.59807 18.2169C7.9522 17.8628 8.376 17.439 9.01597 16.799C6.94471 15.1794 5.63086 13.6223 4.86898 12.2299C4.40136 11.5268 4.11319 10.7198 4.02969 9.87955C3.94618 9.03927 4.06989 8.19134 4.38998 7.40994C4.66142 6.86161 5.07416 6.39558 5.58566 6.05985C6.09716 5.72412 6.68892 5.53085 7.29998 5.49994C8.07966 5.5008 8.84639 5.6994 9.52845 6.07715C10.2105 6.45491 10.7856 6.99948 11.2 7.65994L12 8.74994L12.81 7.65994C13.2232 7.00066 13.7966 6.45678 14.4769 6.07907Z" />
<path d="M10.6646 17.9904L9.23199 19.423C9.93219 19.904 10.6899 20.3836 11.508 20.8599L12.008 21.1599L12.508 20.8599C16.887 18.3099 19.536 15.6699 20.887 13.1899H20.884C21.5075 12.2046 21.8805 11.0816 21.9705 9.91903C22.0457 8.9457 21.9207 7.96931 21.6054 7.04959L19.9468 8.70817C19.9969 9.0952 20.0031 9.48807 19.9644 9.87931C19.8812 10.7196 19.5933 11.5267 19.126 12.2299C18.052 14.1999 15.87 16.4999 12 18.8399C11.5304 18.556 11.0856 18.2726 10.6646 17.9904Z"/>
</svg>
