<?xml version="1.0" encoding="UTF-8"?>
<svg xmlns="http://www.w3.org/2000/svg" width="24" height="24" viewBox="0 0 24 24">
    <path d="M12 1.75C6.34 1.75 1.75 6.34 1.75 12S6.34 22.25 12 22.25 22.25 17.66 22.25 12 17.66 1.75 12 1.75ZM12 18c-.83 0-1.5-.67-1.5-1.5 0-.34.12-.66.31-.91.06-.13.14-.25.24-.35.24-.25.56-.37.93-.37.39 0 .7.12.94.37.08.08.15.17.21.27.23.26.37.61.37.99 0 .83-.67 1.5-1.5 1.5Zm2.3-6.08-.87.73c-.17.15-.29.28-.36.4-.06.11-.09.26-.09.45v.46h-2.1v-.67c0-.3.06-.55.17-.75.12-.2.29-.39.52-.58l.99-.79c.33-.26.56-.53.7-.8.15-.27.22-.57.22-.91 0-.41-.12-.74-.38-.97-.26-.23-.62-.35-1.09-.35s-.85.12-1.13.37c-.26.25-.4.59-.4 1.03 0 .2.03.42.08.65l-2.07-.15c-.06-.29-.09-.55-.09-.79 0-.84.33-1.51.98-2.01.67-.49 1.55-.74 2.66-.74 1.17 0 2.07.24 2.71.73.63.48.95 1.16.95 2.04 0 .98-.47 1.86-1.4 2.65Z"/>
</svg>
