<svg xmlns="http://www.w3.org/2000/svg" width="200" height="200" viewBox="0 0 200 200">
    <circle fill="#97E3FF" cx="100" cy="100" r="100"/>
    <path fill="#005FD1" d="M57.575 121.5h29.408l25.142 28.858h16.367s6.425-12.867 6.425-50.133H52.042c0 15.817 5.533 21.275 5.533 21.275z"/>
    <path fill="#1DA1F2" d="M112.125 50.092L86.983 78.95H57.575s-5.533 5.458-5.533 21.275h82.875c0-37.267-6.425-50.133-6.425-50.133h-16.367z"/>
    <ellipse fill="#97E3FF" cx="123.283" cy="100.225" rx="6.567" ry="45.075"/>
    <path fill="#71C9F8" d="M147.408 146.8L48.225 59.867c-2.425-2.125-2.667-5.817-.542-8.242 2.125-2.425 5.817-2.667 8.242-.542l99.183 86.925c2.425 2.125 2.667 5.817.542 8.242-2.125 2.425-5.817 2.675-8.242.55z"/>
    <path fill="#005FD1" d="M94.275 100.225h-7.058l30.808 27c-.233-2.108-.433-4.35-.608-6.717l-23.142-20.283zM128.217 129.975c-.25 1.983-.533 3.808-.833 5.458l4.325 3.792c.324-1.592.65-3.375.957-5.35l-4.45-3.9zM94.275 100.225L70 78.958h-7.058l24.275 21.267"/>
    <path fill="#1DA1F2" d="M118.025 127.225l9.358 8.208c.3-1.65.575-3.475.833-5.458l-10.8-9.467c.176 2.367.376 4.617.61 6.717z"/>
</svg>
