<svg xmlns="http://www.w3.org/2000/svg" width="228" height="200" viewBox="0 0 228 200">
    <circle fill="#97E3FF" cx="114" cy="100" r="100"/>
    <path fill="#1DA1F2" d="M65.624 130.653c-10.344 0-18.76 8.416-18.76 18.76 0 10.345 8.416 18.76 18.76 18.76 3.856 0 7.05-.945 10.18-3.09.928-.637 1.165-1.912.53-2.84-.382-.556-1.01-.887-1.687-.887-.412 0-.81.123-1.153.358-2.436 1.67-4.853 2.376-7.87 2.376-8.092 0-14.675-6.584-14.675-14.675 0-8.092 6.58-14.676 14.673-14.676 8.09 0 14.675 6.582 14.675 14.674 0 5.166-2.662 6.173-4.182 6.173-.698 0-3.122-.204-2.5-3.517l1.425-8.073c.314-2.312-1.297-3.23-2.115-3.248 0 0-1.72-.368-2.587 1.33-1.41-1.716-3.257-2.354-5.63-2.354-5.164 0-9.034 4.385-9.034 10.336 0 4.508 3.146 8.362 7.336 8.362 2.183 0 4.19-.763 5.972-2.268 1.225 1.808 3.832 2.633 6.744 2.633 2.184 0 8.656-1.198 8.656-9.377 0-10.345-8.442-18.76-18.76-18.76zm-1.16 23.225c-2.258 0-3.66-1.654-3.66-3.987 0-3.09 2.265-5.75 4.878-5.75 2.164 0 3.478 1.613 3.478 3.8 0 3.163-2.108 5.94-4.697 5.94zm81.863-128.743c1.306 0 2.364-1.06 2.364-2.364s-1.057-2.362-2.362-2.362h-4.59l.444-5.115c.114-1.3-.85-2.447-2.15-2.56-1.3-.11-2.446.85-2.56 2.15l-.48 5.524h-7.075l.445-5.115c.113-1.3-.85-2.446-2.15-2.56-1.306-.11-2.447.85-2.56 2.15l-.48 5.525h-4.85c-1.305 0-2.363 1.06-2.363 2.364s1.06 2.364 2.363 2.364h4.438l-.616 7.093h-5c-1.307 0-2.365 1.06-2.365 2.364s1.06 2.365 2.363 2.365h4.59l-.445 5.115c-.113 1.3.85 2.446 2.15 2.56.07.006.14.01.208.01 1.213 0 2.246-.93 2.353-2.16l.48-5.524h7.075l-.445 5.115c-.113 1.303.85 2.45 2.15 2.563.07.006.14.01.208.01 1.213 0 2.246-.93 2.353-2.16l.48-5.524h4.85c1.306 0 2.364-1.06 2.364-2.365s-1.058-2.364-2.363-2.364h-4.436l.617-7.092h5zm-10.365 7.092h-7.075l.617-7.093h7.075l-.62 7.093zM83.98 27.604h-4.583v-6.112c0-.58-.33-1.112-.85-1.37-.52-.257-1.142-.197-1.604.155l-10.696 8.15c-.38.288-.602.738-.602 1.215 0 .477.222.927.602 1.216l10.696 8.15c.27.205.598.31.926.31.23 0 .46-.05.676-.158.52-.258.85-.788.85-1.37v-6.11h4.584c2.81 0 5.094 2.284 5.094 5.092 0 1.125.912 2.037 2.037 2.037s2.04-.914 2.04-2.04c0-5.055-4.113-9.167-9.168-9.167z" opacity=".3"/>
    <path fill="#71C9F8" d="M167.127 35.26c0-.755-.685-1.35-1.468-1.2-.584.11-.985.654-.985 1.247v.024c0 9.596-7.777 17.373-17.37 17.373h-32.43v7.11h52.25v-24.55z"/>
    <path fill="#1DA1F2" d="M114.875 59.81v7.11h32.43c9.594 0 17.37 7.778 17.37 17.372 0 .664.498 1.258 1.16 1.293.708.037 1.293-.525 1.293-1.224V59.81h-52.253z"/>
    <path fill="#005FD1" d="M117.256 51.336H94.513v17.526h22.743c1.05-2.72 1.63-5.673 1.63-8.763s-.58-6.045-1.63-8.765z"/>
    <path fill="#1DA1F2" d="M86.66 71.786c6.455 6.455 16.92 6.455 23.374 0L86.66 48.412c-6.455 6.454-6.455 16.92 0 23.374z"/>
    <path fill="#005FD1" d="M86.66 48.412l23.374 23.374c6.455-6.455 6.455-16.92 0-23.374-6.455-6.455-16.92-6.455-23.374 0zM55.498 50.37c-12.823 0-23.218 15.963-23.218 35.655s10.395 35.655 23.218 35.655 23.218-15.963 23.218-35.655S68.32 50.37 55.498 50.37zm54.372 25.17s8.258.495 8.258 10.485-8.258 10.484-8.258 10.484l-.104.04c1.162.773 2.466 1.22 3.85 1.22 4.814 0 8.716-5.26 8.716-11.746 0-6.486-3.902-11.745-8.716-11.745-1.384 0-2.688.445-3.85 1.22l.104.04z"/>
    <path fill="#71C9F8" d="M118.13 86.025c0-9.99-8.26-10.484-8.26-10.484L71.66 60.434l-.002.004c4.35 6.48 7.058 15.547 7.058 25.59h39.413z"/>
    <path fill="#1DA1F2" d="M78.716 86.025c0 10.042-2.707 19.108-7.057 25.588v.005l38.21-15.11s8.26-.494 8.26-10.483H78.715zM66.943 64.05c-1.884-2.892-5.876-7.746-11.445-7.746s-9.56 4.854-11.445 7.747c-3.71 5.7-5.84 13.71-5.84 21.976 0 4.058.517 8.053 1.478 11.745 1 3.828 2.475 7.33 4.364 10.23 1.884 2.893 5.876 7.747 11.445 7.747s9.56-4.854 11.444-7.747c1.89-2.902 3.365-6.403 4.362-10.23.962-3.692 1.477-7.686 1.477-11.745 0-8.266-2.13-16.275-5.84-21.974z"/>
    <path fill="#71C9F8" d="M48.667 89.86H4.437c-2.117 0-3.834-1.72-3.834-3.836S2.32 82.19 4.437 82.19h44.23c2.117 0 3.834 1.718 3.834 3.835s-1.714 3.834-3.832 3.834zM11.79 117.78c-1.642 0-3.16-1.06-3.665-2.71-.62-2.025.517-4.17 2.542-4.79l36.877-11.304c2.027-.622 4.168.518 4.79 2.542.62 2.024-.518 4.168-2.543 4.79L12.916 117.61c-.374.116-.753.17-1.125.17zm36.878-44.536c-.372 0-.75-.055-1.125-.17L10.667 61.77c-2.024-.62-3.162-2.765-2.542-4.79.62-2.023 2.763-3.163 4.79-2.54L49.79 65.742c2.025.62 3.163 2.765 2.543 4.79-.506 1.65-2.024 2.71-3.665 2.71z"/>
    <path fill="#1DA1F2" d="M195.102 91.667l-19.888-15.164c-1.684-1.284-2.008-3.69-.724-5.373 1.283-1.684 3.688-2.01 5.373-.724l7.45 5.68-.098-12.44L207.18 78.73c1.69 1.277 2.025 3.68.75 5.37s-3.682 2.024-5.37.748l-7.556-5.708.098 12.525zm-7.795-35.647l.098-12.525-7.555 5.708c-1.69 1.277-4.094.942-5.37-.748-1.276-1.69-.942-4.093.748-5.37l19.966-15.087-.097 12.44 7.45-5.68c1.683-1.283 4.09-.958 5.372.725 1.282 1.684.96 4.09-.726 5.373L187.307 56.02zm-49.792 28.836v86.68c27.554 0 49.89-19.405 49.89-43.34s-22.337-43.34-49.89-43.34z"/>
    <path fill="#005FD1" d="M87.624 128.195c0 2.594.263 5.135.766 7.603.412 2.024.99 4 1.713 5.916 3.06 8.103 8.794 15.15 16.298 20.358-.475 5.433-3.29 10.207-7.45 13.354 2.195.663 4.52 1.024 6.928 1.024 6.53 0 12.446-2.622 16.774-6.872 4.696 1.27 9.688 1.956 14.865 1.956V84.856c-27.554 0-49.89 19.404-49.89 43.34z"/>
    <circle fill="#71C9F8" cx="114.937" cy="141.92" r="4.781"/>
    <path fill="#71C9F8" d="M114.937 110.842c-3.924 0-5.977 2.406-5.977 4.782 0 1.213 1.983 10.063 3.647 17.274.25 1.084 1.216 1.853 2.33 1.853s2.08-.766 2.33-1.85c1.664-7.21 3.647-16.06 3.647-17.275 0-2.376-2.054-4.782-5.977-4.782z"/>
    <circle fill="#97E3FF" cx="160.092" cy="141.92" r="4.781"/>
    <path fill="#97E3FF" d="M160.092 110.842c-3.924 0-5.977 2.406-5.977 4.782 0 1.213 1.983 10.063 3.647 17.274.25 1.084 1.216 1.853 2.33 1.853s2.08-.766 2.33-1.85c1.664-7.21 3.647-16.06 3.647-17.275 0-2.376-2.055-4.782-5.98-4.782zM137.515 137.14v9.562c2.643 0 4.782-2.142 4.782-4.782 0-2.643-2.14-4.78-4.782-4.78z"/>
    <path fill="#71C9F8" d="M132.733 141.92c0 2.64 2.14 4.782 4.782 4.782v-9.562c-2.643 0-4.782 2.137-4.782 4.78z"/>
    <path fill="#97E3FF" d="M139.845 132.897c1.664-7.21 3.647-16.06 3.647-17.274 0-2.376-2.053-4.782-5.977-4.782v23.91c1.113 0 2.08-.767 2.33-1.852z"/>
    <path fill="#71C9F8" d="M131.538 115.623c0 1.213 1.983 10.063 3.647 17.274.25 1.085 1.216 1.853 2.33 1.853v-23.908c-3.924 0-5.977 2.406-5.977 4.78z"/>
</svg>
