<svg xmlns="http://www.w3.org/2000/svg" width="200" height="200" viewBox="0 0 200 200">
    <circle fill="#97E3FF" cx="100" cy="100" r="100"/>
    <path fill="#1DA1F2" d="M126.38 46.205V105c-18.69 0-33.84-13.16-33.84-29.397s15.15-29.398 33.84-29.398z"/>
    <path fill="#005FD1" d="M160.222 75.603c0 1.76-.18 3.483-.52 5.158-.28 1.374-.67 2.714-1.162 4.014-2.076 5.496-5.965 10.277-11.055 13.81.324 3.684 2.232 6.923 5.054 9.057-1.49.45-3.066.696-4.7.696-4.43 0-8.442-1.78-11.378-4.66-3.185.86-6.57 1.326-10.082 1.326V46.205c18.69 0 33.842 13.162 33.842 29.398zM81.25 77.107v71.908c22.857 0 41.387-16.097 41.387-35.954s-18.53-35.953-41.388-35.953z"/>
    <path fill="#1DA1F2" d="M39.86 113.06c0 2.153.22 4.26.637 6.31.342 1.678.82 3.317 1.42 4.907 2.54 6.722 7.296 12.57 13.52 16.89-.395 4.506-2.73 8.467-6.18 11.077 1.82.55 3.748.85 5.747.85 5.416 0 10.325-2.176 13.915-5.7 3.894 1.054 8.035 1.622 12.33 1.622v-71.91c-22.86 0-41.39 16.098-41.39 35.955z"/>
    <path fill="#71C9F8" d="M114.43 151L36.645 82.825c-1.902-1.667-2.093-4.56-.426-6.464 1.667-1.9 4.56-2.092 6.464-.425l77.783 68.175c1.902 1.667 2.093 4.56.426 6.464-1.667 1.903-4.56 2.094-6.464.426z"/>
    <path fill="#005FD1" d="M81.25 121.92v5.154l19.955 17.49c1.255-.6 2.47-1.256 3.64-1.964L81.25 121.92zM81.25 121.92L47.454 92.3c-.825 1.01-1.59 2.062-2.292 3.146l36.086 31.628v-5.155z"/>
</svg>
