<?xml version="1.0" encoding="UTF-8"?>
<svg xmlns="http://www.w3.org/2000/svg" width="24" height="24" viewBox="0 0 24 24">
    <path d="M17.94 15.87c-1.76-.38-3.44-1.25-4.81-2.63-2.4-2.39-3.28-5.73-2.65-8.81.14-.7.36-1.39.66-2.05-.78.02-1.54.13-2.27.32-4.1 1.1-7.12 4.85-7.12 9.3 0 5.32 4.3 9.62 9.62 9.62 3.03 0 5.73-1.4 7.5-3.59.48-.59.89-1.24 1.22-1.94-.72.01-1.44-.07-2.15-.22Zm-6.57 3.75c-4.21 0-7.62-3.41-7.62-7.62 0-3.14 1.9-5.84 4.61-7.01-.4 3.44.71 7.03 3.35 9.67 1.41 1.4 3.08 2.38 4.86 2.92-1.36 1.27-3.19 2.04-5.2 2.04ZM15 8c1.66 0 3 1.34 3 3h1c0-1.66 1.34-3 3-3V7c-1.66 0-3-1.34-3-3h-1c0 1.66-1.34 3-3 3v1Z"/>
</svg>
