<?xml version="1.0" encoding="UTF-8"?>
<svg xmlns="http://www.w3.org/2000/svg" width="24" height="24" viewBox="0 0 24 24">
    <path d="M13 .5V3h-2V.5h2Zm7.84 4.08-1.77 1.76-1.41-1.41 1.76-1.77 1.42 1.42ZM4.93 6.34 3.16 4.58l1.42-1.42 1.76 1.77-1.41 1.41Zm7.07.91c-2.63 0-4.75 2.13-4.75 4.75s2.12 4.75 4.75 4.75 4.75-2.13 4.75-4.75S14.62 7.25 12 7.25ZM5.25 12c0-3.73 3.02-6.75 6.75-6.75s6.75 3.02 6.75 6.75-3.03 6.75-6.75 6.75S5.25 15.73 5.25 12ZM3 13H.5v-2H3v2Zm20.5 0H21v-2h2.5v2ZM6.34 19.07l-1.76 1.77-1.42-1.42 1.77-1.76 1.41 1.41Zm13.08 1.77-1.76-1.77 1.41-1.41 1.77 1.76-1.42 1.42ZM13 21v2.5h-2V21h2Z"/>
</svg>
