<svg xmlns="http://www.w3.org/2000/svg" width="24" height="24" viewBox="0 0 24 24">
    <path id="bounds" opacity="0" d="M0 0h24v24H0z"/>
    <path d="M12 1.25C6.072 1.25 1.25 6.072 1.25 12S6.072 22.75 12 22.75 22.75 17.928 22.75 12 17.928 1.25 12 1.25zm4.27 9.864l-5.71 7.025c-.053.062-.13.096-.207.096-.036 0-.072-.007-.107-.023-.11-.048-.173-.163-.155-.28l.728-5.047H8.882c-.078 0-.152-.034-.203-.094-.05-.06-.072-.14-.06-.215l.964-5.665c.022-.127.13-.22.26-.22h3.907c.082 0 .158.036.21.1.05.063.067.146.05.225l-.874 3.664h2.93c.102 0 .196.06.24.152.042.093.03.202-.035.282z"/>
</svg>
