<svg xmlns="http://www.w3.org/2000/svg" width="84" height="84" viewBox="0 0 84 84">
    <g fill="none" fill-rule="evenodd">
        <circle cx="42" cy="42" r="42" fill="#FFF" fill-opacity=".3"/>
        <circle cx="42" cy="42" r="34" fill="#FFF"/>
        <path fill="#F91880" d="M42.572 22c-1.837 0-3.595.247-5.275.672A7.847 7.847 0 0 1 42 29.857a7.86 7.86 0 0 1-7.858 7.861 7.861 7.861 0 0 1-7.857-7.861c0-.013.005-.02.005-.036C23.595 33.296 22 37.693 22 42.572 22 53.045 30.957 62 42.572 62 53.047 62 62 53.047 62 42.572 62 30.955 53.045 22 42.572 22"/>
    </g>
</svg>
