<?xml version="1.0" encoding="UTF-8"?>
<svg xmlns="http://www.w3.org/2000/svg" width="24" height="24" viewBox="0 0 24 24">
    <path d="M11 2c0-.55.45-1 1-1s1 .45 1 1-.45 1-1 1-1-.45-1-1ZM2 13c.55 0 1-.45 1-1s-.45-1-1-1-1 .45-1 1 .45 1 1 1Zm20 0c.55 0 1-.45 1-1s-.45-1-1-1-1 .45-1 1 .45 1 1 1ZM12 23c.55 0 1-.45 1-1s-.45-1-1-1-1 .45-1 1 .45 1 1 1ZM7.7 1.87c-.51.22-.74.81-.53 1.32.22.5.81.74 1.31.53.51-.22.75-.81.53-1.32-.21-.5-.8-.74-1.31-.53ZM3.19 16.83c.5-.22.74-.81.53-1.31-.22-.51-.81-.75-1.32-.53-.5.21-.74.8-.53 1.31.22.51.81.74 1.32.53ZM21.6 9.01c.5-.21.74-.8.53-1.31-.22-.51-.81-.74-1.32-.53-.5.22-.74.81-.53 1.31.22.51.81.75 1.32.53Zm-5.3 13.12c.51-.22.74-.81.53-1.32-.22-.5-.8-.74-1.31-.53-.51.22-.75.81-.53 1.32.21.5.8.74 1.31.53ZM3.72 8.48c.21-.5-.03-1.09-.53-1.31-.51-.21-1.1.02-1.32.53-.21.51.03 1.1.53 1.31.51.22 1.1-.02 1.32-.53Zm3.45 12.33c-.21.51.02 1.1.53 1.32.51.21 1.1-.03 1.31-.53.22-.51-.02-1.1-.53-1.32-.5-.21-1.09.03-1.31.53ZM14.99 2.4c-.22.51.02 1.1.53 1.32.51.21 1.09-.03 1.31-.53.21-.51-.02-1.1-.53-1.32-.51-.21-1.1.03-1.31.53Zm5.29 13.12c-.21.5.03 1.09.53 1.31.51.21 1.1-.02 1.32-.53.21-.51-.03-1.1-.53-1.31-.51-.22-1.1.02-1.32.53ZM4.22 4.22c-.39.39-.39 1.03 0 1.42s1.03.39 1.42 0 .39-1.03 0-1.42-1.03-.39-1.42 0Zm1.42 15.56c.39-.39.39-1.03 0-1.42s-1.03-.39-1.42 0-.39 1.03 0 1.42 1.03.39 1.42 0ZM19.78 5.64c.39-.39.39-1.03 0-1.42s-1.03-.39-1.42 0-.39 1.03 0 1.42 1.03.39 1.42 0Zm0 14.14c.39-.39.39-1.03 0-1.42s-1.03-.39-1.42 0-.39 1.03 0 1.42 1.03.39 1.42 0ZM12 9c-1.66 0-3 1.34-3 3s1.34 3 3 3 3-1.34 3-3-1.34-3-3-3Zm0 10c3.87 0 7-3.13 7-7s-3.13-7-7-7-7 3.13-7 7 3.13 7 7 7Zm5-7c0 2.76-2.24 5-5 5s-5-2.24-5-5 2.24-5 5-5 5 2.24 5 5Z"/>
</svg>
