<?xml version="1.0" encoding="UTF-8"?>
<svg xmlns="http://www.w3.org/2000/svg" width="24" height="24" viewBox="0 0 24 24">
    <path d="M14 13c0 .74-.4 1.39-1 1.73V17h-2v-2.27c-.59-.34-1-.99-1-1.73 0-1.1.9-2 2-2 1.11 0 2 .9 2 2Zm3.5-6H17v-.25c0-2.76-2.24-5-5-5s-5 2.24-5 5V7h-.5C5.12 7 4 8.12 4 9.5v9C4 19.88 5.12 21 6.5 21h11c1.38 0 2.5-1.12 2.5-2.5v-9C20 8.12 18.88 7 17.5 7ZM9 6.75c0-1.66 1.34-3 3-3s3 1.34 3 3V7H9v-.25Zm9 11.75c0 .28-.22.5-.5.5h-11c-.28 0-.5-.22-.5-.5v-9c0-.28.22-.5.5-.5h11c.28 0 .5.22.5.5v9Z"/>
</svg>
