<svg width="24" height="24" viewBox="0 0 24 24" fill="none" xmlns="http://www.w3.org/2000/svg">
<path fill-rule="evenodd" clip-rule="evenodd" d="M19.5948 7.66364C19.8001 7.80201 19.991 7.95237 20.1476 8.13072C20.813 8.88882 21.0124 9.92574 20.8642 11.1596C20.8472 11.2703 20.8286 11.3805 20.8072 11.4898C20.0903 15.1714 17.6366 16.4447 14.503 16.4447H14.0193C13.6363 16.4447 13.3104 16.7233 13.2507 17.1014L12.5704 21.3432C12.5107 21.7215 12.1847 22 11.8018 22H8.99563C8.7372 22 8.49063 21.7688 8.53313 21.4843C8.5588 21.3119 8.82238 19.646 9.08956 17.96L9.12296 17.7492C9.40116 15.9939 9.67267 14.2835 9.67267 14.2835C9.74088 13.8511 10.1103 13.5328 10.548 13.5328L10.5792 13.5329C10.6638 13.5332 10.9086 13.534 11.1682 13.5349L11.2799 13.5352C11.5531 13.5362 11.8196 13.537 11.912 13.5373L11.9461 13.5374C17.5857 13.5374 19.0903 10.1035 19.5948 7.66364ZM13.2613 2C15.4027 2 17.0609 2.4661 18.0028 3.50803C18.6454 4.21884 19.0175 5.14757 18.9187 6.4792C18.8557 6.45545 18.7949 6.42974 18.7298 6.40816C18.6646 6.38659 18.5985 6.366 18.5319 6.3466C18.3986 6.30738 18.2603 6.27208 18.1189 6.24081C17.9781 6.20943 17.8333 6.18208 17.6847 6.158C17.1811 6.07694 16.6184 6.03565 16.0119 6.03565H11.1394C10.9603 6.03565 10.7875 6.07487 10.6263 6.15212C10.2739 6.32122 10.0272 6.65244 9.96641 7.03835L7.94292 19.7808H4.53376C4.20581 19.7808 3.95554 19.4881 4.00664 19.1643L6.59495 2.7508C6.66315 2.31847 7.03577 2 7.47344 2H13.2613ZM16.0119 6.85455C16.5748 6.85455 17.0937 6.89224 17.5546 6.96655C17.687 6.9878 17.8157 7.01242 17.9415 7.04031C18.0652 7.06777 18.1854 7.09839 18.3024 7.13271C18.3601 7.14938 18.4168 7.16714 18.4721 7.18544C18.5869 7.22368 18.6973 7.26585 18.8034 7.31117C18.729 7.69316 18.6234 8.10207 18.4793 8.54442C17.8286 10.5417 16.5303 11.7991 14.5991 12.3531C13.836 12.5721 12.9717 12.6809 12.0043 12.6809H10.1805C10.0803 12.6809 9.98831 12.6909 9.90148 12.7066L10.7185 7.51143C10.7595 7.25147 10.9264 7.03846 11.1511 6.93081C11.2533 6.88179 11.3673 6.85455 11.487 6.85455H16.0119Z"/>
</svg>
