<svg width="22" height="23" viewBox="0 0 22 23" fill="none" xmlns="http://www.w3.org/2000/svg">
<path d="M16.4094 9.49217C19.4776 7.12043 25.8211 -1.31243 15.92 0.174611C11.5906 0.795782 5.26597 4.67339 3.96715 9.11571C3.30834 7.92984 2.57422 6.78161 1.76482 5.67103C0.57895 4.14634 -0.776331 5.31339 0.541304 6.89455C4.28715 11.4122 6.88477 16.8333 6.88477 22.2921C7.20477 19.5815 6.71536 16.2686 5.56714 13.031C6.15066 13.2004 6.77184 13.2945 7.33654 13.2945C9.36946 16.3627 12.4377 18.9791 15.92 20.2027C19.1011 21.3885 23.3176 20.6921 21.6046 15.9674C20.6823 13.3886 18.5176 11.111 16.4094 9.49217ZM16.8423 1.26637C22.3387 0.701665 16.447 7.02631 14.5082 8.21218C12.7012 7.12043 10.4612 6.16044 8.25888 6.42396C9.84004 4.54163 13.68 1.62401 16.8423 1.26637ZM15.8259 17.718C13.2282 17.0215 10.8189 15.1015 9.04946 13.1251C10.4989 12.8616 11.9106 12.3345 13.2282 11.6004C13.7177 11.3933 14.2071 11.0733 14.64 10.7722C16.1835 12.0898 17.7647 13.8215 18.3858 15.798C18.9882 17.9439 17.3317 18.1133 15.8259 17.718ZM12.5694 9.26629C11.3271 8.47571 9.70827 7.68513 8.20241 7.81689C6.2636 8.00513 6.67771 10.2828 8.69181 10.2639C10.0659 10.1886 11.3836 9.83099 12.5694 9.26629Z"/>
</svg>
