<svg width="24" height="24" viewBox="0 0 24 24" fill="none" xmlns="http://www.w3.org/2000/svg">
<path d="M12 1C5.9249 1 1 5.9249 1 12C1 18.0751 5.9249 23 12 23C18.0751 23 23 18.0751 23 12C23 5.9249 18.0751 1 12 1ZM12.9868 19.2366C12.9836 19.2372 12.9803 19.2372 12.9771 19.2372C12.9582 19.2372 12.9404 19.2307 12.9259 19.2183C12.9092 19.2037 12.8995 19.1822 12.8995 19.1606V16.1052C12.8995 16.0697 12.9243 16.0384 12.9588 16.0303C14.4589 15.6771 15.6566 14.4789 16.0103 12.9776C16.0184 12.9431 16.0497 12.9183 16.0853 12.9183H19.1401C19.1622 12.9183 19.1832 12.928 19.1983 12.9448C19.2129 12.9615 19.2199 12.9841 19.2167 13.0062C18.7842 16.2422 16.2223 18.8047 12.9868 19.2366ZM19.1439 11.1534C19.1428 11.1534 19.1417 11.1539 19.1401 11.1534H16.0848C16.0492 11.1534 16.0179 11.1291 16.0098 11.0946C15.5709 9.22722 13.9289 7.92333 12.0156 7.92333C9.74759 7.92333 7.9023 9.76862 7.9023 12.0361C7.9023 13.9483 9.20673 15.5908 11.0736 16.0303C11.1081 16.0384 11.1329 16.0697 11.1329 16.1052V19.1606C11.1329 19.1827 11.1237 19.2037 11.107 19.2183C11.093 19.2307 11.0747 19.2372 11.0563 19.2372C11.0531 19.2372 11.0499 19.2366 11.0461 19.2366C7.45311 18.7556 4.74396 15.6609 4.74396 12.0361C4.74396 8.02525 8.00637 4.76283 12.0167 4.76283C15.6334 4.76283 18.7233 7.4612 19.214 11.0434C19.2188 11.0536 19.2215 11.065 19.2215 11.0768C19.2205 11.1194 19.1859 11.1534 19.1439 11.1534Z"/>
</svg>
