<svg width="24" height="24" viewBox="0 0 24 24" fill="none" xmlns="http://www.w3.org/2000/svg">
<path fill-rule="evenodd" clip-rule="evenodd" d="M12.0256 9.01666C12.7979 9.01666 13.4451 8.66515 13.629 8.01249C13.653 7.92229 13.6649 7.83059 13.6647 7.73736L13.6821 5.38438C13.6821 5.3743 13.6825 5.36434 13.6828 5.35442C13.6832 5.34456 13.6836 5.33474 13.6836 5.32484C13.6836 4.42032 12.9545 4 12.039 4C11.1289 4 10.3893 4.48824 10.3819 5.3843L10.3802 7.75629C10.3787 7.849 10.3878 7.9407 10.4075 8.03142C10.5647 8.71014 11.229 9.01658 12.0256 9.01658L12.0256 9.01666ZM7.77831 8.87933C7.81175 9.18196 7.77874 9.43236 7.51356 9.70261L7.51356 9.70253C6.91464 10.3125 5.85731 10.3157 5.35362 10.009C4.89015 9.72773 1.83118 7.46704 1.33426 7.09796L1.20474 6.96831C1.05575 6.76494 0.799459 6.15589 1.27077 5.58892C1.68303 5.09184 2.65719 4.96925 3.26014 5.25261C3.29088 5.267 3.32193 5.28074 3.35294 5.29446L3.35295 5.29446L3.35295 5.29446C3.45023 5.33749 3.54718 5.38038 3.63367 5.44306L7.25092 8.06733C7.50848 8.29208 7.7417 8.54751 7.77831 8.87933ZM22.7289 5.68158C22.3156 5.18445 21.3415 5.06191 20.7385 5.34528C20.707 5.36013 20.6751 5.37427 20.6433 5.38839L20.6432 5.3884C20.5469 5.43115 20.4507 5.47379 20.365 5.53572L16.7477 8.16C16.4902 8.38485 16.257 8.64017 16.2203 8.972C16.1869 9.27466 16.2203 9.52503 16.4851 9.79527C17.084 10.4052 18.1413 10.409 18.6455 10.1017C19.095 9.82868 21.9911 7.69005 22.6164 7.22832L22.6665 7.19132L22.7961 7.06167C22.944 6.85792 23.2003 6.2486 22.729 5.68162L22.7289 5.68158ZM17.1851 17.9958H19.3116L19.3116 17.9949L21.4491 17.9947L21.4627 17.9948C21.5112 17.9955 21.553 17.996 21.553 17.9185C21.5581 17.5334 21.5435 17.1503 21.4402 16.7768C21.1498 15.7247 20.5172 14.9863 19.4489 14.6837C18.5857 14.4382 17.7146 14.4593 16.8591 14.7345C16.227 14.9376 15.7256 15.3275 15.3692 15.89C14.9034 16.6248 14.7936 17.434 14.9445 18.2755C15.1424 19.3792 15.8005 20.1121 16.8397 20.5066C17.3694 20.7076 17.9247 20.7578 18.4885 20.7478C18.814 20.7422 19.1353 20.7136 19.4508 20.6352C20.4216 20.3922 21.1143 19.8369 21.4417 18.8685C21.4705 18.7831 21.465 18.7527 21.3627 18.7527C20.7419 18.7552 20.1211 18.7552 19.5003 18.7527C19.4275 18.7524 19.3863 18.7795 19.344 18.8353C19.1992 19.0291 19.014 19.1707 18.7787 19.2406C18.4538 19.3388 18.1313 19.3192 17.8117 19.2205C17.4431 19.1069 17.2225 18.8523 17.1233 18.4844C17.1001 18.3978 17.0898 18.3096 17.0795 18.2213L17.0795 18.2213C17.076 18.1909 17.0725 18.1606 17.0685 18.1304C17.0524 18.0083 17.0625 17.9958 17.1851 17.9958ZM19.4525 16.8271H18.3309L18.3309 16.8271L18.0352 16.827H18.0352H18.0351H18.0351H18.0351C17.7601 16.8268 17.4853 16.8266 17.2111 16.828C17.1425 16.8282 17.1219 16.8179 17.1387 16.7403C17.2564 16.2023 17.6718 15.8504 18.2221 15.8303C18.523 15.8185 18.8128 15.8466 19.0686 16.0275C19.3245 16.2084 19.4544 16.4685 19.5329 16.761C19.5516 16.8302 19.5093 16.8288 19.4689 16.8274L19.4597 16.8272L19.4525 16.8271ZM5.47942 15.4103L5.47893 15.4106C5.47893 15.3514 5.47866 15.294 5.47841 15.2379V15.2379V15.2378V15.2378L5.4784 15.2375V15.2374C5.47771 15.0866 5.47706 14.9454 5.48169 14.8049C5.48423 14.7197 5.46349 14.6911 5.37228 14.6911C4.72693 14.6936 4.08152 14.6936 3.43603 14.6911C3.35159 14.6906 3.32218 14.7079 3.32218 14.7999C3.32443 16.6726 3.32443 18.5453 3.32218 20.4181C3.32197 20.5051 3.34334 20.5302 3.43265 20.5302C4.07108 20.5252 4.70944 20.5252 5.34773 20.5302C5.4527 20.5312 5.48233 20.5076 5.48233 20.398C5.47781 19.3751 5.47929 18.3523 5.48678 17.3294C5.48847 17.094 5.51704 16.8563 5.64931 16.6496C5.86941 16.305 6.28358 16.1472 6.70283 16.2515C7.05838 16.3406 7.27488 16.5666 7.34556 16.9287C7.38365 17.1232 7.39043 17.32 7.39043 17.5175L7.39047 18.2695V18.27V18.27V18.27V18.2701C7.3906 18.9858 7.39072 19.7013 7.38853 20.4169C7.38832 20.5023 7.40736 20.5304 7.49815 20.5304C8.14717 20.5279 8.79618 20.5279 9.44519 20.5304C9.53174 20.5312 9.54952 20.503 9.54952 20.4224C9.54753 19.6431 9.5472 18.8638 9.54847 18.0842C9.54856 18.024 9.54804 17.9638 9.54751 17.9036C9.5457 17.696 9.54389 17.4885 9.56751 17.2815C9.60285 16.9674 9.6837 16.6766 9.92729 16.4488C10.3235 16.0782 11.2121 16.083 11.3967 16.8661C11.4469 17.0902 11.4709 17.3173 11.4686 17.5469C11.4714 18.5027 11.471 19.4584 11.4673 20.4141C11.4669 20.5081 11.4923 20.5307 11.585 20.5307C12.2234 20.5257 12.8618 20.5257 13.5001 20.5307C13.6006 20.5307 13.6294 20.5073 13.6294 20.4038C13.6273 19.7425 13.6272 19.0812 13.6271 18.4201C13.6269 17.8679 13.6268 17.3158 13.6256 16.7637C13.6269 16.5239 13.6074 16.2858 13.567 16.0494C13.5037 15.6951 13.3541 15.3837 13.0866 15.1417C12.556 14.6629 11.916 14.528 11.2282 14.6127C10.5338 14.6977 9.96854 15.0213 9.57342 15.612C9.53025 15.6766 9.51057 15.6655 9.47205 15.6095C9.24073 15.2709 8.95756 14.9958 8.57663 14.8264C8.30988 14.7101 8.03144 14.6405 7.7413 14.6179C7.12396 14.5644 6.54218 14.666 6.00928 14.9955C5.82385 15.1101 5.65996 15.2529 5.47942 15.4103ZM11.8309 9.79134C13.9494 9.79134 15.5718 10.1753 16.7992 10.786L16.7993 10.787C17.7537 11.2608 18.4695 11.8712 18.9903 12.5459L4.70499 12.5472L4.71006 12.5397H4.69185C5.90113 10.9115 8.28138 9.79134 11.8309 9.79134Z"/>
</svg>
