<svg width="24" height="24" viewBox="0 -8 24 24" fill="none" xmlns="http://www.w3.org/2000/svg">
<path fill-rule="evenodd" clip-rule="evenodd" d="M3.99578 0.689651C2.13175 0.689651 0.620697 1.88634 0.620697 3.36213C0.620697 4.24765 1.16608 5.03179 2.00438 5.518L1.60701 7.00538C1.56903 7.14813 1.72797 7.26151 1.84997 7.17917L3.57365 6.01269C3.71215 6.02655 3.85273 6.03441 3.99578 6.03441C5.85981 6.03441 7.37088 4.83793 7.37088 3.36213C7.37088 1.88634 5.85981 0.689651 3.99578 0.689651ZM10.3604 1.96827V4.89151C10.432 4.90062 10.6101 4.91841 10.7796 4.91841C11.7071 4.91841 12.0642 4.26586 12.0642 3.23779C12.0642 2.33489 11.8231 1.78951 11.0829 1.78951C10.8419 1.78951 10.5744 1.86069 10.3604 1.96827ZM10.3604 5.80331V7.62193H9.05841V0.877514H9.97701L10.1374 1.30662C10.414 1.02938 10.8331 0.734548 11.5112 0.734548C12.7869 0.734548 13.393 1.69103 13.3843 3.23779C13.3843 4.85572 12.4478 5.89289 11.1095 5.89289C10.851 5.89289 10.6551 5.87469 10.3604 5.80331ZM16.7557 4.504V3.6102H16.1581C15.489 3.6102 15.1499 3.85165 15.1499 4.33434C15.1499 4.70055 15.3373 4.87972 15.7209 4.87972C16.0776 4.87972 16.5325 4.70055 16.7557 4.504ZM16.015 2.77848H16.7557V2.61793C16.7557 2.08124 16.4522 1.83089 15.9258 1.83089C15.5248 1.83089 15.0072 1.94738 14.5882 2.15303L14.2313 1.27682C14.6953 0.9551 15.4087 0.731445 16.0416 0.731445C17.2908 0.731445 17.9688 1.39289 17.9688 2.65351V5.75593H17.0498L16.9159 5.34441C16.3899 5.72882 15.9083 5.88979 15.4709 5.88979C14.5168 5.88979 13.9815 5.31772 13.9815 4.35213C13.9815 3.32386 14.6953 2.77869 16.015 2.77869V2.77848ZM21.8539 5.33862C21.3989 6.55455 20.8548 7.43924 20.0607 7.93103L19.2586 7.18889C19.722 6.78669 20.0522 6.39337 20.3373 5.866L18.607 1.13675L19.9006 0.788135L21.0064 4.62338L22.1036 0.770134L23.3793 1.12807L21.8539 5.33841V5.33862Z"/>
</svg>
