<svg width="24" height="24" viewBox="0 0 24 24" fill="none" xmlns="http://www.w3.org/2000/svg">
<path d="M11.7486 1.07227C11.8215 1.02645 11.9059 1.00144 11.9925 1.00004C12.0809 0.998851 12.1679 1.02235 12.2433 1.06782C12.3186 1.11328 12.3793 1.17883 12.4181 1.25682L18.9119 11.2748L18.9264 11.2963L18.9283 11.2999L18.931 11.3043C18.9389 11.3165 18.9462 11.3291 18.9529 11.3419L18.9538 11.3446L18.9547 11.3455C18.9593 11.3555 18.9636 11.3656 18.9674 11.3759L18.972 11.3867L18.9756 11.3965C18.9794 11.4077 18.9828 11.419 18.9857 11.4305V11.4323C18.989 11.445 18.9917 11.4578 18.9939 11.4708L18.9948 11.4761C18.996 11.4856 18.9969 11.4952 18.9975 11.5048C18.9984 11.5137 18.999 11.5226 18.9993 11.5316C18.9997 11.5456 18.9994 11.5596 18.9984 11.5736V11.5772C18.9974 11.5889 18.9959 11.6005 18.9939 11.6121C18.9918 11.6263 18.9891 11.6403 18.9857 11.6542L18.9848 11.6569L18.9839 11.6586C18.9812 11.6692 18.9782 11.6796 18.9747 11.69L18.9711 11.7007L18.9674 11.7105C18.963 11.7215 18.9581 11.7331 18.9529 11.7436C18.9462 11.7562 18.9389 11.7684 18.931 11.7803L18.9301 11.783L18.9292 11.7839C18.9213 11.7965 18.9128 11.8088 18.9036 11.8206C18.8942 11.8327 18.8842 11.8443 18.8736 11.8555C18.8646 11.8651 18.8551 11.8744 18.8453 11.8832L18.8399 11.8877L18.838 11.8895C18.8289 11.8967 18.8195 11.9035 18.8098 11.9101L18.8034 11.9154L18.7943 11.9217C18.7845 11.9283 18.7745 11.9346 18.7642 11.9405L18.7542 11.9458L12.286 15.5748C12.2036 15.6378 12.1021 15.6718 11.9977 15.6715C11.8932 15.6712 11.7919 15.6365 11.71 15.573L5.23628 11.9414L5.23537 11.9405L5.22808 11.9369L5.22717 11.936C5.20082 11.9205 5.1761 11.9025 5.15335 11.8823L5.15244 11.8814C5.14127 11.8712 5.13063 11.8605 5.12054 11.8492C5.11488 11.8428 5.10941 11.8362 5.10413 11.8295C5.09945 11.8243 5.09489 11.8189 5.09046 11.8134C5.08133 11.8013 5.07281 11.7879 5.06494 11.775C5.057 11.7622 5.0497 11.7482 5.04307 11.7347C5.03659 11.721 5.03081 11.706 5.02575 11.6917L5.0221 11.6792C5.01493 11.6573 5.00944 11.6349 5.0057 11.6121L5.00388 11.6032C5.00192 11.5883 5.0007 11.5725 5.00023 11.5575C4.99925 11.527 5.00139 11.4964 5.00661 11.4663C5.01177 11.436 5.02002 11.4063 5.03122 11.3777C5.03661 11.3637 5.04269 11.35 5.04945 11.3365L5.05036 11.3357C5.05907 11.319 5.06881 11.3028 5.07952 11.2873L11.5796 1.25951C11.6172 1.18292 11.6757 1.11809 11.7486 1.07227Z"/>
<path d="M18.3012 13.4346C18.3727 13.3943 18.4539 13.3733 18.5364 13.3738C18.6225 13.3743 18.7069 13.3983 18.7801 13.443C18.8532 13.4878 18.9123 13.5515 18.9508 13.6272C18.9893 13.7029 19.0057 13.7876 18.9982 13.8719C18.9907 13.9562 18.9595 14.0368 18.9082 14.1048L12.4054 22.7682C12.3646 22.8386 12.3055 22.8972 12.2341 22.938C12.1627 22.9787 12.0816 23.0001 11.9991 23C11.9165 22.9999 11.8355 22.9783 11.7642 22.9374C11.6929 22.8966 11.6339 22.8378 11.5933 22.7673L5.09137 14.1048C5.03963 14.0359 5.00855 13.9543 5.00166 13.869C4.99476 13.7837 5.01232 13.6983 5.05235 13.6223C5.09237 13.5463 5.15327 13.4828 5.22814 13.4391C5.30301 13.3953 5.38886 13.373 5.47598 13.3747C5.55405 13.3761 5.63051 13.3967 5.69836 13.4346L11.9998 16.9696L18.3012 13.4346Z"/>
</svg>
