<svg width="24" height="24" viewBox="0 0 24 24" fill="none" xmlns="http://www.w3.org/2000/svg">
<path fill-rule="evenodd" clip-rule="evenodd" d="M9.33802 22.6707C3.4462 21.2015 -0.140525 15.2327 1.32951 9.34018C2.79816 3.44665 8.76733 -0.140002 14.6598 1.32917C20.5537 2.79834 24.1401 8.76785 22.6707 14.661C21.2014 20.5539 15.2322 24.1402 9.33802 22.6707ZM14.297 2.78463C19.387 4.05341 22.4842 9.20872 21.2153 14.2982C19.9464 19.387 14.7915 22.4844 9.70088 21.2152C4.61285 19.9464 1.51545 14.7918 2.7849 9.70327L2.78499 9.70289C4.05331 4.61329 9.20831 1.51587 14.297 2.78461L14.297 2.78463ZM14.4295 7.65758C15.9534 8.18248 17.0678 8.96932 16.8488 10.433C16.6904 11.5044 16.0964 12.0232 15.3078 12.205C16.3906 12.7687 16.9417 13.6333 16.4168 15.132C15.7653 16.9934 14.2178 17.1505 12.1598 16.761L11.6603 18.7627L10.4534 18.4619L10.9463 16.4871C10.6335 16.4094 10.3138 16.3269 9.9845 16.2375L9.48985 18.2216L8.28432 17.9208L8.78378 15.9154C8.67111 15.8865 8.55773 15.857 8.44354 15.8272C8.27206 15.7825 8.09877 15.7373 7.92338 15.6933L6.35278 15.3018L6.95194 13.9203C6.95194 13.9203 7.84123 14.1568 7.82919 14.1393C8.17088 14.2238 8.32247 14.0011 8.38228 13.8526L9.17154 10.6884C9.20113 10.6955 9.2301 10.7028 9.25806 10.7098C9.272 10.7133 9.28569 10.7167 9.29907 10.72C9.25095 10.7008 9.20728 10.6884 9.17359 10.6798L9.73666 8.42103C9.75144 8.1646 9.6631 7.84113 9.17429 7.7191C9.19319 7.70638 8.29773 7.50117 8.29773 7.50117L8.61879 6.21212L10.2832 6.62771L10.2818 6.6339C10.5321 6.69612 10.7899 6.75524 11.0525 6.81505L11.5472 4.83301L12.7534 5.13379L12.2687 7.07699C12.5925 7.1509 12.9184 7.22548 13.2357 7.30455L13.7169 5.37407L14.9238 5.67484L14.4295 7.65758ZM10.612 14.8462C11.5968 15.1063 13.7491 15.6748 14.0913 14.2998C14.4419 12.8939 12.3545 12.4255 11.336 12.1969C11.2222 12.1714 11.1217 12.1489 11.0395 12.1283L10.3767 14.7852C10.4443 14.8019 10.5234 14.8228 10.612 14.8462ZM11.5406 10.964C12.3617 11.1831 14.1526 11.6611 14.4646 10.4113C14.7832 9.13304 13.0425 8.74771 12.1924 8.55952C12.0968 8.53835 12.0124 8.51968 11.9435 8.50251L11.3427 10.9122C11.3994 10.9263 11.466 10.9441 11.5406 10.964Z"/>
</svg>
