<svg width="24" height="24" viewBox="0 0 24 24" fill="none" xmlns="http://www.w3.org/2000/svg">
<path d="M15.9847 8.26391C16.2001 8.49103 16.5575 8.49103 16.7599 8.26391L17.8366 7.0829C18.0648 6.85578 18.0519 6.44697 17.8107 6.20168C16.9647 5.42443 15.9811 4.8316 14.9167 4.45741L15.2569 2.73132C15.3301 2.3543 15.0631 2 14.7057 2H12.6213C12.491 2.00147 12.3651 2.05011 12.2648 2.13776C12.1644 2.22541 12.0957 2.34676 12.07 2.48149L11.7686 4.01681C8.99511 4.1667 6.64369 5.65205 6.64369 8.69543C6.64369 11.33 8.58598 12.461 10.6402 13.2378C12.5825 14.0191 13.6118 14.3098 13.6118 15.409C13.6118 16.5401 12.5868 17.2033 11.0709 17.2033C9.69278 17.2033 8.24575 16.7172 7.12603 15.5317C7.07403 15.4767 7.01228 15.4332 6.94429 15.4034C6.8763 15.3737 6.80343 15.3584 6.72983 15.3584C6.65623 15.3584 6.58335 15.3737 6.51536 15.4034C6.44738 15.4332 6.38562 15.4767 6.33362 15.5317L5.17083 16.7581C5.06143 16.8739 5 17.0307 5 17.1942C5 17.3576 5.06143 17.5145 5.17083 17.6302C6.07522 18.5705 7.22078 19.2519 8.52655 19.6289L8.20786 21.2505C8.13464 21.6275 8.39735 21.9773 8.7548 21.9818L10.8435 22C10.9753 22.0006 11.1031 21.9529 11.2053 21.8651C11.3074 21.7773 11.3774 21.6548 11.4034 21.5185L11.7048 19.9786C15.0416 19.7424 17.0743 17.8029 17.0743 14.973C17.0743 12.3657 15.0502 11.2664 12.5954 10.3716C11.1915 9.82194 9.97701 9.44492 9.97701 8.31387C9.97701 7.21462 11.1097 6.77856 12.2466 6.77856C13.6936 6.77856 15.0847 7.40995 15.9934 8.27299L15.9847 8.26391Z"/>
</svg>
