<svg width="24" height="24" viewBox="0 0 24 24" fill="none" xmlns="http://www.w3.org/2000/svg">
<path fill-rule="evenodd" clip-rule="evenodd" d="M8.0389 4.93178C9.69605 4.93178 11.2187 5.59738 12.325 6.67885C13.4345 7.7635 14.1277 9.2594 14.1277 10.9212C14.1277 12.5829 13.4345 14.0788 12.325 15.1634C11.2187 16.2449 9.69605 16.9106 8.0389 16.9106H4.55102V21.25H1V8.24602H4.54469V4.93178H8.0389ZM8.0389 8.24602H4.55102V13.5963H8.0389C8.80896 13.5963 9.51262 13.2907 10.0205 12.7942C10.5085 12.3172 10.8134 11.6568 10.8134 10.9212C10.8134 10.1854 10.5085 9.5251 10.0205 9.04803C9.51262 8.5516 8.80896 8.24602 8.0389 8.24602ZM23 2V8.82979H16.1702V2H23ZM21.8755 3.12448H17.2947V7.70532H21.8755V3.12448ZM20.7511 4.24895V6.58084H18.4192V4.24895H20.7511Z"/>
</svg>
