<svg width="22" height="22" viewBox="0 0 22 22" xmlns="http://www.w3.org/2000/svg">
<path d="M13.0118 0C14.7712 0 16.2034 1.43211 16.2034 3.19157C16.2034 4.95102 14.7712 6.38314 13.0118 6.38314C11.2523 6.38314 9.82021 4.95102 9.82021 3.19157C9.82021 1.43211 11.2523 0 13.0118 0ZM17.5264 14.0211C19.2858 14.0211 20.7179 15.4532 20.7179 17.2127C20.7179 18.9721 19.2858 20.4042 17.5264 20.4042C15.7669 20.4042 14.3348 18.9721 14.3348 17.2127C14.3348 15.4532 15.7669 14.0211 17.5264 14.0211ZM3.19157 11.0477C4.95102 11.0477 6.38314 12.4799 6.38314 14.2393C6.38314 15.9988 4.95102 17.4309 3.19157 17.4309C1.43211 17.4309 0 15.9988 0 14.2393C0 12.4799 1.43211 11.0477 3.19157 11.0477Z"/>
<path d="M3.61438 5.74212C4.76008 5.74212 5.68754 6.66958 5.68754 7.81527C5.68754 8.96096 4.76008 9.88843 3.61438 9.88843C2.46869 9.88843 1.54123 8.96096 1.54123 7.81527C1.54123 6.66958 2.46869 5.74212 3.61438 5.74212ZM18.4265 4.89648C19.5722 4.89648 20.4997 5.82395 20.4997 6.96964C20.4997 8.11533 19.5722 9.0428 18.4265 9.0428C17.2808 9.0428 16.3534 8.10169 16.3534 6.956C16.3534 5.81031 17.2808 4.89648 18.4265 4.89648ZM11.6342 17.8537C12.7799 17.8537 13.7074 18.7812 13.7074 19.9269C13.7074 21.0726 12.7799 22 11.6342 22C10.4885 22 9.56107 21.0726 9.56107 19.9269C9.56107 18.7812 10.4885 17.8537 11.6342 17.8537Z"/>
<path d="M6.75139 17.3217C7.54246 17.3217 8.1835 17.9628 8.1835 18.7539C8.1835 19.5449 7.54246 20.186 6.75139 20.186C5.96032 20.186 5.31927 19.5449 5.31927 18.7539C5.31927 17.9628 5.94668 17.3217 6.75139 17.3217ZM19.8177 10.2021C20.6088 10.2021 21.2498 10.8431 21.2498 11.6342C21.2498 12.4253 20.6088 13.0663 19.8177 13.0663C19.0267 13.0663 18.3856 12.4253 18.3856 11.6342C18.3856 10.8431 19.013 10.2021 19.8177 10.2021ZM7.06509 2.76874C7.85616 2.76874 8.4972 3.40978 8.4972 4.20085C8.4972 4.99192 7.85616 5.63297 7.06509 5.63297C6.27402 5.63297 5.63298 4.99192 5.63298 4.20085C5.63298 3.40978 6.27402 2.76874 7.06509 2.76874Z"/>
</svg>
