<svg width="24" height="24" viewBox="0 0 24 24" fill="none" xmlns="http://www.w3.org/2000/svg">
<path fill-rule="evenodd" clip-rule="evenodd" d="M12 23C18.0751 23 23 18.0751 23 12C23 5.92487 18.0751 1 12 1C5.92487 1 1 5.92487 1 12C1 18.0751 5.92487 23 12 23ZM18.6775 9.18357C18.7973 9.03798 18.9108 8.93102 19.018 8.8623C19.1251 8.7939 19.2858 8.71664 19.5 8.63098V8.50249H16.2738V8.63098C16.4622 8.67388 16.6036 8.71901 16.6979 8.76596C16.7921 8.81314 16.8778 8.88384 16.9551 8.97805C17.1691 9.24366 17.2764 9.62509 17.2764 10.122C17.2764 10.5589 17.1884 11.0647 17.0129 11.6387C16.8372 12.213 16.5866 12.8386 16.2609 13.5153L15.9396 14.1709L14.333 10.3534C14.2558 10.165 14.1935 9.98063 14.1464 9.80076C14.0993 9.62065 14.0758 9.47926 14.0758 9.37642C14.0758 8.95667 14.3073 8.70801 14.77 8.63098V8.50249H10.1168V8.63098C10.2796 8.65655 10.4062 8.68877 10.4961 8.72748C10.5861 8.76596 10.6652 8.81955 10.7338 8.88788C10.9309 9.08516 11.1408 9.44078 11.3637 9.95482L12.122 11.7287L10.811 14.3637L8.80586 9.76205C8.7288 9.5821 8.69008 9.4236 8.69008 9.28641C8.69008 9.12387 8.73074 8.99309 8.8122 8.89445C8.89369 8.79604 9.02852 8.70801 9.2171 8.63098V8.50249H4.5V8.63098C4.7483 8.69954 4.94111 8.77039 5.07823 8.84307C5.2152 8.91582 5.34388 9.02523 5.46387 9.1709C5.6095 9.3423 5.76801 9.56919 5.93946 9.85198C6.11088 10.1349 6.2565 10.4134 6.37652 10.6876L9.44864 17.5L12.1864 11.9471L14.6028 17.5L17.7391 10.7132C17.8677 10.4304 18.0154 10.1542 18.1825 9.88412C18.3497 9.61432 18.5145 9.38085 18.6775 9.18357Z"/>
</svg>
