<svg xmlns="http://www.w3.org/2000/svg" width="234.67" height="165.33" viewBox="0 0 234.67 165.33">
 <g transform="matrix(1.3333 0 0 -1.3333 0 165.33)">
  <g transform="scale(.1)">
   <path d="m1723.2 1046.4c-20.24 76.22-79.87 136.24-155.6 156.61-137.25 37.02-687.62 37.02-687.62 37.02s-550.37 0-687.62-37.02c-75.723-20.37-135.36-80.39-155.6-156.61-36.777-138.14-36.777-426.37-36.777-426.37s0-288.22 36.777-426.38c20.238-76.211 79.879-136.23 155.6-156.61 137.25-37.012 687.62-37.012 687.62-37.012s550.37 0 687.62 37.012c75.73 20.379 135.36 80.398 155.6 156.61 36.78 138.16 36.78 426.38 36.78 426.38s0 288.23-36.78 426.37"/>
   <path d="m700 358.31 460 261.68-460 261.7z" fill="#fff"/>
  </g>
 </g>
</svg>
