<svg width="24" height="24" viewBox="0 0 24 24" fill="none" xmlns="http://www.w3.org/2000/svg">
<path d="M13.9118 12.056C13.9109 11.6007 13.9101 11.1442 13.9169 10.6902C13.9169 10.5491 13.885 10.49 13.7303 10.4945C13.6828 10.4966 13.6316 10.5014 13.5795 10.5063C13.4074 10.5225 13.2262 10.5395 13.1388 10.4627C13.0457 10.3756 13.0617 10.223 13.078 10.0665C13.0864 9.986 13.095 9.90442 13.0888 9.8302V9.7847C13.0888 9.72038 13.0826 9.65277 13.0764 9.58533C13.0621 9.42854 13.0479 9.2727 13.1115 9.16134C13.1691 9.06063 13.3012 9.06364 13.4401 9.06681C13.5208 9.06865 13.6038 9.07054 13.6757 9.05214C14.0625 8.95204 14.3537 8.72909 14.5903 8.41968C14.7541 8.21038 14.9589 8.06023 15.2228 8.01018C15.3638 7.98288 15.4503 8.00108 15.4412 8.18308C15.433 8.33584 15.4346 8.49023 15.4362 8.64528C15.4373 8.74884 15.4384 8.85274 15.4366 8.95659C15.4321 9.06579 15.473 9.10219 15.5822 9.09764C15.6602 9.09569 15.7382 9.09625 15.8162 9.09681C15.9202 9.09755 16.0242 9.09829 16.1282 9.09309C16.2374 9.08854 16.2738 9.12949 16.2693 9.23869C16.2647 9.6118 16.2647 9.98036 16.2693 10.3535C16.2693 10.4581 16.242 10.5127 16.1282 10.4991C16.1131 10.496 16.0979 10.497 16.0827 10.4981C16.0751 10.4986 16.0676 10.4991 16.06 10.4991C15.9911 10.5053 15.913 10.4965 15.836 10.4878C15.6892 10.4712 15.5462 10.455 15.4776 10.5446C15.4053 10.6365 15.4184 10.7995 15.4313 10.9601C15.4362 11.0221 15.4412 11.0836 15.4412 11.1406C15.4412 11.4493 15.4409 11.7577 15.4406 12.066L15.4406 12.0686C15.4397 12.9954 15.4389 13.9209 15.4457 14.8489C15.4457 15.0218 15.4002 15.0764 15.2273 15.0628C15.1291 15.0546 15.0293 15.0562 14.9289 15.0579C14.8617 15.059 14.7943 15.0601 14.7268 15.0582C14.2354 15.04 13.9123 14.7079 13.9123 14.2165V12.5102C13.9123 12.3592 13.9121 12.2075 13.9118 12.056Z"/>
<path d="M8.57517 11.9642V13.8297C8.57062 14.6396 8.14747 15.0582 7.33756 15.0627C7.21942 15.0627 7.10079 15.0633 6.98198 15.0638C6.74386 15.0648 6.50506 15.0658 6.26829 15.0627C5.54938 15.0536 5.02157 14.5759 4.98517 13.857C4.95787 13.3428 4.95332 12.8241 4.98062 12.31C5.01702 11.5728 5.58123 11.0541 6.32744 11.045C6.45804 11.042 6.59066 11.043 6.7226 11.044C6.78828 11.0445 6.85394 11.045 6.91895 11.045C7.11005 11.0405 7.18285 10.9313 7.1783 10.7493C7.1783 10.5673 7.0964 10.4854 6.9144 10.4945C6.70965 10.499 6.50489 10.499 6.30014 10.4945C5.79963 10.4854 5.52208 10.2124 5.52663 9.72097C5.52663 9.66335 5.51909 9.60008 5.5115 9.53637C5.49272 9.37869 5.47361 9.21827 5.56758 9.13401C5.64971 9.06174 5.80774 9.07486 5.9629 9.08773C6.02264 9.09269 6.08195 9.09761 6.13634 9.09761C6.47591 9.09458 6.81346 9.09559 7.15168 9.0966C7.32104 9.09711 7.49057 9.09761 7.66061 9.09761C8.20207 9.09761 8.57062 9.46617 8.57517 10.0122C8.57821 10.4429 8.5772 10.8777 8.57618 11.3125C8.57568 11.5299 8.57517 11.7473 8.57517 11.9642ZM7.18285 12.997V12.7695C7.18285 12.3054 7.18285 12.3054 6.71875 12.3236C6.48669 12.3327 6.35929 12.451 6.35474 12.6922C6.35019 12.8833 6.35019 13.0698 6.35474 13.2609C6.35929 13.5885 6.5049 13.675 6.9781 13.6886C7.22947 13.6952 7.20915 13.5705 7.18936 13.4492C7.18157 13.4014 7.17386 13.3541 7.18285 13.3155C7.19377 13.2555 7.18995 13.1905 7.18613 13.1255C7.18358 13.0822 7.18103 13.0389 7.18285 12.997Z"/>
<path d="M1.03115 12.5011V10.2715C1.03115 9.54352 1.47705 9.08852 2.20961 9.09762C2.35201 9.09897 2.49441 9.09467 2.63669 9.09037C2.97176 9.08024 3.30617 9.07014 3.63834 9.13402C4.24349 9.25232 4.6257 9.72098 4.63025 10.3443C4.63328 10.7842 4.63227 11.224 4.63126 11.6639C4.63076 11.8837 4.63025 12.1038 4.63025 12.3236C4.63025 13.1517 4.14339 13.6568 3.31528 13.6795C3.06503 13.6886 2.81477 13.6841 2.56452 13.6795C2.45077 13.675 2.40072 13.7114 2.40527 13.8342C2.41437 14.0162 2.40982 14.1982 2.40527 14.3802C2.39617 14.7715 2.11861 15.0537 1.73186 15.0582C1.66859 15.0595 1.60075 15.0674 1.53264 15.0754C1.35583 15.0961 1.17721 15.1171 1.0721 15.0218C0.977514 14.9367 0.99653 14.7707 1.01562 14.6042C1.02407 14.5303 1.03254 14.4564 1.03115 14.3893C1.02811 13.9706 1.02913 13.5498 1.03014 13.1296C1.03064 12.9198 1.03115 12.7102 1.03115 12.5011ZM2.40527 11.3863V11.8186C2.40527 12.3327 2.40527 12.3327 2.91943 12.2872C3.14238 12.269 3.24703 12.1598 3.25158 11.9369C3.2534 11.835 3.25231 11.7324 3.25122 11.6297C3.24958 11.4754 3.24794 11.3208 3.25613 11.1679C3.28099 10.4966 3.16999 10.497 2.69626 10.499C2.64984 10.4992 2.59993 10.4994 2.54632 10.499C2.43712 10.499 2.40072 10.5309 2.40072 10.6401C2.40754 10.8243 2.40669 11.0111 2.40584 11.1985C2.40555 11.261 2.40527 11.3237 2.40527 11.3863Z"/>
<path d="M12.6262 12.0654C12.6255 11.8661 12.6247 11.667 12.6247 11.4682C12.6247 11.3244 12.6245 11.1806 12.6244 11.0369C12.6236 10.4619 12.6229 9.88754 12.6338 9.31607C12.6384 9.15681 12.6111 9.08856 12.4291 9.09766C12.0969 9.11586 11.7602 9.11131 11.4281 9.09766C11.2688 9.09311 11.2279 9.13861 11.2279 9.29787C11.2347 9.80307 11.2338 10.3108 11.233 10.8173C11.2327 10.9857 11.2324 11.1547 11.2324 11.3226C11.2324 11.6275 11.1005 11.7504 10.8001 11.7413C10.5453 11.7322 10.4088 11.5774 10.4088 11.2862V9.28422C10.4088 9.27311 10.4091 9.26211 10.4094 9.25135C10.4116 9.16509 10.4134 9.09362 10.2678 9.09766C9.8962 9.10673 9.52912 9.10225 9.15756 9.09772L9.15302 9.09766C9.05292 9.09311 9.02107 9.12496 9.02107 9.22506C9.02259 9.52082 9.02158 9.81658 9.02057 10.1123C9.01854 10.7038 9.01652 11.2953 9.03472 11.8869C9.04837 12.4465 9.44423 12.897 9.98569 13.0562C10.2099 13.1212 10.4364 13.1166 10.6636 13.1119C10.7546 13.1101 10.8456 13.1082 10.9366 13.1108C11.1278 13.1154 11.2279 13.1882 11.2279 13.3975C11.2279 13.6022 11.1232 13.6796 10.9321 13.6796L10.9276 13.6795C10.6926 13.675 10.4619 13.6705 10.2268 13.6796C9.86283 13.6932 9.58528 13.9708 9.57618 14.3348C9.57163 14.4303 9.57277 14.5247 9.5739 14.6191C9.57504 14.7135 9.57618 14.808 9.57163 14.9035C9.56708 15.0173 9.59438 15.0628 9.72178 15.0628C9.98341 15.0582 10.245 15.0582 10.5067 15.0582C10.7683 15.0582 11.0299 15.0582 11.2916 15.0537C11.5282 15.0491 11.7557 14.9854 11.965 14.8717C12.4837 14.585 12.6111 14.0982 12.6202 13.5613C12.6299 13.0639 12.6281 12.5641 12.6262 12.0654Z"/>
<path d="M18.4033 9.35244L18.2213 9.49804C18.22 9.46568 18.2184 9.43672 18.217 9.41005C18.2131 9.33922 18.2101 9.28453 18.2167 9.22504C18.2258 9.11128 18.1758 9.08398 18.0711 9.08398C17.6525 9.08853 17.2385 9.08853 16.8198 9.08398C16.7197 9.08398 16.6788 9.11583 16.6879 9.21594C16.6909 9.26733 16.6899 9.31672 16.6889 9.36677C16.6884 9.39204 16.6879 9.41748 16.6879 9.44344C16.6879 9.89188 16.6882 10.34 16.6885 10.788C16.6893 12.1308 16.6902 13.4716 16.6833 14.8125C16.6788 15.0218 16.7379 15.0764 16.9336 15.0582C17.0456 15.047 17.1576 15.0496 17.2696 15.0522C17.3396 15.0538 17.4096 15.0554 17.4796 15.0537C17.9164 15.0491 18.1985 14.7716 18.2122 14.3302V14.08C18.2122 13.7279 18.2127 13.3764 18.2132 13.025C18.2142 12.3228 18.2152 11.6212 18.2122 10.9177C18.2122 10.6993 18.2804 10.5309 18.4897 10.4445C18.8264 10.308 19.0858 10.5127 19.0858 10.9131V14.3029C19.0858 14.3714 19.0792 14.4465 19.0725 14.522C19.0558 14.7125 19.0388 14.9059 19.1267 15.0036C19.2253 15.1149 19.417 15.0929 19.6074 15.0711C19.6896 15.0617 19.7716 15.0523 19.8456 15.0537C20.3279 15.0582 20.6055 14.7761 20.6055 14.2938V10.995C20.6055 10.9755 20.605 10.9554 20.6045 10.9352C20.6035 10.8942 20.6025 10.8526 20.6055 10.813C20.6328 10.5537 20.8103 10.399 21.0651 10.4126C21.3472 10.4263 21.4655 10.5491 21.47 10.8449V11.0041C21.47 11.3226 21.4703 11.6411 21.4706 11.9595C21.4714 12.9151 21.4723 13.8706 21.4655 14.8262C21.4655 15.0218 21.5201 15.081 21.7066 15.0628C21.834 15.05 21.9614 15.0529 22.0888 15.0558C22.1434 15.057 22.198 15.0582 22.2526 15.0582C22.7122 15.0582 22.9988 14.767 22.9988 14.3029C22.9988 13.9763 22.9991 13.6499 22.9994 13.3237C23.0003 12.3457 23.0011 11.3691 22.9943 10.3899C22.9897 9.78469 22.694 9.35244 22.1434 9.10673C21.6202 8.87468 21.0605 8.99753 20.6374 9.41159C20.6192 9.43206 20.5998 9.45026 20.5805 9.46846C20.5611 9.48666 20.5418 9.50486 20.5236 9.52534C20.469 9.57994 20.4417 9.57539 20.3871 9.51169C19.8456 8.87468 19.0357 8.81553 18.4033 9.35244Z"/>
</svg>
