<svg width="24" height="24" viewBox="0 0 24 24" fill="none" xmlns="http://www.w3.org/2000/svg">
<path d="M9.5 7.5L16.5 11.95L9.5 16.4V7.5Z" fill="white"/>
<path fill-rule="evenodd" clip-rule="evenodd" d="M9.66351 1.76322C9.7752 1.73773 9.88737 1.71405 10 1.69219C10.3298 1.62819 10.6635 1.57987 11 1.5477C11.331 1.51604 11.6647 1.5 12 1.5C12.6762 1.5 13.3457 1.56523 14 1.69219C16.0404 2.08811 17.9336 3.08439 19.4246 4.57538C21.3938 6.54451 22.5 9.21523 22.5 12C22.5 14.7848 21.3938 17.4555 19.4246 19.4246C17.9336 20.9156 16.0404 21.9119 14 22.3078C13.3457 22.4348 12.6762 22.5 12 22.5L12 20.5C16.6944 20.5 20.5 16.6944 20.5 12C20.5 9.66908 19.5618 7.5573 18.0424 6.02171C18.0317 6.01098 18.0211 6.00027 18.0104 5.98959C17.9578 5.93695 17.9045 5.88507 17.8506 5.83396C16.3267 4.38749 14.267 3.5 12 3.5C11.3498 3.5 10.7166 3.57301 10.1082 3.71129L9.66351 1.76322ZM7.4771 4.80192L6.41365 3.10936C5.75309 3.52439 5.13582 4.01494 4.57538 4.57538C4.01494 5.13582 3.52439 5.75309 3.10936 6.41365L4.80192 7.4771C5.13436 6.94915 5.52328 6.46033 5.9602 6.01913C5.96997 6.00926 5.97977 5.99942 5.98959 5.98959C5.99942 5.97977 6.00926 5.96997 6.01913 5.9602C6.46033 5.52328 6.94914 5.13436 7.4771 4.80192ZM3.71129 10.1082L1.76322 9.66351C1.58961 10.4241 1.5 11.2074 1.5 12C1.5 12.7926 1.58961 13.5759 1.76322 14.3365L3.71129 13.8918C3.57301 13.2834 3.5 12.6502 3.5 12C3.5 11.3498 3.57301 10.7166 3.71129 10.1082ZM4.80192 16.5229L3.10936 17.5863C3.52439 18.2469 4.01494 18.8642 4.57538 19.4246C5.13582 19.9851 5.75309 20.4756 6.41365 20.8906L7.4771 19.1981C6.39756 18.5183 5.48167 17.6024 4.80192 16.5229ZM10.1082 20.2887L9.66351 22.2368C9.7752 22.2623 9.88737 22.286 10 22.3078C10.3298 22.3718 10.6635 22.4201 11 22.4523C11.331 22.484 11.6647 22.5 12 22.5L12 20.5C11.3498 20.5 10.7166 20.427 10.1082 20.2887Z" fill="white"/>
</svg>
