<?xml version="1.0" encoding="UTF-8"?>
<svg xmlns="http://www.w3.org/2000/svg" width="32" height="32" viewBox="0 0 32 32">
    <path d="M26 7h-2.53l-4.5-3h-5.94l-4.5 3H6c-1.654 0-3 1.346-3 3v15c0 1.654 1.346 3 3 3h20c1.654 0 3-1.346 3-3V10c0-1.654-1.346-3-3-3Zm1 18c0 .552-.449 1-1 1H6c-.551 0-1-.448-1-1V10c0-.552.449-1 1-1h3.135l4.5-3h4.729l4.5 3h3.135c.551 0 1 .448 1 1v15ZM16 11c-3.033 0-5.5 2.468-5.5 5.5S12.967 22 16 22s5.5-2.468 5.5-5.5S19.033 11 16 11Zm0 9c-1.93 0-3.5-1.57-3.5-3.5S14.07 13 16 13s3.5 1.57 3.5 3.5S17.93 20 16 20Z"/>
</svg>
