<?xml version="1.0" encoding="UTF-8"?>
<svg xmlns="http://www.w3.org/2000/svg" width="24" height="24" viewBox="0 0 24 24">
    <path d="M13 2v4h-2V2h2Zm-2 16v4h2v-4h-2Zm6.294-14.54-2.435 3.17 1.587 1.22 2.435-3.17-1.587-1.22Zm-9.74 12.69-2.435 3.17 1.587 1.22 2.435-3.17-1.587-1.22Zm-1-6.86L2.729 8.12l-.584 1.91L5.97 11.2l.584-1.91Zm15.301 4.68L18.03 12.8l-.585 1.91 3.826 1.17.584-1.91Zm-.584-5.85-3.826 1.17.585 1.91 3.825-1.17-.584-1.91ZM5.97 12.8l-3.825 1.17.584 1.91 3.825-1.17-.584-1.91Zm3.171-6.17L6.706 3.46 5.119 4.67l2.435 3.18 1.587-1.22Zm9.74 12.69-2.435-3.17-1.587 1.22 2.435 3.17 1.587-1.22Z"/>
</svg>
