<?xml version="1.0" encoding="UTF-8"?>
<svg xmlns="http://www.w3.org/2000/svg" width="32" height="32" viewBox="0 0 32 32">
    <path d="M16 3C8.832 3 3 8.832 3 16s5.832 13 13 13 13-5.832 13-13S23.168 3 16 3Zm0 24C9.935 27 5 22.065 5 16S9.935 5 16 5s11 4.935 11 11-4.935 11-11 11Zm8-11c0 4.411-3.589 8-8 8s-8-3.589-8-8c0-1.899.668-3.643 1.777-5.016-.009.089-.027.175-.027.266 0 1.519 1.231 2.75 2.75 2.75s2.75-1.231 2.75-2.75c0-1.322-.933-2.424-2.176-2.688C13.982 8.204 14.967 8 16 8c4.411 0 8 3.589 8 8Z"/>
</svg>
