<?xml version="1.0" encoding="UTF-8"?>
<svg xmlns="http://www.w3.org/2000/svg" width="24" height="24" viewBox="0 0 24 24">
    <path d="m20.28 1.293-3.718 3.718C15.791 3.246 14.046 2 12 2 9.243 2 7 4.243 7 7v4c0 1.014.308 1.956.829 2.745L6.38 15.194c-.971-1.225-1.397-2.409-1.431-2.51l-1.897.633c.303.908.951 2.129 1.922 3.283l-2.693 2.693 1.414 1.414 17.999-18-1.414-1.414ZM9 11V7c0-1.654 1.346-3 3-3 1.522 0 2.768 1.143 2.961 2.612l-5.664 5.664C9.112 11.887 9 11.458 9 10.999Zm5.056 2.174c.04-.038.079-.077.117-.117L17 10.23v.771c0 2.757-2.243 5-5 5-.24 0-.469-.038-.7-.071l2.756-2.756Zm4.996-.492 1.896.635c-.721 2.162-3.271 6.127-7.949 6.631v2.053h-2v-2.053c-1.073-.116-2.029-.419-2.882-.836l1.517-1.517c.697.249 1.478.406 2.365.406 5.187 0 6.979-5.102 7.052-5.318Z"/>
</svg>
