<svg xmlns="http://www.w3.org/2000/svg" width="24" height="24" viewBox="0 0 24 24">
    <path id="bounds" opacity="0" d="M0 0h24v24H0z"/>
    <path d="M14.762 12.99l-.35-.36-2.96-2.97-.35-.35-.36-.35-8.492 9.16c-.5.5-.75 1.16-.75 1.82 0 .65.25 1.31.75 1.81.48.48 1.12.75 1.81.75.68 0 1.32-.27 1.79-.73l9.26-8.43-.348-.35zm-3.76 1.17l-1.67 1.68c-.15.15-.34.22-.53.22s-.39-.07-.53-.22c-.3-.29-.3-.76 0-1.06l1.67-1.67c.29-.3.76-.3 1.06-.01.29.3.29.77 0 1.06zM20.872 11.06c-.97.97-2.24 1.55-3.59 1.62l-5.92-5.94c.08-1.37.66-2.64 1.61-3.6 1.06-1.06 2.45-1.64 3.94-1.64 1.5 0 2.9.58 3.96 1.65 2.17 2.18 2.17 5.73 0 7.91z"/>
</svg>
