<svg xmlns="http://www.w3.org/2000/svg" width="70" height="16" viewBox="0 0 70 16">
    <path id="bounds" opacity="0" d="M0 0h70v16H0z"/>
    <path d="M25 9.106l-.406 1.14h-.023c-.072-.266-.193-.646-.386-1.128l-2.18-5.472H19.87v8.7h1.407V6.998c0-.33-.007-.73-.02-1.186-.007-.232-.034-.416-.04-.558h.03c.073.33.147.58.2.746l2.615 6.346h.984l2.597-6.404c.058-.145.12-.43.178-.687h.032c-.034.634-.063 1.213-.068 1.562v5.53h1.5v-8.7h-2.047L25 9.106zm5.7 3.24h1.465V6.113H30.7v6.233zm.748-8.884c-.242 0-.452.082-.625.245-.174.165-.26.368-.26.612 0 .238.086.44.257.6.172.157.383.237.63.237.245 0 .457-.08.628-.24.174-.16.263-.36.263-.6 0-.233-.086-.437-.255-.604-.168-.165-.383-.25-.637-.25m5.91 2.587c-.28-.058-.558-.087-.82-.087-.674 0-1.274.143-1.785.428-.51.286-.907.693-1.176 1.21-.267.516-.404 1.12-.404 1.792 0 .59.132 1.13.392 1.607.26.475.63.85 1.098 1.108.467.258 1.007.39 1.603.39.697 0 1.292-.14 1.77-.414l.018-.012v-1.344l-.062.045c-.216.158-.458.284-.716.374-.26.09-.497.136-.704.136-.575 0-1.038-.18-1.373-.534-.337-.356-.507-.855-.507-1.482 0-.633.177-1.145.528-1.523.35-.377.812-.568 1.375-.568.482 0 .952.165 1.396.486l.063.045V6.29l-.02-.01c-.165-.095-.392-.17-.675-.23m4.832-.047c-.368 0-.697.118-.98.35-.25.206-.427.487-.565.837h-.015V6.113h-1.467v6.234h1.467v-3.19c0-.542.123-.987.366-1.324.24-.333.56-.5.95-.5.132 0 .28.018.44.063.16.043.274.09.342.138l.062.044V6.1l-.024-.01c-.137-.057-.33-.086-.576-.087m5.15 4.76c-.277.346-.69.52-1.233.52-.538 0-.964-.177-1.263-.53-.3-.352-.455-.857-.455-1.5 0-.66.154-1.177.454-1.536.3-.358.72-.54 1.25-.54.516 0 .925.173 1.22.516.295.344.444.858.444 1.525 0 .676-.14 1.195-.42 1.545M46.175 5.96c-1.028 0-1.845.3-2.427.896-.58.593-.877 1.415-.877 2.443 0 .975.29 1.76.857 2.332.568.573 1.342.863 2.298.863.995 0 1.796-.306 2.378-.908.58-.602.877-1.416.877-2.42 0-.992-.277-1.783-.823-2.352-.547-.567-1.316-.855-2.283-.854m6.357 2.727c-.462-.184-.758-.34-.88-.457-.116-.114-.177-.276-.177-.48 0-.18.073-.326.225-.445.152-.116.365-.177.63-.177.25 0 .5.04.753.116.253.075.475.178.66.304l.06.042V6.234l-.023-.01c-.17-.073-.395-.136-.668-.186-.272-.05-.52-.075-.733-.075-.7 0-1.278.18-1.72.532-.445.354-.67.82-.67 1.382 0 .292.048.552.145.772.095.222.245.415.443.58.196.162.5.332.902.505.34.14.59.257.75.348.157.092.268.184.33.27.06.088.092.208.092.355 0 .42-.315.622-.96.622-.24 0-.512-.048-.812-.147-.3-.1-.58-.24-.832-.42l-.06-.046v1.43l.02.01c.21.097.475.18.788.244.31.066.594.098.84.098.758 0 1.37-.18 1.815-.534.447-.358.675-.832.675-1.416 0-.42-.12-.78-.363-1.07-.236-.29-.65-.555-1.232-.788m6.71 2.073c-.275.346-.69.52-1.23.52-.538 0-.964-.177-1.263-.53-.3-.352-.455-.857-.455-1.5 0-.66.155-1.177.455-1.536.3-.358.72-.54 1.25-.54.516 0 .925.173 1.22.516.295.344.444.858.444 1.525 0 .676-.14 1.195-.42 1.545M58.077 5.96c-1.03 0-1.846.3-2.428.896-.58.593-.877 1.415-.877 2.443 0 .975.29 1.76.858 2.332.57.573 1.342.863 2.3.863.996 0 1.796-.306 2.378-.908.58-.602.877-1.416.877-2.42 0-.992-.278-1.783-.823-2.352-.55-.567-1.316-.855-2.284-.854M69 7.31V6.113h-1.485V4.25l-.05.016-1.394.426-.028.01v1.41h-2.2v-.785c0-.365.082-.645.242-.832.16-.184.39-.278.68-.278.212 0 .43.05.648.148l.054.024V3.13l-.025-.01c-.202-.073-.48-.11-.824-.11-.434 0-.827.096-1.17.282-.344.188-.614.455-.804.794-.188.34-.284.73-.284 1.164v.863h-1.034V7.31h1.034v5.04h1.485V7.307h2.2v3.202c0 1.318.622 1.987 1.85 1.987.2 0 .413-.023.628-.07.224-.048.373-.095.46-.145l.02-.01v-1.21l-.06.042c-.08.054-.18.097-.298.13-.118.035-.217.05-.293.05-.288 0-.5-.076-.633-.23-.136-.154-.203-.423-.203-.8V7.31H69v-.002z"/>
    <path fill="#F25022" d="M1 7.64h6.9V.74H1v6.9z"/>
    <path fill="#7FBA00" d="M8.618 7.64h6.9V.74h-6.9v6.9z"/>
    <path fill="#00A4EF" d="M1 15.26h6.898v-6.9H1v6.9z"/>
    <path fill="#FFB900" d="M8.618 15.26h6.9v-6.9h-6.9v6.9z"/>
</svg>
