<?xml version="1.0" encoding="UTF-8"?>
<svg xmlns="http://www.w3.org/2000/svg" width="24" height="24" viewBox="0 0 24 24">
    <path d="M5.589 18.542c-1.666-1.661-2.584-3.977-2.584-6.523V4.382l.553-.276c.172-.086 4.26-2.105 8.447-2.105s8.275 2.02 8.447 2.105l.553.276v7.637c0 2.541-.914 4.854-2.574 6.513-.283.284-.592.549-.916.789-2.437 1.803-4.239 2.68-5.51 2.68s-3.073-.877-5.511-2.681c-.318-.235-.622-.497-.905-.778m2.105-.822c2.783 2.058 3.941 2.28 4.311 2.28s1.529-.223 4.318-2.286C15.217 16.589 13.743 16 12.011 16s-3.211.591-4.317 1.72ZM5.005 5.642v6.376c0 1.579.462 3.082 1.292 4.266 1.478-1.5 3.43-2.285 5.715-2.285s4.23.782 5.707 2.277c.826-1.184 1.286-2.683 1.286-4.258V5.643C17.813 5.127 14.878 4 12.005 4s-5.811 1.126-7 1.642Zm7 7.358c-1.93 0-3.5-1.57-3.5-3.5s1.57-3.5 3.5-3.5 3.5 1.57 3.5 3.5-1.57 3.5-3.5 3.5Zm0-5c-.827 0-1.5.673-1.5 1.5s.673 1.5 1.5 1.5 1.5-.673 1.5-1.5-.673-1.5-1.5-1.5Z"/>
</svg>
