<?xml version="1.0" encoding="UTF-8"?>
<svg xmlns="http://www.w3.org/2000/svg" width="24" height="24" viewBox="0 0 24 24">
    <path d="M3.009 4.381v7.637c0 2.546.918 4.862 2.584 6.523.283.281.587.543.905.778C8.936 21.123 10.738 22 12.009 22s3.073-.877 5.51-2.68c.324-.239.633-.505.916-.789 1.66-1.66 2.574-3.973 2.574-6.513V4.382l-.553-.276C20.284 4.019 16.196 2 12.009 2S3.733 4.02 3.562 4.105l-.553.276ZM12 6.5c1.66 0 3 1.34 3 3s-1.34 3-3 3c-1.65 0-3-1.34-3-3s1.35-3 3-3Zm0 7.5c2.27 0 4.24.79 5.71 2.28-.21.3-.44.58-.7.84-.21.21-.44.41-.69.59-.82.61-1.69 1.2-2.5 1.63-.84.46-1.46.66-1.82.66-.35 0-.97-.2-1.82-.66-.8-.43-1.68-1.02-2.5-1.63-.24-.18-.47-.38-.68-.59-.26-.25-.5-.54-.71-.84C7.77 14.79 9.73 14 12 14Z"/>
</svg>
