<?xml version="1.0" encoding="UTF-8"?>
<svg xmlns="http://www.w3.org/2000/svg" width="24" height="24" viewBox="0 0 24 24">
    <path d="m17.584 4-2.043-2.043L16.955.543l2.043 2.043L21.041.543l1.414 1.414L20.412 4l2.043 2.043-1.414 1.414-2.043-2.043-2.043 2.043-1.414-1.414L17.584 4Zm-11.4-.949C7.734 2.534 9.849 2 12 2v2c-1.849 0-3.734.465-5.184.949-.719.24-1.318.479-1.735.658L5 5.642v6.377c0 1.565.445 3.066 1.291 4.269 1.467-1.484 3.429-2.287 5.715-2.287s4.241.801 5.708 2.279C18.557 15.079 19 13.581 19 12.019V11h2v1.019c0 2.407-.852 4.792-2.575 6.514-.282.282-.587.545-.914.787-.86.636-1.821 1.288-2.742 1.785-.882.476-1.879.895-2.768.895s-1.886-.42-2.768-.895c-.922-.497-1.882-1.149-2.742-1.785-.324-.24-.626-.5-.905-.778-1.729-1.723-2.584-4.112-2.584-6.523V4.382l.553-.276.447.894-.447-.894h.002l.004-.003.012-.006.04-.02.146-.069c.126-.059.308-.141.537-.24.458-.196 1.109-.457 1.89-.717h-.002ZM16.32 17.713C15.234 16.605 13.783 16 12.007 16s-3.232.608-4.318 1.719c.82.606 1.692 1.193 2.493 1.625.844.455 1.463.656 1.819.656s.975-.2 1.819-.656c.804-.433 1.678-1.023 2.5-1.631ZM12 8c-.828 0-1.5.672-1.5 1.5S11.172 11 12 11s1.5-.672 1.5-1.5S12.828 8 12 8ZM8.5 9.5C8.5 7.567 10.067 6 12 6s3.5 1.567 3.5 3.5S13.933 13 12 13s-3.5-1.567-3.5-3.5Z"/>
</svg>
