<?xml version="1.0" encoding="UTF-8"?>
<svg xmlns="http://www.w3.org/2000/svg" width="24" height="24" viewBox="0 0 24 24">
    <path d="M19 14h2v6.5c0 1.379-1.122 2.5-2.5 2.5h-15C2.122 23 1 21.879 1 20.5v-15C1 4.121 2.122 3 3.5 3H10v2H3.5c-.276 0-.5.225-.5.5v15c0 .275.224.5.5.5h15c.276 0 .5-.225.5-.5V14Zm5.1-8c0 3.363-2.736 6.1-6.1 6.1S11.9 9.364 11.9 6 14.636-.1 18-.1s6.1 2.736 6.1 6.1Zm-2 0c0-2.261-1.839-4.1-4.1-4.1S13.9 3.739 13.9 6s1.839 4.1 4.1 4.1 4.1-1.839 4.1-4.1ZM19 5V3h-2v2h-2v2h2v2h2V7h2V5h-2ZM6 14h7v-2H6v2Zm5 2H6v2h5v-2Zm-5-6h4V8H6v2Z"/>
</svg>
