<?xml version="1.0" encoding="UTF-8"?>
<svg xmlns="http://www.w3.org/2000/svg" width="24" height="24" viewBox="0 0 24 24">
    <path d="M3.75 12c0-4.56 3.69-8.25 8.25-8.25s8.25 3.69 8.25 8.25-3.69 8.25-8.25 8.25S3.75 16.56 3.75 12ZM12 1.75C6.34 1.75 1.75 6.34 1.75 12S6.34 22.25 12 22.25 22.25 17.66 22.25 12 17.66 1.75 12 1.75Zm-4.75 11.5c.69 0 1.25-.56 1.25-1.25s-.56-1.25-1.25-1.25S6 11.31 6 12s.56 1.25 1.25 1.25Zm9.5 0c.69 0 1.25-.56 1.25-1.25s-.56-1.25-1.25-1.25-1.25.56-1.25 1.25.56 1.25 1.25 1.25ZM13.25 12c0 .69-.56 1.25-1.25 1.25s-1.25-.56-1.25-1.25.56-1.25 1.25-1.25 1.25.56 1.25 1.25Z"/>
</svg>
