<svg width="32" height="33" viewBox="0 0 32 33" fill="none" xmlns="http://www.w3.org/2000/svg">
<path fill-rule="evenodd" clip-rule="evenodd" d="M16 0.199707C7.16344 0.199707 0 7.36315 0 16.1997C0 25.0363 7.16344 32.1997 16 32.1997C24.8366 32.1997 32 25.0363 32 16.1997C32 7.36315 24.8366 0.199707 16 0.199707ZM15.4375 23.6997H10.1875C9.25751 23.6997 8.5 22.9422 8.5 22.0122V10.3872C8.5 9.45721 9.25751 8.69971 10.1875 8.69971H21.8125C22.7425 8.69971 23.5 9.45721 23.5 10.3872V15.6372C23.5 15.9478 23.2481 16.1997 22.9375 16.1997C22.627 16.1997 22.375 15.9478 22.375 15.6372V10.3872C22.375 10.0774 22.1223 9.82471 21.8125 9.82471H10.1875C9.87769 9.82471 9.625 10.0774 9.625 10.3872V22.0122C9.625 22.322 9.87769 22.5747 10.1875 22.5747H15.4375C15.748 22.5747 16 22.8267 16 23.1372C16 23.4478 15.748 23.6997 15.4375 23.6997ZM23.5705 22.2072L20.86 19.4967L22.7994 18.7489C22.9421 18.6934 23.0342 18.5539 23.0298 18.4001C23.0237 18.2472 22.9218 18.1152 22.7747 18.0701L16.3622 16.1202C16.2362 16.0827 16.0976 16.1157 16.0038 16.2101C15.9101 16.3032 15.8762 16.4427 15.9138 16.5687L17.8638 22.9812C17.9087 23.1275 18.0414 23.2288 18.1938 23.2361H18.2088C18.3558 23.2361 18.4893 23.1447 18.5424 23.0052L19.2902 21.0657L22 23.7762C22.1463 23.9216 22.3854 23.9216 22.531 23.7762L23.5705 22.7368C23.7161 22.5905 23.7161 22.3519 23.5705 22.2072Z"/>
</svg>
