<svg xmlns="http://www.w3.org/2000/svg" width="24" height="24" viewBox="0 0 24 24">
    <path id="bounds" opacity="0" d="M0 0h24v24H0z"/>
    <path fill="#9C63FA" d="M3.558 14.713c-.16-.53-.716-.83-1.245-.67-.53.16-.83.716-.67 1.245C2.963 19.69 7.038 23 12 23s9.037-3.31 10.358-7.713c.16-.53-.142-1.087-.67-1.245s-1.086.14-1.245.67C19.363 18.31 16.038 21 12 21c-4.038 0-7.363-2.69-8.442-6.287z"/>
    <path fill="#9C63FA" d="M12 1.25c-3.866 0-7 3.134-7 7v4c0 3.866 3.134 7 7 7s7-3.134 7-7v-4c0-3.866-3.134-7-7-7zM9.75 11.5c0 .414-.336.75-.75.75s-.75-.336-.75-.75V9c0-.414.336-.75.75-.75s.75.336.75.75v2.5zm3 1c0 .414-.336.75-.75.75s-.75-.336-.75-.75V8c0-.414.336-.75.75-.75s.75.336.75.75v4.5zm3-1c0 .414-.336.75-.75.75s-.75-.336-.75-.75V9c0-.414.336-.75.75-.75s.75.336.75.75v2.5z"/>
</svg>
