<svg xmlns="http://www.w3.org/2000/svg" width="24" height="24" viewBox="0 0 24 24">
    <path id="bounds" opacity="0" d="M0 0h24v24H0z"/>
    <path fill="#794BC4" d="M23.37 11.232l-6.045-2.237L15.07 1.6c-.088-.286-.352-.482-.65-.482-.298 0-.562.195-.65.48l-2.255 7.397-6.045 2.237c-.267.1-.443.353-.443.637 0 .283.177.537.443.636l6.04 2.236 2.258 7.62c.085.29.35.487.65.487.3 0 .567-.2.652-.487l2.257-7.62 6.04-2.237c.267-.098.444-.353.444-.637.002-.286-.175-.54-.44-.638z"/>
    <path fill="#1DA1F2" d="M8.553 4.26l-2.68-.87L4.87.504C4.834.393 4.717.317 4.584.317c-.132 0-.25.076-.288.188l-1 2.884-2.682.87c-.118.04-.196.14-.196.25 0 .11.078.21.197.248l2.68.872 1 2.972c.04.112.156.19.29.19.133 0 .25-.077.29-.19l1-2.972 2.68-.872c.117-.038.196-.137.196-.248 0-.11-.08-.21-.197-.25z"/>
    <path fill="#FFAD1F" d="M9.36 19.32l-2.04-.724-.76-2.397c-.03-.094-.12-.157-.22-.157s-.19.063-.22.156l-.76 2.396-2.04.725c-.09.033-.15.115-.15.207 0 .092.06.175.15.206l2.038.725.762 2.47c.03.094.118.158.22.158.1 0 .19-.064.22-.158l.762-2.47 2.04-.725c.09-.032.15-.114.15-.206-.002-.092-.06-.174-.15-.206z"/>
</svg>
