<svg xmlns="http://www.w3.org/2000/svg" width="24" height="24" viewBox="0 0 24 24">
    <path id="bounds" opacity="0" d="M0 0h24v24H0z"/>
    <path fill="#FFAD1F" d="M12 22.75C6.072 22.75 1.25 17.928 1.25 12S6.072 1.25 12 1.25 22.75 6.072 22.75 12 17.928 22.75 12 22.75z"/>
    <path fill="#14171A" d="M12 16.3c-.6 0-1.1.5-1.1 1.1 0 .6.5 1.1 1.1 1.1.6 0 1.1-.5 1.1-1.1 0-.6-.5-1.1-1.1-1.1zm0-10.6c-2.3 0-4.2 1.9-4.2 4.2 0 .4.3.8.8.8s.8-.3.8-.8c0-1.5 1.2-2.7 2.7-2.7 1.5 0 2.7 1.2 2.7 2.7 0 1.5-1.2 2.7-2.7 2.7-.4 0-.8.3-.8.8v1.1c0 .4.3.8.8.8s.8-.3.8-.8v-.4c2-.4 3.4-2.1 3.4-4.1-.2-2.4-2-4.3-4.3-4.3z"/>
</svg>
