<svg xmlns="http://www.w3.org/2000/svg" width="24" height="24" viewBox="0 0 24 24">
    <path id="bounds" opacity="0" d="M0 0h24v24H0z"/>
    <path fill="#E0245E" d="M8.18 5.317c-.067.067-.118.148-.16.236l-.006-.005-6.722 15.145.006.006c-.125.24.084.732.51 1.16.428.427.92.636 1.16.51l.007.007 15.145-6.722-.005-.005c.088-.042.17-.093.237-.16.937-.937-.582-3.973-3.39-6.782-2.81-2.81-5.845-4.328-6.782-3.39z"/>
    <path fill="#A01744" d="M15.005 8.66c2.8 2.8 4.353 5.785 3.47 6.668-.883.883-3.868-.67-6.67-3.47-2.8-2.8-4.352-5.786-3.47-6.67.884-.882 3.87.672 6.67 3.472z"/>
    <path fill="#FFAD1F" d="M15.186 12.756c-.176 0-.35-.077-.47-.225-.206-.258-.164-.635.095-.842.132-.105 3.25-2.553 7.653-1.923.328.047.556.35.51.678-.048.328-.35.557-.68.508-3.89-.552-6.705 1.652-6.732 1.674-.11.09-.243.132-.374.132z"/>
    <path fill="#794BC4" d="M20.177 14.654c1.182-.334 1.998.194 2.193.886.194.692-.227 1.568-1.408 1.9-.46.13-.6.35-.58.42.02.07.254.187.714.057 1.182-.332 1.998.195 2.192.887.196.692-.227 1.567-1.41 1.9-.46.13-.6.35-.58.42.02.07.254.187.716.058.318-.09.65.096.74.414.088.32-.098.65-.417.74-1.18.332-1.998-.194-2.193-.887-.194-.693.227-1.567 1.41-1.9.46-.13.6-.35.58-.42-.02-.07-.253-.188-.714-.058-1.183.333-1.998-.193-2.193-.886-.195-.692.227-1.566 1.41-1.9.46-.13.6-.35.58-.42-.02-.07-.253-.187-.715-.057-.32.09-.65-.097-.74-.415-.09-.32.096-.652.415-.74zM3.864 10.42c-.057 0-.115-.01-.173-.026-.316-.096-.496-.43-.4-.747.68-2.262 1.295-5.87.54-6.812-.087-.106-.214-.21-.507-.19-.563.044-.51 1.23-.508 1.242.025.33-.223.618-.553.643-.335.02-.618-.223-.642-.553-.062-.827.195-2.42 1.613-2.526.633-.047 1.16.173 1.53.635 1.42 1.77-.02 6.897-.325 7.907-.078.26-.317.427-.574.427z"/>
    <circle fill="#FFAD1F" cx="1.826" cy="12.857" r="1.076"/>
    <circle fill="#E0245E" cx="17.702" cy="6.814" r=".899"/>
    <circle fill="#DF235F" cx="15.628" cy="20.377" r="1.064"/>
    <circle fill="#FFAD1F" cx="21.878" cy="5.9" r="1.004"/>
    <circle fill="#E0245E" cx="18.458" cy="2.733" r="1.199"/>
    <path fill="#FFAD1F" d="M12.313 8.463c-.12.096-.275.147-.44.13-.52-.057-.958-.238-1.264-.524-.325-.304-.485-.71-.442-1.117.077-.714.794-1.37 2.016-1.238.476.05.688-.102.695-.175.007-.073-.167-.268-.642-.32-.52-.055-.958-.236-1.265-.522-.324-.303-.485-.71-.44-1.116.078-.715.794-1.37 2.015-1.238.347.037.53-.034.606-.08.062-.04.087-.075.09-.096.006-.072-.166-.267-.643-.32-.328-.035-.567-.33-.53-.66.035-.328.33-.566.66-.53 1.22.13 1.782.924 1.705 1.64-.077.714-.794 1.37-2.016 1.237-.347-.038-.53.034-.607.08-.06.037-.087.074-.09.094-.007.072.167.267.643.318 1.22.132 1.782.925 1.705 1.64-.076.715-.793 1.37-2.014 1.238-.347-.037-.53.035-.606.08-.062.04-.086.075-.088.096-.008.073.166.267.642.32.33.035.568.33.53.66-.02.163-.102.304-.22.4z"/>
</svg>
