<svg xmlns="http://www.w3.org/2000/svg" width="24" height="24" viewBox="0 0 24 24">
    <path id="bounds" opacity="0" d="M0 0h24v24H0z"/>
    <path fill="#1DA1F2" d="M12 1.75c-.138 0-.276.038-.398.114-.044.028-4.515 2.8-9.21 3.494-.362.053-.632.358-.642.723-.003.118-.188 11.742 9.938 16.353.1.045.206.067.312.067V1.75z"/>
    <path fill="#78C6EE" d="M12 1.75c.138 0 .276.038.398.114.044.028 4.515 2.8 9.21 3.494.362.053.632.358.64.723.004.118.19 11.742-9.937 16.353-.098.045-.204.067-.31.067V1.75z"/>
</svg>
