<svg xmlns="http://www.w3.org/2000/svg" width="24" height="24" viewBox="0 0 24 24">
    <path id="bounds" opacity="0" d="M0 0h24v24H0z"/>
    <path d="M6.52 16.65c2.4-1.413 4.127-2.593 5.18-3.54.667-.587 1.14-1.153 1.42-1.7.293-.56.44-1.167.44-1.82 0-.627-.147-1.107-.44-1.44-.293-.347-.727-.52-1.3-.52s-1.027.173-1.36.52c-.32.347-.48.827-.48 1.44 0 .347.047.707.14 1.08l-3.52-.32c-.067-.4-.1-.753-.1-1.06 0-.88.22-1.647.66-2.3.453-.653 1.093-1.153 1.92-1.5.827-.36 1.793-.54 2.9-.54 1.653 0 2.94.38 3.86 1.14.933.76 1.4 1.833 1.4 3.22 0 .92-.2 1.78-.6 2.58-.4.8-1.013 1.553-1.84 2.26-.88.747-2.067 1.513-3.56 2.3h6.14v2.7H6.52v-2.5z"/>
</svg>
