<svg xmlns="http://www.w3.org/2000/svg" width="24" height="24" viewBox="0 0 24 24">
    <path id="bounds" opacity="0" d="M0 0h24v24H0z"/>
    <path d="M12.08 19.3c-1.733 0-3.107-.387-4.12-1.16-1-.787-1.507-1.853-1.52-3.2l3.5-.34c.013.653.207 1.167.58 1.54.387.36.907.54 1.56.54.64 0 1.127-.16 1.46-.48.333-.32.5-.767.5-1.34 0-1.16-.78-1.74-2.34-1.74h-.78v-2.3h.76c.68 0 1.193-.153 1.54-.46.36-.307.54-.74.54-1.3 0-.547-.16-.96-.48-1.24-.307-.293-.747-.44-1.32-.44-.627 0-1.113.187-1.46.56-.347.373-.52.9-.52 1.58L6.56 9.1c0-.867.227-1.627.68-2.28.453-.653 1.1-1.153 1.94-1.5.84-.347 1.827-.52 2.96-.52 1.653 0 2.927.333 3.82 1 .907.667 1.36 1.613 1.36 2.84 0 .787-.26 1.467-.78 2.04s-1.207.953-2.06 1.14c1.04.147 1.827.5 2.36 1.06.547.56.82 1.307.82 2.24 0 .84-.227 1.58-.68 2.22-.453.627-1.107 1.113-1.96 1.46-.84.333-1.82.5-2.94.5z"/>
</svg>
