<?xml version="1.0" encoding="UTF-8"?>
<svg xmlns="http://www.w3.org/2000/svg" width="24" height="24" viewBox="0 0 24 24">
    <path d="M2 5.5C2 4.12 3.12 3 4.5 3H11v2H4.5c-.28 0-.5.22-.5.5v13c0 .28.22.5.5.5h15c.27 0 .5-.22.5-.5V12h2v6.5c0 1.38-1.12 2.5-2.5 2.5h-15C3.12 21 2 19.88 2 18.5v-13Zm20.31-.28-6.33 7.18c-.2 2.02-1.91 3.6-3.98 3.6H8v-4c0-2.07 1.58-3.78 3.6-3.98l7.18-6.33c.99-.88 2.49-.83 3.43.1.93.94.98 2.44.1 3.43ZM14 12c0-1.1-.9-2-2-2-1.11 0-2 .9-2 2v2h2c1.1 0 2-.9 2-2Zm6.79-8.79c-.19-.19-.49-.2-.69-.02l-6.08 5.36c.59.35 1.08.84 1.43 1.43l5.36-6.08c.18-.2.17-.5-.02-.69Z"/>
</svg>
