<svg xmlns="http://www.w3.org/2000/svg" width="90" height="24" viewBox="0 0 90 24">
    <path id="bounds" opacity="0" d="M0 0h90v24H0V0z"/>
    <path d="M6.57 2.094c-.289.16-.718.469-.937.668l-.414.36V1.983h-2.7v14.258h2.7v-5.055l.828.598c.758.524.937.574 2.195.574 1.567 0 2.434-.359 3.387-1.386 1.078-1.137 1.402-2.04 1.422-3.844 0-1.281-.074-1.805-.38-2.457-.433-.938-1.421-2-2.284-2.453-.828-.434-3.114-.504-3.817-.125zM9.38 4.78c.52.469 1.062 1.66 1.062 2.348 0 .758-.613 1.984-1.152 2.344-.27.18-.812.363-1.242.398-2.684.305-3.996-2.96-2-4.96.594-.598.648-.618 1.781-.544.813.055 1.262.18 1.55.414zm7.793-2.543c-1.117.524-2.125 1.66-2.52 2.867-.468 1.391-.289 3.555.395 4.801 1.277 2.383 4.195 3.211 6.39 1.86l.883-.559v1.063h2.52V1.984h-2.52v1.137l-.414-.379c-1.082-1.012-3.168-1.246-4.734-.504zm3.996 2.434c1.117.687 1.531 2.746.793 3.953-1.441 2.363-4.879 1.3-4.86-1.496.016-1.066.45-1.95 1.188-2.438.7-.468 2.121-.488 2.879-.02zm9.793-2.668c-.234.105-.703.379-1.027.629l-.594.453V1.984h-2.52v14.258h2.7v-5.09l.539.47c2.015 1.694 5.472.687 6.77-2.005.413-.847.503-1.246.503-2.472 0-2.344-.953-4.004-2.863-4.907-.973-.468-2.664-.578-3.508-.234zm2.465 2.687c.863.524 1.187 1.282 1.097 2.653-.07 1.027-.144 1.21-.718 1.804-.559.559-.813.668-1.621.743-.793.05-1.063 0-1.582-.364-1.586-1.062-1.696-3.445-.2-4.71.739-.614 2.125-.684 3.024-.126zm8.37-2.671c-.937.328-2.269 1.644-2.753 2.707-.633 1.445-.594 3.484.07 4.875.29.574.848 1.316 1.262 1.675 1.602 1.371 4.102 1.536 5.508.364.664-.579.738-.563.738.09v.539h2.52V1.984h-2.52v1.082l-.828-.593c-.723-.504-.973-.578-2.105-.614-.723-.02-1.567.055-1.891.16zm3.763 2.796c2.554 2.149.16 6.247-2.829 4.82-1.78-.847-1.886-3.917-.195-4.945.899-.558 2.285-.488 3.024.125zm8.08-2.775c-1.028.324-2.395 1.84-2.774 3.086-.629 2.004-.09 4.438 1.278 5.738 1.585 1.496 4.32 1.625 5.796.27l.434-.395-.09.953c-.219 2.204-2.574 3.016-5.258 1.79l-.933-.434-.489 1.062-.468 1.067.578.344c.324.199 1.168.488 1.906.648 3.527.793 6.445-.559 7.219-3.32.11-.38.18-2.852.18-5.774v-5.09H58.5v.543c0 .614-.2.684-.559.235-.703-.832-2.808-1.192-4.3-.723zm3.78 2.652c1.438 1.028 1.403 3.63-.073 4.532-.883.539-2.27.468-3.004-.145-1.082-.922-1.317-2.113-.688-3.45.688-1.405 2.485-1.858 3.766-.937zm8.587-2.632c-1.656.593-2.953 1.964-3.387 3.625-.27.976-.105 2.726.324 3.718.45.993 1.457 2.004 2.559 2.528 1.203.593 3.527.593 4.785.015 2-.918 3.043-2.597 3.043-4.906 0-1.047-.11-1.555-.414-2.203-.938-1.95-2.754-3.031-5.023-3.031-.665.02-1.512.125-1.887.254zm3.273 2.523c1.008.543 1.586 2.004 1.262 3.27-.648 2.433-3.852 2.832-4.969.628-.738-1.425-.394-2.921.828-3.734.72-.488 2.106-.559 2.88-.164zm0 0"/>
</svg>