<?xml version="1.0" encoding="UTF-8"?>
<svg xmlns="http://www.w3.org/2000/svg" width="24" height="24" viewBox="0 0 24 24">
    <path d="M6.662 18H.846l.075-1.069C1.33 11.083 4.335 9 7.011 9c1.416 0 2.66.547 3.656 1.53-1.942 1.373-3.513 3.758-4.004 7.47ZM7 8c1.657 0 3-1.346 3-3S8.657 2 7 2 4 3.346 4 5s1.343 3 3 3Zm10.616 1.27C18.452 8.63 19 7.632 19 6.5 19 4.57 17.433 3 15.5 3S12 4.57 12 6.5c0 1.132.548 2.13 1.384 2.77.589.451 1.317.73 2.116.73s1.527-.279 2.116-.73ZM8.501 19.972l-.029 1.027h14.057l-.029-1.027c-.184-6.618-3.736-8.977-7-8.977s-6.816 2.358-7 8.977Z"/>
</svg>
