<?xml version="1.0" encoding="UTF-8"?>
<svg xmlns="http://www.w3.org/2000/svg" width="24" height="24" viewBox="0 0 24 24">
    <path d="M3.03 16h4.225c-.169.616-.295 1.288-.389 2H.846l.075-1.069c.313-4.485 2.155-6.75 4.203-7.564l1.66 1.66c-1.949.134-3.313 1.94-3.754 4.974ZM12 6.5C12 4.57 13.567 3 15.5 3S19 4.57 19 6.5c0 1.111-.53 2.092-1.34 2.733-.596.472-1.341.767-2.16.767-.778 0-1.49-.263-2.071-.693C12.566 8.669 12 7.653 12 6.5Zm2 0c0 .827.673 1.5 1.5 1.5S17 7.327 17 6.5 16.327 5 15.5 5 14 5.673 14 6.5ZM22.528 21H22l-1.207 1.207-19-19 1.414-1.414L4.614 3.2C5.162 2.476 6.022 2 7 2c1.657 0 3 1.346 3 3 0 .977-.475 1.838-1.2 2.386l2.726 2.726 1.412 1.412c.83-.359 1.706-.527 2.562-.527 3.264 0 6.816 2.358 7 8.977l.029 1.027ZM8 5c0-.551-.448-1-1-1-.43 0-.789.275-.93.656l1.275 1.275c.381-.142.656-.501.656-.93Zm12.414 14h.023c-.367-3.781-2.17-6.004-4.938-6.004-.344 0-.674.035-.987.102l5.901 5.901Zm-9.852 0c.127-1.303.435-2.406.883-3.312l-1.492-1.492c-.833 1.387-1.384 3.277-1.453 5.777L8.471 21h8.286l-2-2h-4.195Z"/>
</svg>
