<?xml version="1.0" encoding="UTF-8"?>
<svg xmlns="http://www.w3.org/2000/svg" width="24" height="24" viewBox="0 0 24 24">
    <path d="M5.73 12.02c-.024.035-.051.069-.08.1-1.285 1.727-2.117 3.749-2.42 5.88H.65l.1-1.09c.069-1.283.542-2.511 1.35-3.51.792-.909 1.945-1.422 3.15-1.4.16 0 .32.01.48.02ZM23.35 18l-.1-1.09c-.069-1.283-.542-2.511-1.35-3.51-.792-.909-1.945-1.422-3.15-1.4-.16 0-.32.01-.48.02.08.1.16.2.24.31 1.196 1.682 1.971 3.627 2.26 5.67h2.58ZM12 11c-1.876-.009-3.647.865-4.78 2.36-1.363 1.924-2.135 4.204-2.22 6.56L4.92 21h14.16L19 19.92c-.086-2.283-.81-4.497-2.09-6.39-1.126-1.594-2.959-2.538-4.91-2.53Zm0-8c-1.933 0-3.5 1.567-3.5 3.5S10.067 10 12 10s3.5-1.567 3.5-3.5S13.933 3 12 3ZM5.25 5.5C3.731 5.5 2.5 6.731 2.5 8.25S3.731 11 5.25 11 8 9.769 8 8.25c.001-1.518-1.228-2.749-2.746-2.75H5.25Zm13.5 0C17.231 5.5 16 6.731 16 8.25S17.231 11 18.75 11s2.75-1.231 2.75-2.75c.001-1.518-1.228-2.749-2.746-2.75h-.004Z"/>
</svg>
