<?xml version="1.0" encoding="UTF-8"?>
<svg xmlns="http://www.w3.org/2000/svg" width="24" height="24" viewBox="0 0 24 24">
    <path d="M12 5c-.828 0-1.5.672-1.5 1.5S11.172 8 12 8s1.5-.672 1.5-1.5S12.828 5 12 5ZM8.5 6.5C8.5 4.567 10.067 3 12 3s3.5 1.567 3.5 3.5S13.933 10 12 10 8.5 8.433 8.5 6.5Zm-3.25 1c-.414 0-.75.336-.75.75s.336.75.75.75.75-.336.75-.75c-.003-.413-.337-.747-.75-.75Zm-2.75.75c0-1.519 1.231-2.75 2.75-2.75S8 6.731 8 8.25 6.769 11 5.25 11c-1.518.001-2.749-1.228-2.75-2.746V8.25Zm16.25-.75c-.414 0-.75.336-.75.75s.336.75.75.75.75-.336.75-.75c-.003-.413-.337-.747-.75-.75ZM16 8.25c0-1.519 1.231-2.75 2.75-2.75s2.75 1.231 2.75 2.75S20.269 11 18.75 11c-1.518.001-2.749-1.228-2.75-2.746V8.25ZM12 13c-1.269-.01-2.467.588-3.22 1.61-.923 1.296-1.495 2.808-1.66 4.39h9.76c-.167-1.533-.706-3.002-1.57-4.28-.751-1.085-1.99-1.729-3.31-1.72Zm-4.78.36c2.024-2.641 5.806-3.141 8.447-1.117.476.365.895.799 1.243 1.287 1.28 1.893 2.004 4.107 2.09 6.39l.08 1.08H4.92L5 19.92c.085-2.356.857-4.636 2.22-6.56ZM2.95 16c.124-.47.35-.906.66-1.28.409-.476 1.013-.741 1.64-.72v-2c-1.205-.022-2.358.491-3.15 1.4-.808.999-1.281 2.227-1.35 3.51L.65 18H4v-2H2.95Zm18.95-2.6c.808.999 1.281 2.227 1.35 3.51l.1 1.09H20v-2h1.05c-.124-.47-.35-.906-.66-1.28-.409-.476-1.013-.741-1.64-.72v-2c1.205-.022 2.358.491 3.15 1.4Z"/>
</svg>
