<svg xmlns="http://www.w3.org/2000/svg" width="24" height="24" viewBox="0 0 24 24">
    <path id="bounds" opacity="0" d="M0 0h24v24H0z"/>
    <path d="M12.13 1.5c-4.684 0-8.387 4.316-8.387 9.055 0 4.95 6.51 11.945 8.386 11.945 1.642 0 8.152-7.383 8.152-12.334 0-4.74-3.702-8.666-8.153-8.666zm.026 13.17c-2.924 0-5.178-2.232-5.178-4.84 0-1.217.402-2.313 1.08-3.178v.01c0 1.08.884 1.958 1.976 1.958s1.977-.877 1.977-1.958c0-.8-.486-1.488-1.182-1.79.422-.106.865-.168 1.327-.168 2.636 0 4.89 2.23 4.89 5.126 0 2.61-2.252 4.84-4.89 4.84z"/>
</svg>
