<svg xmlns="http://www.w3.org/2000/svg" width="17" height="21" viewBox="0 0 17 21">
    <path d="M14.637 12.448c-.82-.62-1.846-.555-2.463.14-.983 1.104-2.39 1.74-3.86 1.74-1.413 0-2.732-.563-3.717-1.585-.328-.34-.712-.512-1.144-.512-.437 0-.826.19-1.155.363C.816 13.38 0 15.068 0 17.353c0 .342.02.682.06 1.02.08.667.54 1.238 1.173 1.455C3.51 20.605 5.89 21 8.313 21c2.574 0 5.1-.445 7.5-1.323.63-.23 1.08-.81 1.146-1.478.026-.28.04-.563.04-.847 0-2.062-.795-3.712-2.363-4.905z"/>
    <path d="M8.5 13c2.665 0 4.833-2.223 4.833-4.956V4.956C13.333 2.223 11.165 0 8.5 0S3.667 2.223 3.667 4.956v3.09C3.667 10.775 5.835 13 8.5 13z"/>
</svg>
