<?xml version="1.0" encoding="UTF-8"?>
<svg xmlns="http://www.w3.org/2000/svg" width="24" height="24" viewBox="0 0 24 24">
    <path d="M12 1.75C6.339 1.75 1.75 6.34 1.75 12S6.339 22.25 12 22.25 22.25 17.66 22.25 12 17.661 1.75 12 1.75Zm.049 4.013c1.243 0 2.251 1.008 2.251 2.251s-1.008 2.251-2.251 2.251-2.251-1.008-2.251-2.251 1.008-2.251 2.251-2.251ZM7.208 17l.062-.613c.152-1.497.647-2.752 1.48-3.635 1.114-1.189 2.485-1.374 3.299-1.374s2.185.185 3.299 1.374c.833.883 1.328 2.138 1.48 3.635l.062.613H7.208Z"/>
</svg>
