<?xml version="1.0" encoding="UTF-8"?>
<svg xmlns="http://www.w3.org/2000/svg" width="24" height="24" viewBox="0 0 24 24">
    <path d="M10 4c-1.105 0-2 .9-2 2s.895 2 2 2 2-.9 2-2-.895-2-2-2ZM6 6c0-2.21 1.791-4 4-4s4 1.79 4 4-1.791 4-4 4-4-1.79-4-4ZM3.651 19h12.698c-.337-1.8-1.023-3.21-1.945-4.19C13.318 13.65 11.838 13 10 13s-3.317.65-4.404 1.81c-.922.98-1.608 2.39-1.945 4.19Zm.486-5.56C5.627 11.85 7.648 11 10 11s4.373.85 5.863 2.44c1.477 1.58 2.366 3.8 2.632 6.46l.11 1.1H1.395l.11-1.1c.266-2.66 1.155-4.88 2.632-6.46Zm19.417-3.68c-.541.97-1.601 1.99-3.352 2.98l-.201.12-.202-.12c-1.751-.99-2.811-2.01-3.352-2.98-.545-.97-.564-1.88-.206-2.59.355-.69 1.059-1.13 1.84-1.17.661-.03 1.348.22 1.92.79.571-.57 1.258-.82 1.918-.79.781.04 1.485.48 1.84 1.17.358.71.339 1.62-.205 2.59Z"/>
</svg>
