<?xml version="1.0" encoding="UTF-8"?>
<svg xmlns="http://www.w3.org/2000/svg" width="24" height="24" viewBox="0 0 24 24">
    <path d="M18.914 13.207c-.755-.756-2.073-.756-2.828 0l-2.499 2.499c-2.611-1.113-4.664-3.33-5.569-6.019l2.774-2.773c.779-.779.779-2.049 0-2.828L8.894 2.188c-.767-.768-2.023-.778-2.8-.021C2.52 5.64 2.518 5.711 2.509 5.975c-.006.175-.009.351-.009.526 0 7.781 6.07 14.35 13.819 14.954.047.004.095.006.142.006.502 0 .991-.205 1.36-.575l2.971-2.971c.779-.779.779-2.049 0-2.828l-1.879-1.879Z"/>
</svg>
