<?xml version="1.0" encoding="UTF-8"?>
<svg xmlns="http://www.w3.org/2000/svg" width="24" height="24" viewBox="0 0 24 24">
    <path d="M20 8h2v4h-2V8ZM10 4V2H8c-1.103 0-2 .897-2 2h4Zm10 12v2c1.103 0 2-.897 2-2v-2h-2v2Zm-2-7.5v11c0 1.379-1.122 2.5-2.5 2.5h-11C3.122 22 2 20.879 2 19.5v-11C2 7.121 3.122 6 4.5 6h11C16.878 6 18 7.121 18 8.5ZM10.83 20 6.9 15.42l-2.899 2.53v1.55c0 .275.224.5.5.5h6.33ZM16 8.5c0-.275-.224-.5-.5-.5h-11c-.276 0-.5.225-.5.5v6.796l3.104-2.708L13.465 20H15.5c.276 0 .5-.225.5-.5v-11ZM14 12c0 1.103-.897 2-2 2s-2-.897-2-2 .897-2 2-2 2 .897 2 2Zm-1.709-8.959L14.077 1l.771-.881h1.699v2.859h.857v1.054h-.857v.969h-1.538v-.969h-2.718v-.99Zm1.397-.063h1.362V1.833c0-.206.007-.372.021-.499h-.021c-.061.136-.183.302-.365.499l-.625.779c-.122.146-.246.267-.372.365ZM20.219 5V3.715l.632-.667L22.108 5h1.826l-1.952-2.971L22.943 1l.921-.986h-1.847L21.109 1l-.889.966V.014h-1.601V5h1.601Z"/>
</svg>
