<?xml version="1.0" encoding="UTF-8"?>
<svg xmlns="http://www.w3.org/2000/svg" width="24" height="24" viewBox="0 0 24 24">
    <path d="M12 6.5c-2.07 0-3.75 1.68-3.75 3.75S9.93 14 12 14s3.75-1.68 3.75-3.75S14.07 6.5 12 6.5Zm0 5.5c-.97 0-1.75-.78-1.75-1.75S11.03 8.5 12 8.5s1.75.78 1.75 1.75S12.97 12 12 12Zm7.5-10h-15C3.122 2 2 3.122 2 4.5v15C2 20.878 3.122 22 4.5 22h15c1.378 0 2.5-1.122 2.5-2.5v-15C22 3.122 20.878 2 19.5 2ZM7.02 20c.995-1.83 2.855-3 4.98-3s3.984 1.17 4.98 3H7.02ZM20 19.5c0 .276-.224.5-.5.5h-.329c-1.157-3.013-3.937-5-7.171-5s-6.014 1.987-7.171 5H4.5c-.276 0-.5-.224-.5-.5v-15c0-.276.224-.5.5-.5h15c.276 0 .5.224.5.5v15Z"/>
</svg>
