<?xml version="1.0" encoding="UTF-8"?>
<svg xmlns="http://www.w3.org/2000/svg" width="24" height="24" viewBox="0 0 24 24">
    <path d="M21.04 1.54 17.5 5.09c-.04-.02-.08-.03-.13-.04L14.3 3H9.7l-3 2H5C3.62 5 2.5 6.12 2.5 7.5v11c0 .46.12.88.34 1.25l-1.3 1.29 1.42 1.42 19.5-19.5-1.42-1.42ZM13.7 5l2.33 1.56-2 1.99C13.44 8.2 12.74 8 12 8c-2.21 0-4 1.79-4 4 0 .74.2 1.44.55 2.03L4.5 18.09V7.5c0-.28.22-.5.5-.5h2.3l3-2h3.4ZM12 10c.18 0 .35.02.52.07l-2.45 2.45c-.05-.17-.07-.34-.07-.52 0-1.1.9-2 2-2Zm7 11H7.24l2-2H19c.28 0 .5-.22.5-.5V9h2v9.5c0 1.38-1.12 2.5-2.5 2.5Z"/>
</svg>
