<?xml version="1.0" encoding="UTF-8"?>
<svg xmlns="http://www.w3.org/2000/svg" width="24" height="24" viewBox="0 0 24 24">
    <path d="M12 4h4V2h-4v2Zm6 0h1.5c.28 0 .5.22.5.5V6h2V4.5C22 3.12 20.88 2 19.5 2H18v2ZM4.5 6C3.12 6 2 7.12 2 8.5v11C2 20.88 3.12 22 4.5 22h11c1.38 0 2.5-1.12 2.5-2.5v-11C18 7.12 16.88 6 15.5 6h-11ZM4 8.5c0-.28.22-.5.5-.5h11c.28 0 .5.22.5.5v11c0 .28-.22.5-.5.5h-2.04L7.1 12.58 4 15.3V8.5Zm2.9 6.92L10.83 20H4.5c-.28 0-.5-.22-.5-.5v-1.55l2.9-2.53ZM22 8h-2v4h2V8ZM8 2c-1.1 0-2 .9-2 2h4V2H8Zm6 10c0 1.1-.9 2-2 2s-2-.9-2-2 .9-2 2-2 2 .9 2 2Zm6 2h2v2c0 1.1-.9 2-2 2v-4Z"/>
</svg>
