<?xml version="1.0" encoding="UTF-8"?>
<svg xmlns="http://www.w3.org/2000/svg" width="24" height="24" viewBox="0 0 24 24">
    <path d="M12 3.75c-2.192 0-4.184.854-5.663 2.25H8v2H3V3h2v1.513C6.831 2.8 9.293 1.75 12 1.75c4.075 0 7.592 2.378 9.244 5.817l-1.803.866C18.11 5.661 15.277 3.75 12 3.75Zm-1.768 4.604c.977-.977 2.559-.977 3.536 0l4.878 4.878c.977.977.977 2.559 0 3.536l-4.878 4.878c-.977.977-2.559.977-3.536 0l-4.878-4.878c-.977-.977-.977-2.559 0-3.536l4.878-4.878Zm2.122 1.414c-.196-.195-.512-.195-.708 0l-4.878 4.878c-.195.196-.195.512 0 .708l4.878 4.878c.196.195.512.195.708 0l4.878-4.878c.195-.196.195-.512 0-.708l-4.878-4.878Z"/>
</svg>
