<?xml version="1.0" encoding="UTF-8"?>
<svg xmlns="http://www.w3.org/2000/svg" width="24" height="24" viewBox="0 0 24 24">
    <path d="M12 1.5c1.808 0 3.51.46 4.995 1.26l-1.491 1.49C14.435 3.77 13.249 3.5 12 3.5c-4.694 0-8.5 3.81-8.5 8.5 0 1.25.269 2.44.753 3.5L2.762 17C1.957 15.51 1.5 13.81 1.5 12 1.5 6.2 6.201 1.5 12 1.5Zm0 19c-1.249 0-2.435-.27-3.504-.75l-1.491 1.49c1.485.8 3.187 1.26 4.995 1.26 5.799 0 10.5-4.7 10.5-10.5 0-1.81-.457-3.51-1.262-5l-1.491 1.5c.484 1.06.753 2.25.753 3.5 0 4.69-3.806 8.5-8.5 8.5Zm8.5-18.41L15.086 7.5 16.5 8.91l5.414-5.41L20.5 2.09Zm-4 9.91-7-4.45v8.9l7-4.45Zm-13 9.91L8.414 17 7 15.59 2.086 20.5 3.5 21.91Z"/>
</svg>
