<svg xmlns="http://www.w3.org/2000/svg" width="24" height="24" viewBox="0 0 24 24">
    <path id="bounds" opacity="0" d="M0 0h24v24H0z"/>
    <path d="M17.928 9.026l.095 3.545H19l.1-3.544h-1.172zm.586 5.394c.414 0 .667-.238.667-.623 0-.388-.252-.626-.666-.626-.41 0-.667.24-.667.627 0 .385.257.623.667.623zM13.944 14.31h.813l.278-1.384h.89l.15-.813h-.883l.198-.96h.875l.15-.805h-.864l.268-1.326h-.813l-.27 1.326h-.946l.263-1.326h-.81l-.27 1.326h-.846l-.154.806h.846l-.2.96h-.83l-.15.812h.824l-.278 1.384h.81l.277-1.384h.952l-.28 1.384zm-.578-2.124l.227-1.102h1.055l-.23 1.102h-1.052zM7.477 11.245c.388 0 .634.32.634.835s-.244.835-.636.835c-.385 0-.615-.315-.615-.835-.002-.524.23-.835.617-.835zM7.595 9C5.763 9 4.5 10.245 4.5 12.054c0 1.838 1.25 3.05 3.157 3.05.388 0 .765-.047 1.05-.13v-.598c-.204.073-.603.12-.995.12-1.556 0-2.542-.937-2.542-2.423 0-1.46.985-2.48 2.402-2.48 1.392 0 2.307.865 2.307 2.19 0 .744-.24 1.213-.61 1.213-.222 0-.35-.15-.35-.41v-1.94h-.74v.435h-.065c-.147-.325-.465-.515-.857-.515-.732 0-1.23.604-1.23 1.494 0 .93.505 1.544 1.267 1.544.425 0 .725-.19.88-.56h.065c.08.352.414.57.872.57.886 0 1.44-.728 1.44-1.892C10.55 10.106 9.348 9 7.594 9z"/>
</svg>
