<?xml version="1.0" encoding="UTF-8"?>
<svg xmlns="http://www.w3.org/2000/svg" width="24" height="24" viewBox="0 0 24 24">
    <path d="M14 12c0 1.1-.9 2-2 2s-2-.9-2-2 .9-2 2-2 2 .9 2 2Zm6.94 2.65c.79 2.12.97 4.41-.45 5.84-1.43 1.42-3.72 1.24-5.84.45-.86-.32-1.75-.77-2.65-1.32-.9.55-1.79 1-2.65 1.32-2.12.79-4.41.97-5.84-.45-1.42-1.43-1.24-3.72-.45-5.84.32-.86.77-1.75 1.32-2.65-.55-.9-1-1.79-1.32-2.65-.79-2.12-.97-4.41.45-5.84 1.43-1.42 3.72-1.24 5.84-.45.86.32 1.75.77 2.65 1.32.9-.55 1.79-1 2.65-1.32 2.12-.79 4.41-.97 5.84.45 1.42 1.43 1.24 3.72.45 5.84-.32.86-.77 1.75-1.32 2.65.55.9 1 1.79 1.32 2.65Zm-16-6c.18.49.41 1 .69 1.52.63-.82 1.34-1.63 2.13-2.41.78-.79 1.59-1.5 2.41-2.13-.52-.28-1.03-.51-1.52-.69-1.98-.75-3.19-.54-3.72-.01-.53.53-.74 1.74.01 3.72Zm5.23 9.72c-.82-.63-1.63-1.34-2.41-2.13-.79-.78-1.5-1.59-2.13-2.41-.28.52-.51 1.03-.69 1.52-.75 1.98-.54 3.19-.01 3.72.53.53 1.74.74 3.72-.01.49-.18 1-.41 1.52-.69ZM12 17.23c.94-.67 1.9-1.47 2.83-2.4.93-.93 1.73-1.89 2.4-2.83-.67-.94-1.47-1.9-2.4-2.83-.93-.93-1.89-1.73-2.83-2.4-.94.67-1.9 1.47-2.83 2.4S7.44 11.06 6.77 12c.67.94 1.47 1.9 2.4 2.83s1.89 1.73 2.83 2.4Zm7.06-1.88c-.18-.49-.41-1-.69-1.52-.63.82-1.34 1.63-2.13 2.41-.78.79-1.59 1.5-2.41 2.13.52.28 1.03.51 1.52.69 1.98.75 3.19.54 3.72.01.53-.53.74-1.74-.01-3.72Zm.01-10.42c-.53-.53-1.74-.74-3.72.01-.49.18-1 .41-1.52.69.82.63 1.63 1.34 2.41 2.13.79.78 1.5 1.59 2.13 2.41.28-.52.51-1.03.69-1.52.75-1.98.54-3.19.01-3.72Z"/>
</svg>
