<?xml version="1.0" encoding="UTF-8"?>
<svg xmlns="http://www.w3.org/2000/svg" width="24" height="24" viewBox="0 0 24 24">
    <path d="M22.236 12 2.503 2.133l.527 2.109.002.008.007.031.03.126c.026.112.064.278.109.49.091.425.213 1.035.335 1.767.203 1.216.403 2.752.466 4.336h6.02v2H3.98c-.063 1.583-.263 3.12-.466 4.336-.122.733-.244 1.342-.335 1.767-.046.212-.083.378-.109.49l-.03.126-.007.031-.002.007-.527 2.11L22.236 12Z"/>
    <path d="m2.502 2.133.527 2.109c.009.035.808 3.277.947 6.757h6.023v2H3.977c-.14 3.473-.938 6.722-.947 6.758l-.526 2.108L22.236 12 2.502 2.133Z"/>
</svg>
