<?xml version="1.0" encoding="UTF-8"?>
<svg xmlns="http://www.w3.org/2000/svg" width="24" height="24" viewBox="0 0 24 24">
    <path d="M20.99 2.952 20.94 2h-.95c-5.67 0-9.96 2.542-12.8 6.338-2.82 3.768-4.2 8.741-4.2 13.662h2c0-1.006.06-2.01.19-3H9c4.54 0 8.29-3.357 8.91-7.724.51-.362.98-.808 1.38-1.341 1.26-1.658 1.84-4.03 1.7-6.983ZM17.7 8.727c-.86 1.128-2.11 1.717-3.71 1.717h-1.93v2h1.93c.56 0 1.11-.057 1.63-.172C14.68 15.023 12.07 17 9 17H5.51c.6-2.766 1.7-5.347 3.28-7.463 2.33-3.107 5.71-5.238 10.22-5.508-.03 2.149-.55 3.687-1.31 4.698Z"/>
</svg>
