<?xml version="1.0" encoding="UTF-8"?>
<svg xmlns="http://www.w3.org/2000/svg" width="24" height="24" viewBox="0 0 24 24">
    <path d="M10.883 4H2v8.5h2.255c-.643 1.14-1.66 1.83-2.735 2.51l3.224 5.06c3.139-2 5.335-4.63 6.084-8.37.444-2.21.405-4.55.154-6.81L10.883 4ZM4 10.5V6h5.081c.151 1.84.121 3.64-.213 5.31-.466 2.32-1.519 4.39-3.537 5.96l-1.083-1.7c1.43-1.18 2.662-3.14 2.662-5.07H4ZM21.876 4h-8.882v8.5h2.255c-.644 1.14-1.66 1.83-2.735 2.51l3.224 5.06c3.138-2 5.334-4.63 6.083-8.37.444-2.21.406-4.55.154-6.81L21.876 4Zm-6.883 6.5V6h5.082c.151 1.84.121 3.64-.214 5.31-.466 2.32-1.519 4.39-3.537 5.96l-1.083-1.7c1.43-1.18 2.663-3.14 2.663-5.07h-2.911Z"/>
</svg>
