<?xml version="1.0" encoding="UTF-8"?>
<svg xmlns="http://www.w3.org/2000/svg" width="24" height="24" viewBox="0 0 24 24">
    <path d="M21.503 6.745c.475 1.032.748 2.176.748 3.385 0 2.955-1.608 5.68-4.196 7.11l-8.054 4.459v-3.452l2-2v2.06l5.086-2.816c1.952-1.079 3.164-3.133 3.164-5.36 0-.644-.101-1.264-.286-1.847l1.538-1.538ZM3.71 21.71l-1.414-1.414 3.401-3.401C3.34 15.5 1.751 12.935 1.751 10c0-4.411 3.591-8 8.005-8h4.366c1.818 0 3.494.608 4.849 1.62l1.325-1.325 1.414 1.414-18 18.001Zm3.462-6.29L17.545 5.047C16.567 4.386 15.389 4 14.123 4H9.757c-3.311 0-6.005 2.691-6.005 6 0 2.389 1.401 4.451 3.421 5.42Z"/>
</svg>
