<?xml version="1.0" encoding="UTF-8"?>
<svg xmlns="http://www.w3.org/2000/svg" width="24" height="24" viewBox="0 0 24 24">
    <path d="m3.707 21.707 18-18-1.414-1.414-2.088 2.088C17.688 4.137 17.11 4 16.5 4H11v2h5.5c.028 0 .056 0 .084.002l-10.88 10.88c-.131-.266-.204-.565-.204-.882V7.551l2.068 1.93 1.365-1.462L4.5 3.882.068 8.019l1.365 1.462 2.068-1.93V16c0 .871.278 1.677.751 2.334l-1.959 1.959 1.414 1.414ZM18.5 9h2v7.449l2.068-1.93 1.365 1.462-4.433 4.137-4.432-4.137 1.365-1.462 2.067 1.93V9Zm-8.964 9-2 2H13v-2H9.536Z"/>
</svg>
