<svg xmlns="http://www.w3.org/2000/svg" width="20" height="20" viewBox="0 0 20 20">
    <path fill="#107CDA" d="M9.99 20H5c-2.763 0-5-2.237-5-5V5c0-2.76 2.236-5 4.998-5h10.004c2.76 0 5 2.238 5 5C20 8.332 20 11.668 20 15c0 2.763-2.24 5-5 5H9.99z"/>
    <path fill="#FFF" d="M18.303 6.553c0-.15 0-.15-.15-.15H13.41c-.145 0-.145 0-.145.146v3.436c0 1.155 0 2.31-.002 3.466 0 .1.03.128.127.127.44-.006.88-.003 1.318-.003.135 0 .136 0 .136-.133v-2.656c0-.18-.03-.177.18-.177h2.657c.164 0 .164 0 .164-.167v-.87c0-.185 0-.185-.185-.185h-2.686c-.07 0-.134.008-.133-.1.005-.486.004-.97.002-1.456 0-.075.023-.11.1-.102.036.003.072 0 .107 0h3.094c.158 0 .158 0 .158-.162V6.553zM11.386 9.856c-.442.004-.885.004-1.327 0-.09 0-.12.028-.12.118.004 1.17.004 2.342 0 3.513 0 .088.032.11.114.11.44-.004.878-.002 1.317-.003.13 0 .13 0 .13-.128V11.74c0-.587 0-1.172.003-1.758.002-.09-.02-.127-.117-.126zM8.303 9.706v-.003c-.015-.006-.03-.004-.044-.004-.027-.004-.05-.013-.077-.013h-2.75c-.027 0-.052.008-.078.012-.015 0-.03-.004-.045.003v.002c-.004.002-.008 0-.012.002 0 .364-.003.728-.004 1.092 0 .02.007.037.015.055v.01c0 .003.002.006.004.008.455 0 .91.003 1.366.004.192 0 .2 0 .174.19-.072.51-.346 1.06-1.008 1.256-.354.105-.715.122-1.08.06-.303-.052-.568-.182-.797-.383-.332-.29-.52-.67-.627-1.09-.113-.446-.142-.9-.083-1.36.06-.454.18-.884.442-1.266.172-.25.396-.446.676-.568.387-.17.793-.193 1.2-.11.32.065.594.22.802.482.157.198.24.428.314.664.032.02.07.017.104.017h1.298c.035 0 .072.004.103-.02-.022-.19-.055-.38-.112-.562-.156-.507-.445-.926-.855-1.262-.387-.32-.832-.517-1.318-.617-.347-.073-.697-.095-1.054-.067-.456.035-.892.133-1.3.337-.646.32-1.124.812-1.45 1.45-.29.567-.436 1.173-.453 1.81-.014.5.03.992.18 1.472.224.72.607 1.333 1.224 1.783.566.412 1.203.617 1.9.64.124.01.248.01.372 0 .735-.05 1.342-.35 1.81-.958l.163.797c.09.013.18.014.27.013.242.01.485.008.728-.008.006 0 .012-.006.018-.01V9.816c0-.036-.002-.07-.003-.107-.005-.002-.01 0-.014-.002zM10.592 5.15c-1.054-.003-1.908.847-1.91 1.903-.004 1.056.844 1.912 1.898 1.915 1.06.003 1.916-.85 1.917-1.908 0-1.053-.852-1.908-1.905-1.91zm-.002 3.28c-.75 0-1.367-.615-1.37-1.367 0-.756.618-1.378 1.37-1.376.748.002 1.362.615 1.363 1.362.002.762-.607 1.378-1.363 1.38z"/>
    <path fill="#FFF" d="M10.213 7.717c-.063-.003-.077-.057-.078-.12l-.003-.565c0-.17-.004-.338 0-.507 0-.13.06-.164.174-.098.304.175.607.352.91.53.114.07.113.143-.002.21-.297.175-.596.346-.894.52-.028.015-.056.03-.107.03z"/>
</svg>
