<?xml version="1.0" encoding="UTF-8"?>
<svg xmlns="http://www.w3.org/2000/svg" width="24" height="24" viewBox="0 0 24 24">
    <path d="M17.816 3.05C16.266 2.53 14.151 2 12 2s-4.266.53-5.816 1.05C5.087 3.42 4.033 3.87 3 4.38v7.64c0 2.8 1.155 5.57 3.489 7.3.86.64 1.821 1.29 2.743 1.78.882.48 1.879.9 2.768.9s1.886-.42 2.768-.9c.922-.49 1.883-1.14 2.743-1.78 2.334-1.73 3.489-4.5 3.489-7.3V4.38c-1.033-.51-2.087-.96-3.184-1.33ZM14 14h-4c-1.657 0-3-1.34-3-3s1.343-3 3-3h4c1.657 0 3 1.34 3 3s-1.343 3-3 3Zm1.5-3c0 .83-.672 1.5-1.5 1.5s-1.5-.67-1.5-1.5.672-1.5 1.5-1.5 1.5.67 1.5 1.5Z"/>
</svg>
