<?xml version="1.0" encoding="UTF-8"?>
<svg xmlns="http://www.w3.org/2000/svg" width="24" height="24" viewBox="0 0 24 24">
    <path d="M17.816 3.05C16.266 2.53 14.151 2 12 2s-4.266.53-5.816 1.05C5.087 3.42 4.033 3.87 3 4.38v7.64c0 2.8 1.155 5.57 3.489 7.3.86.64 1.821 1.29 2.743 1.78.882.48 1.879.9 2.768.9s1.886-.42 2.768-.9c.922-.49 1.883-1.14 2.743-1.78 2.334-1.73 3.489-4.5 3.489-7.3V4.38c-1.033-.51-2.087-.96-3.184-1.33ZM19 12.02c0 2.27-.935 4.4-2.678 5.69-.823.61-1.699 1.2-2.503 1.63-.844.46-1.463.66-1.819.66s-.975-.2-1.819-.66c-.804-.43-1.68-1.02-2.503-1.63C5.935 16.42 5 14.29 5 12.02V5.64c.418-.18 1.049-.44 1.816-.69C8.266 4.47 10.151 4 12 4s3.734.47 5.184.95c.767.25 1.398.51 1.816.69v6.38ZM14 8h-4c-1.657 0-3 1.34-3 3s1.343 3 3 3h4c1.657 0 3-1.34 3-3s-1.343-3-3-3Zm-4 4.5c-.828 0-1.5-.67-1.5-1.5s.672-1.5 1.5-1.5 1.5.67 1.5 1.5-.672 1.5-1.5 1.5Z"/>
</svg>
