<?xml version="1.0" encoding="UTF-8"?>
<svg xmlns="http://www.w3.org/2000/svg" width="24" height="24" viewBox="0 0 24 24">
    <path d="m7.79 11.71 1.42-1.42 1.79 1.8 3.79-3.8 1.42 1.42-5.21 5.2-3.21-3.2ZM3 4.38v7.64c0 2.8 1.16 5.57 3.49 7.3.86.64 1.82 1.29 2.74 1.78.88.48 1.88.9 2.77.9s1.89-.42 2.77-.9c.92-.49 1.88-1.14 2.74-1.78 2.33-1.73 3.49-4.5 3.49-7.3V4.38c-1.03-.51-2.09-.96-3.18-1.33C16.27 2.53 14.15 2 12 2s-4.27.53-5.82 1.05c-1.09.37-2.15.82-3.18 1.33Zm3.82.57C8.27 4.47 10.15 4 12 4s3.73.47 5.18.95c.77.25 1.4.51 1.82.69v6.38c0 2.27-.94 4.4-2.68 5.69-.82.61-1.7 1.2-2.5 1.63-.85.46-1.46.66-1.82.66s-.97-.2-1.82-.66c-.8-.43-1.68-1.02-2.5-1.63C5.93 16.42 5 14.29 5 12.02V5.64c.42-.18 1.05-.44 1.82-.69Z"/>
</svg>
