<?xml version="1.0" encoding="UTF-8"?>
<svg xmlns="http://www.w3.org/2000/svg" width="24" height="24" viewBox="0 0 24 24">
    <path d="M22.25 13.46v-2.92l-2.36-1.57c-.17-.12-.26-.33-.21-.53l.58-2.54-2.17-2.17-2.53.59c-.21.04-.42-.04-.53-.21l-1.57-2.36h-2.92L8.96 4.11c-.11.17-.32.25-.52.21L5.9 3.73 3.73 5.9l.58 2.54c.05.2-.03.41-.21.53l-2.35 1.57v2.92l2.35 1.57c.18.12.26.33.21.53l-.58 2.54 2.17 2.17 2.54-.59c.2-.04.41.04.52.21l1.58 2.36h2.92l1.57-2.36c.11-.17.32-.25.53-.21l2.53.59 2.17-2.17-.58-2.54c-.05-.2.04-.41.21-.53l2.36-1.57ZM12 15c-1.66 0-3-1.34-3-3s1.34-3 3-3c1.65 0 3 1.34 3 3s-1.35 3-3 3Z"/>
</svg>
