<svg width="32" height="32" viewBox="0 0 32 32" fill="none" xmlns="http://www.w3.org/2000/svg">
<path fill-rule="evenodd" clip-rule="evenodd" d="M16 0C7.16344 0 0 7.16344 0 16C0 24.8366 7.16344 32 16 32C24.8366 32 32 24.8366 32 16C32 7.16344 24.8366 0 16 0ZM23.1521 11.4553C23.4431 11.4553 23.6996 11.6443 23.7881 11.9203C23.8766 12.197 23.7746 12.4956 23.5421 12.6651L20.8676 14.5603L22.0038 17.8963C22.0983 18.1693 22.0038 18.4716 21.7713 18.6441C21.6543 18.7303 21.5148 18.7753 21.3738 18.7753C21.2381 18.7753 21.1023 18.7348 20.9861 18.6523L18.0386 16.5598L15.0911 18.6523C14.8533 18.8181 14.5406 18.8158 14.3058 18.6433C14.0718 18.4716 13.9781 18.1686 14.0718 17.8963L15.2118 14.5588L12.5373 12.6628C12.3003 12.4956 12.1998 12.1956 12.2876 11.9181C12.3776 11.6428 12.6348 11.4553 12.9251 11.4553H16.2738L17.4063 8.13584C17.4986 7.86584 17.7513 7.68359 18.0386 7.68359C18.3251 7.68359 18.5778 7.86659 18.6716 8.13509L19.8041 11.4553H23.1521ZM8.42485 19.3003C8.49985 19.3753 8.64985 19.4503 8.79985 19.4503C8.94985 19.4503 9.02485 19.4503 9.17485 19.3753L13.0749 15.4753C13.2999 15.2503 13.2999 14.8753 13.0749 14.6503C12.8499 14.4253 12.4749 14.4253 12.2499 14.6503L8.42485 18.4753C8.19985 18.7003 8.19985 19.0753 8.42485 19.3003ZM8.64985 24.1753C8.72485 24.2503 8.87485 24.3253 9.02485 24.3253C9.17485 24.3253 9.32485 24.2503 9.47485 24.1753L13.5249 20.1253C13.7499 19.9003 13.7499 19.5253 13.5249 19.3003C13.2999 19.0753 12.9249 19.0753 12.6999 19.3003L8.64985 23.3503C8.42485 23.5753 8.42485 23.9503 8.64985 24.1753ZM13.8249 23.7253C13.8999 23.8003 14.0499 23.8753 14.1999 23.8753C14.3499 23.8753 14.4999 23.8003 14.6499 23.7253L18.2499 20.1253C18.4749 19.9003 18.4749 19.5253 18.2499 19.3003C18.0249 19.0753 17.6499 19.0753 17.4249 19.3003L13.8249 22.9003C13.5999 23.1253 13.5999 23.5003 13.8249 23.7253Z"/>
</svg>
