<svg xmlns="http://www.w3.org/2000/svg" width="24" height="24" viewBox="0 0 24 24">
    <path id="bounds" opacity="0" d="M0 0h24v24H0z"/>
    <path d="M16.5 10.4c-3.424 0-6.2 2.776-6.2 6.2 0 3.424 2.776 6.2 6.2 6.2s6.2-2.776 6.2-6.2c-.016-3.417-2.783-6.184-6.2-6.2zm3.4 8.3c-.128.22-.35.366-.6.4-.14.015-.283-.02-.4-.1l-3.1-2v-3c0-.442.358-.8.8-.8s.8.358.8.8v2.2l2.4 1.5c.24.28.28.68.1 1z"/>
    <path d="M12.08 10.29c1.295-.907 2.84-1.392 4.42-1.39.3 0 .6.02.9.057l-.134-2.51c-.028-.53-.468-.948-1-.947H14v-.375c.03-2.242-1.758-4.087-4-4.125-2.242.038-4.03 1.883-4 4.125V5.5H3.737c-.532 0-.97.415-1 .946l-.723 13.5c-.03.552.393 1.023.945 1.053h7.23c-2.437-3.48-1.59-8.275 1.89-10.71zM8 5.125c-.033-1.138.862-2.09 2-2.125 1.138.036 2.033.987 2 2.125V5.5H8v-.375z"/>
</svg>
