<svg xmlns="http://www.w3.org/2000/svg" width="24" height="24" viewBox="0 0 24 24">
    <path id="bounds" opacity="0" d="M0 0h24v24H0z"/>
    <path d="M8.963 19.5H3.54L4.21 7H6v1.25c0 .414.336.75.75.75s.75-.336.75-.75V7h5v1.25c0 .414.336.75.75.75s.75-.336.75-.75V7h1.79l.064 1.21c.027.412.378.727.79.71.414-.023.73-.376.708-.79l-.1-1.92c-.02-.4-.352-.712-.752-.71H14V5c0-2.21-1.79-4-4-4S6 2.79 6 5v.5H3.5c-.4 0-.73.31-.75.71l-.75 14c-.022.414.295.767.71.79h6.253c.414 0 .75-.336.75-.75s-.336-.75-.75-.75zM7.5 5c0-1.38 1.12-2.5 2.5-2.5s2.5 1.12 2.5 2.5v.5h-5V5z"/>
    <path d="M16.5 10.4c-3.424 0-6.2 2.776-6.2 6.2 0 3.424 2.776 6.2 6.2 6.2s6.2-2.776 6.2-6.2c-.016-3.417-2.783-6.184-6.2-6.2zm0 11c-2.596 0-4.7-2.104-4.7-4.7s2.104-4.7 4.7-4.7 4.7 2.104 4.7 4.7c-.032 2.582-2.118 4.668-4.7 4.7z"/>
    <path d="M19.8 17.7l-2.4-1.5V14c0-.442-.358-.8-.8-.8s-.8.358-.8.8v3l3.1 2c.117.08.26.115.4.1.25-.034.472-.18.6-.4.18-.32.14-.72-.1-1z"/>
</svg>
