<?xml version="1.0" encoding="UTF-8"?>
<svg xmlns="http://www.w3.org/2000/svg" width="24" height="24" viewBox="0 0 24 24">
    <path d="M8.414 3H12c5.247 0 9.5 4.25 9.5 9.5S17.247 22 12 22s-9.5-4.25-9.5-9.5v-1h2v1c0 4.14 3.358 7.5 7.5 7.5s7.5-3.36 7.5-7.5S16.142 5 12 5H8.414l1.543 1.54-1.414 1.42L4.586 4 8.543.04l1.414 1.42L8.414 3Zm.632 6.5c-.245.65-.659.91-1.394.94H7.5v1.3h.228c.414 0 .811-.11 1.048-.31v3.94h1.454V9.5H9.046Zm5.005 1.84c-.6 0-1.048.19-1.31.54l.152-1.25h2.738V9.5h-3.803l-.363 3.35 1.284.11c.135-.38.431-.59.879-.59.549 0 .87.41.87 1.03 0 .61-.329.98-.887.98-.473 0-.786-.26-.879-.66l-1.394.28c.177.93 1.039 1.5 2.29 1.5 1.445 0 2.324-.81 2.324-2.14 0-1.25-.718-2.02-1.901-2.02Z"/>
</svg>
