<?xml version="1.0" encoding="UTF-8"?>
<svg xmlns="http://www.w3.org/2000/svg" width="24" height="24" viewBox="0 0 24 24">
    <path d="M15.457.04 19.414 4l-3.957 3.96-1.414-1.42L15.586 5H12c-4.142 0-7.5 3.36-7.5 7.5S7.858 20 12 20s7.5-3.36 7.5-7.5v-1h2v1c0 5.25-4.253 9.5-9.5 9.5s-9.5-4.25-9.5-9.5S6.753 3 12 3h3.586l-1.543-1.54L15.457.04ZM9.046 9.5c-.245.65-.659.91-1.394.94H7.5v1.3h.228c.414 0 .811-.11 1.048-.31v3.94h1.454V9.5H9.046Zm5.005 1.84c-.6 0-1.048.19-1.31.54l.152-1.25h2.738V9.5h-3.803l-.363 3.35 1.284.11c.135-.38.431-.59.879-.59.549 0 .87.41.87 1.03 0 .61-.329.98-.887.98-.473 0-.786-.26-.879-.66l-1.394.28c.177.93 1.039 1.5 2.29 1.5 1.445 0 2.324-.81 2.324-2.14 0-1.25-.718-2.02-1.901-2.02Z"/>
</svg>
