<?xml version="1.0" encoding="utf-8"?>
<svg version="1.1" xmlns="http://www.w3.org/2000/svg" xmlns:xlink="http://www.w3.org/1999/xlink" x="0px" y="0px" width="60" height="72" viewBox="0 0 60 72" enable-background="new 0 0 60 72" xml:space="preserve">
<g id="bounds"><rect opacity="0" width="60" height="72"/></g>
<g id="icon">
<path d="M30.001,9c-14.888,0-27,12.112-27,27s12.112,27,27,27s27-12.112,27-27S44.889,9,30.001,9z"/>
<ellipse fill="#FFFFFF" cx="38" cy="30.5" rx="3.15" ry="4.5"/>
<ellipse fill="#FFFFFF" cx="22" cy="30.5" rx="3.15" ry="4.5"/>
<path fill="#FFFFFF" d="M41.093,48.877c-0.067-0.275-2.866-7.04-11.093-7.04s-11.026,6.765-11.092,7.04c-0.081,0.334,0.064,0.681,0.351,0.853c0.289,0.172,0.651,0.12,0.889-0.119c0.028-0.028,2.896-2.987,9.853-2.987c6.957,0,9.824,2.959,9.852,2.987c0.142,0.146,0.331,0.223,0.521,0.223c0.125,0,0.25-0.033,0.365-0.099C41.029,49.563,41.174,49.212,41.093,48.877z"/>
</g>
</svg>
