<?xml version="1.0" encoding="utf-8"?>
<svg version="1.1" xmlns="http://www.w3.org/2000/svg" xmlns:xlink="http://www.w3.org/1999/xlink" x="0px" y="0px" width="60" height="72" viewBox="0 0 60 72" enable-background="new 0 0 60 72" xml:space="preserve">
<g id="bounds"><rect opacity="0" width="60" height="72"/></g>
<g id="icon">
<ellipse cx="38" cy="30.5" rx="3.15" ry="4.5"/>
<ellipse cx="22" cy="30.5" rx="3.15" ry="4.5"/>
<path d="M36.951,48.223c-0.015-0.053-1.452-5.255-6.95-5.255c-5.499,0-6.936,5.202-6.95,5.255c-0.067,0.256,0.055,0.517,0.293,0.653c0.238,0.135,0.548,0.103,0.756-0.072c0.012-0.009,1.651-1.513,5.901-1.513c4.25,0,5.85,1.473,5.9,1.513c0.12,0.108,0.277,0.164,0.436,0.164c0.106,0,0.214-0.026,0.312-0.077C36.897,48.758,37.021,48.485,36.951,48.223z"/>
<path d="M30,63C15.112,63,3,50.888,3,36S15.112,9,30,9s27,12.112,27,27S44.888,63,30,63z M30,13C17.318,13,7,23.317,7,36s10.318,23,23,23s23-10.317,23-23S42.682,13,30,13z"/>
</g>
</svg>
