<?xml version="1.0" encoding="utf-8"?>
<svg version="1.1" xmlns="http://www.w3.org/2000/svg" xmlns:xlink="http://www.w3.org/1999/xlink" x="0px" y="0px" width="60" height="72" viewBox="0 0 60 72" enable-background="new 0 0 60 72" xml:space="preserve">
<g id="bounds"><rect opacity="0" width="60" height="72"/></g>
<g id="icon">
<path d="M36.95,43.714c-0.015,0.053-1.452,5.255-6.95,5.255c-5.5,0-6.936-5.202-6.95-5.255c-0.067-0.256,0.055-0.517,0.293-0.653c0.238-0.135,0.548-0.103,0.756,0.072c0.012,0.009,1.651,1.513,5.901,1.513c4.25,0,5.85-1.473,5.9-1.513c0.12-0.108,0.277-0.164,0.436-0.164c0.106,0,0.214,0.026,0.312,0.077C36.896,43.18,37.02,43.453,36.95,43.714z"/>
<path d="M29.999,63c-14.888,0-27-12.112-27-27s12.112-27,27-27s27,12.112,27,27S44.887,63,29.999,63z M29.999,13c-12.682,0-23,10.317-23,23s10.318,23,23,23s23-10.317,23-23S42.681,13,29.999,13z"/>
<ellipse cx="38" cy="30.5" rx="3.15" ry="4.5"/>
<ellipse cx="22" cy="30.5" rx="3.15" ry="4.5"/>
</g>
</svg>
