<svg xmlns="http://www.w3.org/2000/svg" width="24" height="24" viewBox="0 0 24 24">
    <path id="bounds" opacity="0" d="M0 0h24v24H0z"/>
    <path d="M16.6 12.5c2.76-.056 4.954-2.34 4.898-5.1s-2.34-4.954-5.1-4.898c-2.682.054-4.844 2.216-4.898 4.898-.488-.16-.99-.275-1.5-.34.252-3.58 3.36-6.28 6.94-6.028s6.28 3.36 6.028 6.94c-.227 3.23-2.798 5.8-6.028 6.028-.065-.51-.18-1.012-.34-1.5z"/>
    <circle cx="14.5" cy="5.85" r="1"/>
    <circle cx="18.45" cy="5.85" r="1"/>
    <path d="M13.77 9.1c-.116-.148-.09-.362.06-.477.02-.017.045-.03.07-.043 1.732-.112 3.468-.112 5.2 0 .172.076.25.277.173.45-.012.024-.026.048-.043.07-1.27 1.508-3.523 1.7-5.03.43-.156-.13-.3-.275-.43-.43zM9 23c-4.418 0-8-3.582-8-8s3.582-8 8-8 8 3.582 8 8-3.582 8-8 8zM9 8.5c-3.59 0-6.5 2.91-6.5 6.5s2.91 6.5 6.5 6.5 6.5-2.91 6.5-6.5c-.006-3.588-2.912-6.494-6.5-6.5z"/>
    <circle cx="6.55" cy="12.65" r="1.15"/>
    <circle cx="11.45" cy="12.65" r="1.15"/>
    <path d="M5.53 16.86c-.164-.26-.088-.603.17-.77 2.197-.168 4.403-.168 6.6 0 .258.167.334.51.17.77-1.23 1.914-3.78 2.467-5.694 1.236-.496-.32-.917-.74-1.236-1.236h-.01z"/>
</svg>