<svg xmlns="http://www.w3.org/2000/svg" width="24" height="24" viewBox="0 0 24 24">
    <path id="bounds" opacity="0" d="M0 0h24v24H0z"/>
    <circle cx="7.55" cy="11.648" r="1.15"/>
    <circle cx="12.45" cy="11.648" r="1.15"/>
    <path d="M6.53 15.858c-.164-.26-.088-.603.17-.77 2.197-.168 4.403-.168 6.6 0 .258.167.334.51.17.77-1.23 1.914-3.78 2.467-5.694 1.236-.496-.32-.917-.74-1.236-1.236h-.01z"/>
    <path d="M22 6.8C22 4.15 19.85 2 17.2 2c-2.507 0-4.542 1.93-4.758 4.38C11.672 6.135 10.852 6 10 6c-4.418 0-8 3.582-8 8s3.582 8 8 8 8-3.582 8-8c0-.85-.136-1.67-.382-2.44C20.07 11.343 22 9.308 22 6.8zM10 20.498c-3.59 0-6.5-2.91-6.5-6.5s2.91-6.5 6.5-6.5c.918.002 1.79.195 2.58.54.443 1.65 1.732 2.938 3.38 3.38.345.79.538 1.662.54 2.58 0 3.59-2.91 6.5-6.5 6.5zm9.685-12.062c.213.212.212.556 0 .77-.212.21-.556.21-.77 0L17.233 7.52l-1.684 1.683c-.212.212-.557.212-.77 0-.106-.106-.16-.245-.16-.384s.054-.28.16-.385l1.683-1.686-1.68-1.683c-.107-.106-.16-.245-.16-.384s.053-.278.16-.384c.212-.213.556-.213.77 0l1.683 1.68 1.686-1.685c.21-.212.555-.212.768 0 .212.212.212.557 0 .77L18.003 6.75l1.682 1.686z"/>
</svg>
