<svg xmlns="http://www.w3.org/2000/svg" width="24" height="24" viewBox="0 0 24 24">
    <path id="bounds" opacity="0" d="M0 0h24v24H0z"/>
    <path d="M12 6.59c-1.875 0-3.704-.522-5.287-1.51-.352-.22-.46-.683-.24-1.034.22-.352.683-.46 1.033-.24 2.686 1.677 6.284 1.682 8.972.01.353-.218.814-.11 1.032.24.22.353.11.815-.24 1.034-1.58.982-3.402 1.5-5.27 1.5zM7.117 20.3c-.25 0-.495-.125-.637-.354-.22-.352-.11-.814.24-1.033 3.16-1.968 7.383-1.97 10.546-.01.352.22.46.682.242 1.034-.22.352-.68.46-1.033.242-2.685-1.67-6.28-1.666-8.962.006-.123.078-.26.114-.396.114zM14.17 14.17c-.6.6-1.38.9-2.17.9s-1.57-.3-2.17-.9c-1.2-1.19-1.2-3.14 0-4.34 1.2-1.2 3.14-1.2 4.34 0 1.2 1.2 1.2 3.15 0 4.34zM4.45 17.62c-.135 0-.272-.035-.395-.11-.352-.22-.46-.682-.242-1.034.832-1.34 1.272-2.89 1.272-4.476 0-1.592-.442-3.143-1.28-4.487-.218-.35-.11-.814.24-1.033.352-.218.815-.11 1.034.24.985 1.582 1.505 3.408 1.505 5.28 0 1.866-.518 3.687-1.498 5.267-.142.228-.387.354-.637.354zM19.545 17.62c-.25 0-.495-.124-.638-.353-.985-1.58-1.506-3.407-1.506-5.28 0-1.867.52-3.688 1.498-5.267.22-.352.682-.46 1.033-.242.353.218.46.68.243 1.033-.833 1.342-1.272 2.89-1.272 4.477 0 1.592.443 3.143 1.28 4.487.22.352.11.814-.24 1.033-.123.078-.26.114-.395.114zM11.993 3.192c-1.086 0-2.165-.27-3.117-.78-.365-.197-.502-.652-.307-1.016.196-.365.65-.5 1.015-.307 1.472.79 3.347.79 4.816 0 .365-.197.82-.06 1.017.305.195.365.06.82-.307 1.015-.952.512-2.03.782-3.117.782zM9.23 23c-.266 0-.525-.144-.66-.396-.197-.365-.06-.82.306-1.016 1.906-1.02 4.33-1.02 6.234 0 .365.196.502.65.307 1.016-.197.364-.652.502-1.016.307-1.47-.79-3.344-.79-4.815 0-.113.062-.234.09-.354.09zM1.75 15.512c-.12 0-.24-.028-.354-.09-.365-.195-.502-.65-.307-1.015.394-.736.603-1.57.603-2.41s-.21-1.67-.604-2.407c-.197-.364-.06-.82.306-1.015.365-.194.82-.06 1.016.307.51.953.78 2.03.78 3.117s-.27 2.164-.78 3.117c-.136.25-.395.395-.662.395zM22.25 15.512c-.267 0-.525-.144-.66-.396-.512-.953-.782-2.03-.782-3.118s.27-2.165.78-3.117c.196-.364.65-.5 1.017-.306.365.196.502.65.307 1.016-.395.736-.604 1.568-.604 2.408s.21 1.672.604 2.41c.195.364.06.818-.307 1.015-.114.06-.235.09-.354.09z"/>
</svg>
