<svg width="48" height="48" viewBox="0 0 48 48" fill="none" xmlns="http://www.w3.org/2000/svg">
<path d="M12 15.9246C12 15.149 12.3151 14.4051 12.876 13.8567C13.437 13.3081 14.1978 13 14.991 13H32.9372C33.7304 13 34.4912 13.3081 35.0522 13.8567C35.6131 14.4051 35.9282 15.149 35.9282 15.9246V23.5284H33.5354V15.9246C33.5354 15.7694 33.4723 15.6206 33.3602 15.511C33.248 15.4013 33.0958 15.3396 32.9372 15.3396H14.991C14.8324 15.3396 14.6802 15.4013 14.568 15.511C14.4559 15.6206 14.3928 15.7694 14.3928 15.9246V31.1323C14.3928 31.2874 14.4559 31.4362 14.568 31.5459C14.6802 31.6555 14.8324 31.7172 14.991 31.7172H23.9641V34.0568H14.991C14.1978 34.0568 13.437 33.7487 12.876 33.2003C12.3151 32.6519 12 31.908 12 31.1323V15.9246ZM17.683 17.0944C17.3872 17.0944 17.098 17.1801 16.852 17.3409C16.6062 17.5015 16.4145 17.7299 16.3013 17.9971C16.188 18.2643 16.1585 18.5583 16.2162 18.842C16.2738 19.1257 16.4163 19.3862 16.6254 19.5907C16.8346 19.7952 17.1011 19.9345 17.3911 19.9909C17.6813 20.0473 17.9819 20.0184 18.2553 19.9077C18.5286 19.797 18.7621 19.6096 18.9264 19.3691C19.0908 19.1286 19.1785 18.846 19.1785 18.5567C19.1785 18.1689 19.0209 17.797 18.7405 17.5227C18.46 17.2484 18.0796 17.0944 17.683 17.0944ZM21.8704 20.0189C22.1661 20.0189 22.4553 19.9332 22.7013 19.7726C22.9472 19.6118 23.1388 19.3835 23.252 19.1163C23.3653 18.8491 23.3949 18.555 23.3372 18.2715C23.2795 17.9878 23.137 17.7273 22.9279 17.5227C22.7188 17.3182 22.4522 17.179 22.1622 17.1225C21.8721 17.0661 21.5714 17.0951 21.298 17.2057C21.0248 17.3164 20.7912 17.5038 20.627 17.7443C20.4626 17.9847 20.3749 18.2675 20.3749 18.5567C20.3749 18.9445 20.5324 19.3165 20.8129 19.5907C21.0933 19.8649 21.4738 20.0189 21.8704 20.0189ZM26.0578 17.0944C25.7621 17.0944 25.4729 17.1801 25.2269 17.3409C24.9811 17.5015 24.7894 17.7299 24.6762 17.9971C24.5629 18.2643 24.5334 18.5583 24.591 18.842C24.6487 19.1257 24.7912 19.3862 25.0003 19.5907C25.2095 19.7952 25.476 19.9345 25.766 19.9909C26.0561 20.0473 26.3568 20.0184 26.6302 19.9077C26.9034 19.797 27.137 19.6096 27.3013 19.3691C27.4656 19.1286 27.5533 18.846 27.5533 18.5567C27.5533 18.1689 27.3958 17.797 27.1153 17.5227C26.8349 17.2484 26.4544 17.0944 26.0578 17.0944ZM30.0897 31.9979L33.4636 35.2968L36 32.8168L32.6261 29.5179L35.33 27.6228L25.1605 24.6982L28.1515 34.6417L30.0897 31.9979Z" fill="#536471"/>
</svg>
