<svg xmlns="http://www.w3.org/2000/svg" width="24" height="24" viewBox="0 0 24 24">
    <path id="bounds" opacity="0" d="M0 0h24v24H0z"/>
    <path d="M21.48 14.61v6.193c0 1.212-.983 2.196-2.195 2.196H13.76v-2.074c0-1.195-.967-2.16-2.162-2.16-1.186 0-2.153.965-2.153 2.16V23H3.91c-1.213 0-2.197-.984-2.197-2.196V14.6c.264.212.562.38.88.493.28.105.57.176.878.21.115.01.238.02.36.02h15.534c.123 0 .246-.01.36-.02.308-.034.597-.104.88-.21.315-.115.613-.282.877-.484zM22.237 5.402l-2.495 1.125V9.55c1.037.175 1.836 1.088 1.836 2.178v.062c0 1.22-.993 2.214-2.214 2.214H3.83c-1.22 0-2.205-.993-2.205-2.214v-.062c0-1.09.79-2.003 1.827-2.18V3.69c0-.36.3-.658.66-.658.368 0 .658.3.658.66v.166L7.266 4.98c.176.088.176.343 0 .422L4.77 6.526v2.987h6.405V1.66c0-.37.3-.66.66-.66.36 0 .658.29.658.66v.166l2.495 1.125c.176.08.176.344 0 .423l-2.495 1.125v5.017h5.93V3.688c0-.36.3-.66.66-.66.368 0 .658.3.658.66v.167l2.496 1.125c.185.088.185.343 0 .422z"/>
</svg>
