<svg xmlns="http://www.w3.org/2000/svg" width="24" height="24" viewBox="0 0 24 24">
    <path id="bounds" opacity="0" d="M0 0h24v24H0z"/>
    <path d="M9.925 6.26V.75H6.913v5.52c.438-.28.954-.43 1.512-.43.546 0 1.062.15 1.5.42zM22.488 6.84c.08-.55-.298-1.06-.844-1.14-.537-.08-1.043.3-1.123.84l-.05.35-4.66 1.97-1.41 9.46 3.895 3.3-.07.49c-.08.54.288 1.05.834 1.13.05.01.1.01.15.01.486 0 .903-.35.983-.85L22.49 6.84h-.002zM11.368 8.83c0 1.64-1.322 2.98-2.942 2.98-1.63 0-2.952-1.34-2.952-2.98 0-.52.14-1.02.377-1.45l-1.59-.24c-.427-.06-.844.04-1.192.3s-.578.64-.648 1.08l-.904 6.15c-.13.89.477 1.73 1.353 1.86l10.067 1.53 1.38-9.38-3.01-.47c.04.2.06.41.06.62z"/>
    <path d="M8.425 7.34c-.328 0-.627.11-.865.3-.367.26-.597.7-.597 1.19 0 .07.01.14.02.21.1.72.706 1.27 1.442 1.27.724 0 1.33-.55 1.43-1.27.01-.07.02-.14.02-.21 0-.33-.11-.63-.287-.88-.26-.37-.686-.61-1.163-.61z"/>
</svg>
