<svg xmlns="http://www.w3.org/2000/svg" width="24" height="24" viewBox="0 0 24 24">
    <path id="bounds" opacity="0" d="M0 0h24v24H0z"/>
    <path fill="#66757F" d="M16.976 16.072l.015 4.3c0 .614.498 1.11 1.11 1.11h1.773c.613 0 1.11-.496 1.11-1.11v-4.3h-4.007zM3.015 16.07l.015 4.3c0 .615.497 1.112 1.11 1.112h1.772c.613 0 1.11-.497 1.11-1.11V16.07H3.015z"/>
    <path fill="#1B95E0" d="M21.983 8.506h-1.997c-.02 0-.035.01-.054.01-.17-1.922-.886-6-3.94-6H8.007c-3.053 0-3.77 4.078-3.94 6-.02 0-.034-.01-.054-.01H2.017c-.552 0-.998.447-.998.998 0 .552.446.998.997.998h.998s-.01 5.414 0 5.567c.034.488.302 1.558 1.942 1.967.69.173 1.367.277 2.05.345 1.517.15 3.08.106 4.993.106s3.476.044 4.992-.106c.684-.068 1.36-.172 2.05-.345 1.638-.41 1.908-1.476 1.943-1.966.01-.154 0-5.568 0-5.568h.998c.552 0 .998-.447.998-.998 0-.55-.445-.998-.997-.998zm-14.475 5.99H6.51c-.827 0-1.497-.67-1.497-1.497S5.683 11.5 6.51 11.5h.998c.827 0 1.497.67 1.497 1.497s-.67 1.496-1.497 1.496zm-1.31-5.99s.07-3.993 2.016-3.993h7.57c1.946 0 2.018 3.993 2.018 3.993H6.197zm8.797 4.492c0-.827.67-1.497 1.497-1.497h.998c.827 0 1.497.672 1.497 1.498s-.67 1.497-1.497 1.497h-.998c-.826 0-1.497-.67-1.497-1.497z"/>
    <path fill="#FFCC4D" d="M18.988 12.998c0-.827-.67-1.497-1.497-1.497h-.997c-.827 0-1.497.672-1.497 1.498s.67 1.497 1.497 1.497h.998c.827 0 1.498-.67 1.498-1.497zM7.508 11.5H6.51c-.827 0-1.497.672-1.497 1.498s.67 1.497 1.497 1.497h.998c.827 0 1.497-.67 1.497-1.497S8.335 11.5 7.508 11.5z"/>
</svg>
