<svg xmlns="http://www.w3.org/2000/svg" width="24" height="24" viewBox="0 0 24 24">
    <path id="bounds" opacity="0" d="M0 0h24v24H0z"/>
    <circle fill="#FFCC4D" cx="12" cy="12" r="10"/>
    <path fill="#664500" d="M12 13.667c-2.012 0-3.348-.234-5-.556-.376-.07-1.11 0-1.11 1.112 0 2.222 2.553 5 6.11 5 3.56 0 6.113-2.78 6.113-5 0-1.112-.734-1.185-1.11-1.112-1.655.323-2.99.557-5.003.557z"/>
    <path fill="#FFF" d="M7 14.222s1.666.556 5 .556 5-.556 5-.556-1.112 2.222-5 2.222-5-2.222-5-2.222z"/>
    <ellipse fill="#664500" cx="8.958" cy="9.636" rx="1.26" ry="1.816"/>
    <ellipse fill="#664500" cx="15.007" cy="9.636" rx="1.26" ry="1.816"/>
</svg>
