<svg xmlns="http://www.w3.org/2000/svg" width="24" height="24" viewBox="0 0 24 24">
    <path id="bounds" opacity="0" d="M0 0h24v24H0z"/>
    <path fill="#E3E4C9" d="M21.445 5.333C21.445 3.493 19.952 2 18.11 2c-.902 0-1.72.362-2.32.946C14.736 2.356 13.485 2 12 2s-2.735.357-3.79.946C7.61 2.362 6.79 2 5.89 2 4.047 2 2.554 3.492 2.554 5.333c0 1.15.58 2.16 1.466 2.76-1.277 3.062-1.465 6.13-1.465 6.13 0 3.26 2.5 5.734 6.787 6.45C9.95 21.478 10.912 22 12 22c1.087 0 2.05-.523 2.658-1.327 4.287-.715 6.787-3.188 6.787-6.45 0 0-.187-3.068-1.466-6.13.883-.598 1.465-1.61 1.465-2.76z"/>
    <path fill="#272B2B" d="M7.245 3.584c-.376-.292-.843-.473-1.356-.473-1.228 0-2.223.996-2.223 2.223 0 .698.328 1.313.83 1.72.667-1.306 1.56-2.544 2.748-3.47zM19.502 7.053c.503-.407.83-1.022.83-1.72 0-1.227-.994-2.222-2.22-2.222-.514 0-.98.182-1.357.474 1.19.925 2.08 2.162 2.747 3.47z"/>
    <circle fill="#DD2E44" cx="12" cy="18.823" r="2.222"/>
    <path fill="#AAAD9A" d="M11.972 12.455s-6.11 2.048-6.11 3.89 1.492 3.332 3.332 3.332c1.16 0 2.18-.593 2.778-1.492.597.9 1.618 1.492 2.778 1.492 1.84 0 3.333-1.493 3.333-3.333s-6.11-3.89-6.11-3.89z"/>
    <path fill="#272B2B" d="M14.68 15.233c-.903-.556-4.513-.556-5.416 0-.903.556 1.805 2.222 2.708 2.222s3.61-1.667 2.708-2.222z"/>
    <ellipse fill="#272B2B" cx="9.053" cy="11.156" rx="1.216" ry="1.753"/>
    <ellipse fill="#272B2B" cx="14.892" cy="11.156" rx="1.216" ry="1.753"/>
</svg>
