<svg xmlns="http://www.w3.org/2000/svg" width="24" height="24" viewBox="0 0 24 24">
    <path id="bounds" opacity="0" d="M0 0h24v24H0z"/>
    <circle fill="#19CF86" cx="5.035" cy="19.986" r="1.997"/>
    <circle fill="#19CF86" cx="14.02" cy="19.986" r="1.997"/>
    <path fill="#19CF86" d="M5.035 16.222c.55 0 .998-.447.998-.998l.998-11.73c0-.55-.27-1.393-1.996-1.393s-1.996.842-1.996 1.394l1 11.73c0 .55.446.998.997.998zM15.018 2.017c-3.37 0-5.99 2.62-5.99 5.99 0 .896.6 1.653 1.497 1.653.896 0 1.497-.757 1.497-1.653 0-1.582 1.413-2.995 2.995-2.995s2.995 1.413 2.995 2.995c0 1.955-1.997 3.143-4.555 3.143 0 0-.75-.008-.75.787 0 .404.313 3.286.313 3.286 0 .55.447.998.998.998.55 0 .998-.446.998-.997l.168-1.29-.01-.018c.45-.072.793-.153.793-.153 2.836-.53 4.992-2.77 4.992-5.756 0-3.37-2.57-5.99-5.942-5.99z"/>
</svg>
