<svg xmlns="http://www.w3.org/2000/svg" width="24" height="24" viewBox="0 0 24 24">
    <path id="bounds" opacity="0" d="M0 0h24v24H0z"/>
    <path fill="#19CF86" d="M2.122 10.037c.14.14.915.566 1.055.99.14.425.42 3.295 1.26 4.003.868.73 4.136.457 4.762.142 1.4-.707 1.572-3.144 1.82-4.144.14-.566.98-.566.98-.566s.84 0 .98.566c.247 1 .42 3.438 1.82 4.144.626.317 3.894.588 4.762-.14.84-.71 1.12-3.58 1.26-4.004.138-.424.914-.85 1.054-.99s.14-1.045 0-1.187c-.28-.282-3.66-.534-7.217-.14-.71.08-.98.283-2.662.283-1.68 0-1.95-.204-2.66-.283-3.556-.394-6.936-.143-7.216.14-.14.142-.14 1.046 0 1.187z"/>
</svg>
