<?xml version="1.0" encoding="UTF-8"?>
<svg xmlns="http://www.w3.org/2000/svg" width="24" height="24" viewBox="0 0 24 24">
    <path d="M11 9.499c0 1.381-.672 2.5-1.5 2.5S8 10.88 8 9.499s.672-2.5 1.5-2.5 1.5 1.119 1.5 2.5Zm5 0c0 1.381-.672 2.5-1.5 2.5S13 10.88 13 9.499s.672-2.5 1.5-2.5 1.5 1.119 1.5 2.5Zm6.173.364c.051.376.077.758.077 1.136 0 5.231-6.26 11.195-11.75 11.195h-.543c-4.756-.208-8.207-4.495-8.207-10.195C1.75 6.348 6.348 1.75 12 1.75c5.159 0 9.532 3.488 10.172 8.113M12 3.75c-4.549 0-8.25 3.701-8.25 8.25 0 3.92 2.144 7.982 6.241 8.194.192-.017 1.188-.135 1.725-.814.282-.357.455-.848.605-1.39-.106.006-.213.01-.321.01-3.679 0-4.898-3.533-4.948-3.684l1.896-.633-.948.316.947-.322c.032.095.829 2.322 3.053 2.322.333 0 .648-.048.943-.145.232-.593.607-1.313 1.272-1.936 1.078-1.008 2.259-1.273 3.301-1.508.738-.166 1.376-.309 1.861-.695.637-.505.772-1.417.799-1.68-.555-3.591-4.05-6.287-8.177-6.287v.002Zm2.687 13.172c-.109.333-.195.674-.281 1.009-.116.454-.233.916-.399 1.363 2.304-1.146 4.349-3.233 5.431-5.346-.502.194-1.008.308-1.48.414-.908.205-1.692.381-2.373 1.017-.391.366-.668.842-.896 1.542"/>
</svg>
