<svg xmlns="http://www.w3.org/2000/svg" width="24" height="24" viewBox="0 0 24 24">
    <path id="bounds" opacity="0" d="M0 0h24v24H0z"/>
    <path fill="#C900FF" d="M21.19 8.004c-.397-.892.038-2.42-.677-3.143-.675-.682-2.21-.277-3.11-.762-.842-.454-1.335-1.98-2.325-2.22-.93-.222-2.06.9-3.078.9s-2.147-1.12-3.077-.897c-.99.24-1.483 1.764-2.326 2.22-.9.483-2.434.078-3.11.76-.715.725-.28 2.25-.675 3.144C2.41 8.91 1 9.63 1 10.65s1.41 1.738 1.812 2.644c.396.892-.04 2.42.676 3.143.662.67 2.148.298 3.053.74l-.93 3.73c-.108.422.072.864.443 1.093.162.1.344.15.526.15.232 0 .464-.082.65-.242l3.498-3c.43-.204.86-.39 1.273-.39 1.02 0 2.148 1.124 3.078.9.99-.24 1.482-1.764 2.325-2.218.9-.484 2.434-.08 3.11-.763.715-.724.28-2.25.675-3.143.402-.906 1.812-1.626 1.812-2.646 0-1.018-1.41-1.738-1.81-2.644z"/>
    <circle fill="#F5F8FA" cx="7" cy="10.649" r="1.5"/>
    <circle fill="#F5F8FA" cx="12" cy="10.649" r="1.5"/>
    <circle fill="#F5F8FA" cx="17" cy="10.649" r="1.5"/>
</svg>
