<svg xmlns="http://www.w3.org/2000/svg" width="24" height="24" viewBox="0 0 24 24">
    <path id="bounds" opacity="0" d="M0 0h24v24H0z"/>
    <path fill="#F4900C" d="M21.5 12.547c0-1.153-.205-2.257-.58-3.28-.258 3.012-1.864 4.56-3.54 3.84-1.573-.676-.513-3.307-.435-4.563.132-2.128-.007-4.565-3.873-6.59 1.607 3.073.186 4.982-1.304 5.098-1.654.13-3.168-1.42-2.61-3.935C7.35 4.45 7.3 6.695 7.856 8.147c.582 1.513-.023 2.77-1.444 2.91-1.586.156-2.467-1.7-1.654-4.657C3.35 8.057 2.5 10.203 2.5 12.547c0 5.247 4.253 9.5 9.5 9.5s9.5-4.253 9.5-9.5z"/>
    <path fill="#FFCC4D" d="M17.81 15.34c.08 1.724-1.432 2.4-2.247 2.074-1.177-.47-.86-1.28-1.164-2.957-.304-1.676-1.468-2.84-3.19-3.353 1.256 3.54-.698 4.844-1.722 5.077-1.047.238-2.098 0-2.218-2.24-1.22 1.216-1.976 2.897-1.976 4.754 0 .206.013.408.03.61 1.717 1.694 4.073 2.743 6.676 2.743 2.603 0 4.96-1.05 6.675-2.744.018-.2.03-.403.03-.61 0-1.22-.325-2.366-.896-3.352z"/>
</svg>
