<svg xmlns="http://www.w3.org/2000/svg" width="24" height="24" viewBox="0 0 24 24">
    <path id="bounds" opacity="0" d="M0 0h24v24H0z"/>
    <path fill="#981CEB" d="M19.483 3.306c-.986-.34-2.53-.508-3.7-.508-1.408 0-2.808.243-4.16.478-1.352.235-2.627.456-3.907.456-.998 0-1.883-.14-2.708-.426-.227-.077-.48-.044-.68.097-.198.14-.168.367-.168.61v9.983c0 .32.055.603.356.708.986.34 2.032.508 3.2.508 1.41 0 2.81-.243 4.162-.478 1.35-.235 2.626-.456 3.906-.456.998 0 2.383.14 3.207.426.23.078.482.044.68-.097.2-.14.316-.367.316-.61V4.014c0-.32-.2-.603-.503-.708z"/>
    <path fill="#AAB8C2" d="M5.012 21.983c-.552 0-.998-.447-.998-.998V3.015c0-.552.447-.998.998-.998s.998.447.998.998v17.97c0 .55-.446.998-.998.998z"/>
</svg>
