<svg xmlns="http://www.w3.org/2000/svg" width="24" height="24" viewBox="0 0 24 24">
    <path id="bounds" opacity="0" d="M0 0h24v24H0z"/>
    <ellipse fill="#DBE2E7" cx="12" cy="12.01" rx="9.98" ry="9.99"/>
    <path fill="#AFB8BE" d="M12 3.282c-.552 0-1 .45-1 1v4.005c0 .552.448 1 1 1s1-.448 1-1V4.284c0-.553-.45-1.002-1-1.002zm0 5.506zM14.966 14.508c-.328-.42-.985-.5-1.404-.174-.21.165-.345.402-.377.667-.033.267.04.53.203.74l2.46 3.157c.19.245.48.385.79.385.22 0 .44-.074.614-.21.21-.166.345-.403.377-.668.032-.266-.04-.528-.204-.74l-2.46-3.156zM9.035 14.508l-2.46 3.157c-.164.21-.236.473-.203.74.032.264.166.5.377.666.174.137.393.212.614.212.31 0 .598-.14.79-.385l2.46-3.157c.163-.21.235-.473.202-.74-.032-.264-.166-.5-.378-.666-.422-.33-1.076-.246-1.403.174zM20.313 9.186c-.194-.503-.827-.754-1.38-.54l-4.403 1.715c-.285.11-.517.328-.634.594-.104.24-.112.5-.02.735.146.375.52.618.95.618.147 0 .29-.027.428-.08l4.405-1.715c.284-.11.515-.327.632-.595.104-.238.112-.5.02-.732zM9.173 12.308c.434 0 .807-.243.952-.618.1-.26.08-.557-.06-.813-.126-.233-.337-.416-.595-.516L5.066 8.648c-.548-.214-1.185.036-1.378.537-.092.234-.084.496.02.735.117.266.348.483.634.593l4.403 1.714c.14.054.283.08.428.08z"/>
    <path fill="#58666F" d="M8.108 3.627c.07.122.19.21.327.24l3.46.75c.033.008.07.012.105.012s.07-.005.106-.013l3.458-.75c.138-.03.256-.117.326-.24.07-.122.087-.268.044-.403l-.153-.477C14.616 2.267 13.34 2 12 2s-2.615.268-3.782.746l-.153.478c-.043.134-.028.28.043.403zM10.14 21.043c.017-.14-.028-.28-.12-.386l-2.343-2.655c-.048-.054-.106-.097-.17-.125l-3.23-1.446c-.132-.058-.277-.06-.406 0-.128.056-.226.164-.272.298l-.15.45c1.337 2.213 3.502 3.86 6.07 4.52l.42-.305c.113-.083.187-.21.203-.35zM20.13 16.43c-.13-.06-.276-.058-.405 0l-3.232 1.447c-.066.03-.123.07-.17.125l-2.343 2.655c-.093.106-.138.246-.122.386.016.14.09.268.204.35l.418.304c2.57-.658 4.735-2.306 6.072-4.52l-.15-.45c-.043-.133-.143-.242-.272-.298zM19.134 5.54c-.14 0-.274.06-.37.164s-.14.243-.128.384l.33 3.527c.007.07.028.14.064.202l1.76 3.073c.07.122.19.21.326.24.035.008.07.012.107.012.103 0 .204-.03.29-.092l.45-.32c.018-.24.037-.477.037-.72 0-2.468-.896-4.723-2.375-6.468h-.49zM2.777 13.142c.036 0 .072-.004.107-.012.138-.03.256-.117.326-.24l1.76-3.073c.036-.063.058-.13.064-.202l.33-3.527c.012-.14-.035-.28-.13-.384-.094-.105-.228-.164-.37-.164h-.49C2.896 7.288 2 9.543 2 12.01c0 .243.02.48.036.72l.45.32c.086.06.188.092.29.092zM12.344 7.413c-.19-.182-.496-.182-.687 0l-3.403 3.23c-.132.126-.186.313-.14.49l1.115 4.32c.057.22.256.375.483.375h4.574c.227 0 .427-.154.484-.376l1.116-4.32c.045-.176-.01-.363-.14-.49l-3.402-3.23z"/>
</svg>
