<svg xmlns="http://www.w3.org/2000/svg" width="24" height="24" viewBox="0 0 24 24">
    <path id="bounds" opacity="0" d="M0 0h24v24H0z"/>
    <path fill="#CCD6DD" d="M13.997 20.985s-.894.998-1.997.998-1.997-.998-1.997-.998h3.994z"/>
    <path fill="#FFD983" d="M18.49 8.506c0-3.584-2.906-6.49-6.49-6.49s-6.49 2.906-6.49 6.49c0 1.814.748 3.453 1.948 4.63 1.555 1.71 1.547 3.855 1.547 3.855h5.99s-.008-2.143 1.547-3.854c1.2-1.177 1.947-2.816 1.947-4.63z"/>
    <path fill="#FFAC33" d="M14.35 8.652c-.195-.195-.51-.195-.706 0L12 10.296l-1.644-1.644c-.195-.195-.51-.195-.706 0s-.195.51 0 .706l1.85 1.85v5.783c0 .277.223.5.5.5s.498-.223.498-.5V11.21l1.85-1.85c.196-.195.196-.51.002-.706z"/>
    <path fill="#99AAB5" d="M9.005 16.992v2.995c0 .55.45.998.998.998h3.993c.55 0 .998-.45.998-.998v-2.995h-5.99z"/>
    <path fill="#CCD6DD" d="M9.004 20.486c-.24 0-.45-.173-.49-.417-.047-.273.138-.53.41-.575l5.99-.998c.266-.05.528.137.573.41.046.272-.14.53-.41.574l-5.99 1c-.027.004-.056.006-.083.006zM9.004 18.49c-.24 0-.45-.174-.49-.418-.047-.272.138-.53.41-.574l5.99-.998c.266-.05.528.14.573.41.046.272-.14.53-.41.574l-5.99.998c-.027.005-.056.007-.083.007z"/>
</svg>
