<svg xmlns="http://www.w3.org/2000/svg" width="24" height="24" viewBox="0 0 24 24">
    <path id="bounds" opacity="0" d="M0 0h24v24H0z"/>
    <path fill="#FF7B11" d="M17.785 2.048c-1.124 0-2.79 1.997-2.79 5.96 0 3.088 1.434 4.546 1.997 4.99v8.005c0 .54.474.98 1.016.98s.98-.44.98-.98V3.1c0-.332-.295-1.052-1.203-1.052zM12 2.017c-.552 0-.998.447-.998.998v4.99c0 .277-.223.5-.5.5s-.498-.223-.498-.5v-4.99c0-.552-.447-.998-.998-.998-.55 0-.998.447-.998.998v4.992c0 .276-.223.5-.5.5-.275 0-.498-.224-.498-.5V3.015c0-.552-.447-.998-.998-.998-.552 0-.998.447-.998.998v5.99c0 1.766 1.405 3.467 2.995 3.993v8.004c0 .542.473.98 1.015.98.542 0 .98-.44.98-.98v-8.004C11.595 12.47 13 10.77 13 9.005v-5.99c-.002-.552-.448-.998-1-.998z"/>
</svg>
