<svg xmlns="http://www.w3.org/2000/svg" width="24" height="24" viewBox="0 0 24 24">
    <path id="bounds" opacity="0" d="M0 0h24v24H0z"/>
    <path d="M18.16 7.01C18.08 7 5.93 7 5.85 7.01 3.15 7.13 1 9.33 1 11.99 1 14.76 3.28 17 6.09 17c2.8 0 5.09-2.24 5.09-5.01 0-1.19-.43-2.29-1.16-3.15h3.96c-.72.86-1.15 1.96-1.15 3.15 0 2.76 2.29 5.01 5.09 5.01 2.81 0 5.08-2.24 5.08-5.01 0-2.66-2.14-4.86-4.84-4.98zm.03 8.19c-.39 0-.7-.32-.7-.69 0-.38.31-.69.7-.69 1.05 0 1.91-.84 1.91-1.88 0-.38.31-.69.7-.69.38 0 .7.31.7.69 0 1.79-1.49 3.26-3.31 3.26z"/>
</svg>
