<?xml version="1.0" encoding="UTF-8"?>
<svg xmlns="http://www.w3.org/2000/svg" width="24" height="24" viewBox="0 0 24 24">
    <path d="M12 4c-1.1 0-2 .9-2 2s.9 2 2 2 2-.9 2-2-.9-2-2-2ZM8 6c0-2.21 1.79-4 4-4s4 1.79 4 4-1.79 4-4 4-4-1.79-4-4Zm4 7c-1.84 0-3.32.65-4.4 1.81-.93.98-1.61 2.39-1.95 4.19h5.85v2H3.4l.1-1.1c.27-2.66 1.16-4.88 2.64-6.46C7.63 11.85 9.65 11 12 11c.91 0 1.78.13 2.58.38l-.9 1.82c-.52-.13-1.08-.2-1.68-.2Zm5-2 1.76 3.57 3.95.58-2.86 2.78.68 3.92L17 20l-3.53 1.85.68-3.92-2.86-2.78 3.95-.58L17 11Z"/>
</svg>
