<?xml version="1.0" encoding="UTF-8"?>
<svg xmlns="http://www.w3.org/2000/svg" width="24" height="24" viewBox="0 0 24 24">
    <path d="M21.869 16h-3.5c-.77 0-1.46-.35-1.92-.9-.06.04-.1.09-.14.15l-3 5.24c-.53.94-1.52 1.51-2.59 1.51-1.85 0-3.25-1.66-2.95-3.48l.42-2.52h-2.68c-2.25 0-3.92-2.09-3.42-4.28l1.19-5.22c.46-2.05 2.29-3.5 4.39-3.5h14.2v13Zm-6-11h-8.2c-1.17 0-2.18.81-2.44 1.95l-1.19 5.22c-.21.94.5 1.83 1.47 1.83h5.04l-.8 4.85c-.1.6.36 1.15.97 1.15.35 0 .68-.19.86-.5l2.99-5.24c.3-.52.76-.9 1.3-1.1V5Zm2 8.5c0 .28.23.5.5.5h1.5V5h-2v8.5Z"/>
</svg>
