<?xml version="1.0" encoding="UTF-8"?>
<svg xmlns="http://www.w3.org/2000/svg" width="24" height="24" viewBox="0 0 24 24">
    <path d="M18.36 8h-2.68l.42-2.52C16.4 3.66 15 2 13.15 2c-1.07 0-2.06.57-2.59 1.51l-3 5.24c-.04.06-.08.11-.14.15C6.96 8.35 6.27 8 5.5 8H2v13h14.2c2.1 0 3.92-1.45 4.39-3.5l1.19-5.22C22.27 10.09 20.61 8 18.36 8ZM6 19H4v-9h1.5c.27 0 .5.22.5.5V19Zm13.83-7.17-1.19 5.22C18.38 18.19 17.37 19 16.2 19H8v-8.16c.54-.2 1-.58 1.3-1.1l2.99-5.24c.18-.31.5-.5.86-.5.61 0 1.07.55.97 1.15l-.8 4.85h5.04c.97 0 1.68.89 1.47 1.83Z"/>
</svg>
