<?xml version="1.0" encoding="UTF-8"?>
<svg xmlns="http://www.w3.org/2000/svg" width="24" height="24" viewBox="0 0 24 24">
    <polygon points="5.996 10.061 6 19.906 6 10.055 5.996 10.061"/>
    <path d="M6 20.332V21H2V8h1.5c.742 0 1.442.328 1.92.9.334.398.532.886.573 1.407L6 20.331Zm15.78-8.051c.238-1.043-.009-2.121-.677-2.958-.67-.841-1.67-1.322-2.743-1.322H14.5l.614-3.684c.095-.578-.068-1.168-.448-1.615-.378-.445-.931-.701-1.516-.701-1.297 0-1.429.537-4.63 5.239C8.182 7.737 8 8.325 8 8.926v12.076h8.2c2.088 0 3.935-1.472 4.389-3.496l1.19-5.224Z"/>
</svg>
