<?xml version="1.0" encoding="UTF-8"?>
<svg xmlns="http://www.w3.org/2000/svg" width="24" height="24" viewBox="0 0 24 24">
    <polygon points="5.996 13.939 6 13.945 6 4.094 5.996 13.939"/>
    <path d="M21.868 3v13h-1.5c-.742 0-1.442-.328-1.919-.899-.334-.399-.533-.887-.576-1.485l-.004-9.554V3h4ZM9.369 16l-.614 3.684c-.095.578.068 1.168.448 1.615.378.445.931.701 1.516.701 1.297 0 1.429-.537 4.63-5.239.34-.499.52-1.082.52-1.686V3h-8.2c-2.088 0-3.935 1.472-4.39 3.5l-1.19 5.22c-.238 1.043.009 2.121.677 2.959.67.84 1.67 1.321 2.743 1.321h3.86Z"/>
</svg>
