<?xml version="1.0" encoding="UTF-8"?>
<svg xmlns="http://www.w3.org/2000/svg" width="24" height="24" viewBox="0 0 24 24">
    <path d="m17.65 4.22-.7.71c-.59.58-.59 1.53 0 2.12.58.59 1.53.59 2.12 0l.7-.71 3.89 3.89-13.43 13.44-3.89-3.89.71-.71c.58-.58.58-1.53 0-2.12-.59-.59-1.54-.59-2.13 0l-.7.71-3.89-3.89L13.76.33l3.89 3.89Zm-2.47 11.67 5.65-5.66-1.16-1.16c-1.33.72-3.02.52-4.14-.61-1.12-1.12-1.32-2.81-.6-4.14l-1.17-1.16-5.65 5.66 1.41 1.41-1.41 1.42-1.42-1.42-3.53 3.54 1.16 1.16c1.33-.72 3.02-.52 4.14.61 1.12 1.12 1.32 2.81.6 4.14l1.17 1.16 3.53-3.54-1.41-1.41 1.42-1.41 1.41 1.41Zm-3.89-1.06-2.12-2.12 1.41-1.41 2.13 2.12-1.42 1.41Z"/>
</svg>
