<?xml version="1.0" encoding="UTF-8"?>
<svg xmlns="http://www.w3.org/2000/svg" width="24" height="24" viewBox="0 0 24 24">
    <path d="m4.2 9.291 10.51 10.504c.87-.301 1.67-.742 2.37-1.297L5.5 6.916c-.55.708-.99 1.508-1.3 2.375Zm2.72-3.789L18.5 17.084c1.1-1.401 1.75-3.167 1.75-5.084 0-4.556-3.69-8.25-8.25-8.25-1.92 0-3.68.654-5.08 1.752Zm5.41 14.742-8.57-8.573c-.01.109-.01.219-.01.329 0 4.556 3.69 8.25 8.25 8.25.11 0 .22-.002.33-.006ZM2.11 9.31C3.29 4.955 7.27 1.75 12 1.75c5.66 0 10.25 4.589 10.25 10.25 0 4.731-3.2 8.711-7.56 9.893-.86.233-1.76.357-2.69.357-5.66 0-10.25-4.589-10.25-10.25 0-.929.12-1.832.36-2.69Z"/>
</svg>
