<svg width="285" height="135" viewBox="0 0 285 135" fill="none" xmlns="http://www.w3.org/2000/svg">
<rect width="285" height="135" rx="12" fill="white"/>
<circle cx="31.5424" cy="34.5424" r="16.5424" fill="#CFD9DE"/>
<rect x="58" y="20" width="59" height="10" rx="3" fill="#242E36"/>
<rect x="123" y="20" width="59" height="10" rx="3" fill="#536471"/>
<rect x="58" y="38" width="200" height="10" rx="3" fill="#CFD9DE"/>
<rect x="58" y="56" width="200" height="10" rx="3" fill="#CFD9DE"/>
<rect x="58" y="72" width="132" height="10" rx="3" fill="#CFD9DE"/>
<circle cx="194.732" cy="107.407" r="9.92542" stroke="#CCD6DD" stroke-width="4.96271"/>
<path d="M204.658 107.407C204.658 101.925 200.214 97.4816 194.732 97.4816" stroke="#1DA1F2" stroke-width="4.96271"/>
<rect x="214.583" y="95" width="55.417" height="23.9864" rx="11.9932" fill="#1DA1F2"/>
<path d="M243.486 103.375H237.678L239.52 101.568C239.701 101.39 239.701 101.101 239.52 100.923C239.338 100.746 239.043 100.745 238.862 100.923L236.225 103.507C236.043 103.685 236.043 103.974 236.225 104.152L238.861 106.737C238.951 106.826 239.07 106.871 239.19 106.871C239.309 106.871 239.427 106.826 239.518 106.737C239.7 106.559 239.7 106.27 239.518 106.092L237.676 104.286H243.484C245.733 104.286 247.562 106.079 247.562 108.284C247.562 110.489 245.735 112.284 243.486 112.284H239.655C239.398 112.284 239.19 112.489 239.19 112.74C239.19 112.992 239.398 113.197 239.655 113.197H243.487C246.248 113.197 248.495 110.994 248.495 108.286C248.495 105.578 246.248 103.375 243.486 103.375Z" fill="white"/>
<path fill-rule="evenodd" clip-rule="evenodd" d="M238.862 100.923C239.043 100.745 239.338 100.746 239.52 100.923C239.701 101.101 239.701 101.39 239.52 101.568L237.678 103.375H243.486C246.248 103.375 248.495 105.578 248.495 108.286C248.495 110.993 246.248 113.197 243.487 113.197H239.655C239.398 113.197 239.19 112.992 239.19 112.74C239.19 112.489 239.398 112.284 239.655 112.284H243.486C245.735 112.284 247.562 110.489 247.562 108.284C247.562 106.079 245.733 104.286 243.484 104.286H237.676L239.518 106.092C239.7 106.27 239.7 106.559 239.518 106.737C239.427 106.826 239.309 106.871 239.19 106.871C239.07 106.871 238.951 106.826 238.861 106.737L236.225 104.152C236.15 104.079 236.106 103.986 236.092 103.891C236.087 103.851 236.087 103.811 236.092 103.771C236.105 103.675 236.149 103.581 236.225 103.507L238.862 100.923ZM235.647 102.916L238.283 100.333C238.789 99.835 239.598 99.8436 240.098 100.332C240.612 100.835 240.611 101.657 240.099 102.159L239.702 102.548H243.486C246.689 102.548 249.322 105.106 249.322 108.286C249.322 111.465 246.69 114.024 243.487 114.024H239.655C238.955 114.024 238.363 113.463 238.363 112.74C238.363 112.017 238.955 111.457 239.655 111.457H243.486C245.292 111.457 246.735 110.018 246.735 108.284C246.735 106.551 245.292 105.113 243.484 105.113H239.701L240.098 105.502C240.61 106.004 240.608 106.825 240.099 107.327L240.098 107.328C239.845 107.575 239.516 107.698 239.19 107.698C238.865 107.698 238.534 107.576 238.281 107.327C238.281 107.326 238.28 107.326 238.28 107.326L235.647 104.744C235.647 104.743 235.647 104.744 235.647 104.744C235.134 104.242 235.132 103.419 235.647 102.916Z" fill="white"/>
</svg>
