<svg width="24" height="24" fill="none" xmlns="http://www.w3.org/2000/svg"><path fill-rule="evenodd" clip-rule="evenodd" d="M13.196 1.825c-.647-.692-1.745-.692-2.391 0L9.22 3.52c-.322.345-.778.534-1.25.518L5.65 3.96c-.946-.032-1.722.744-1.69 1.69l.078 2.32c.016.472-.173.928-.518 1.25l-1.695 1.585c-.692.646-.692 1.744 0 2.39L3.52 14.78c.345.323.534.779.518 1.25l-.078 2.32c-.032.947.744 1.723 1.69 1.69l2.32-.078c.472-.016.928.173 1.25.518l1.585 1.695c.646.692 1.744.692 2.39 0l1.585-1.695c.323-.345.779-.534 1.25-.518l2.32.079c.947.032 1.723-.744 1.69-1.691l-.078-2.32c-.016-.471.173-.927.518-1.25l1.695-1.584c.692-.647.692-1.745 0-2.391L20.48 9.22c-.345-.322-.534-.778-.518-1.25l.079-2.32c.032-.946-.744-1.722-1.691-1.69l-2.32.078c-.471.016-.927-.173-1.25-.518l-1.584-1.695zm-6.65 10.6l4.08 4.08 6.763-7.385-1.603-1.484-5.237 5.706-2.465-2.466-1.538 1.55z"/></svg>