<svg width="24" height="24" fill="none" xmlns="http://www.w3.org/2000/svg"><path fill-rule="evenodd" clip-rule="evenodd" d="M14.832 3.285L12 .545 9.17 3.285l-3.901-.552-.681 3.88-3.48 1.847L2.836 12l-1.73 3.54 3.48 1.846.68 3.88 3.902-.55L12 23.453l2.832-2.739 3.901.552.68-3.88 3.481-1.847-1.73-3.54 1.73-3.54-3.48-1.846-.68-3.881-3.902.552zm-8.286 9.14l4.08 4.08L17.39 9.12l-1.604-1.484-5.236 5.706-2.466-2.466-1.538 1.55z" fill="url(#paint0_linear_19_1658)"/><path fill-rule="evenodd" clip-rule="evenodd" d="M14.562 4.115L12 1.636 9.438 4.115l-3.53-.5-.616 3.512-3.148 1.67L3.709 12l-1.565 3.203 3.148 1.67.616 3.511 3.53-.499L12 22.364l2.562-2.479 3.53.5.615-3.512 3.15-1.67L20.29 12l1.565-3.202-3.149-1.671-.615-3.511-3.53.499zm-8.017 8.31l4.08 4.08L17.39 9.12l-1.604-1.484-5.236 5.706-2.465-2.466-1.539 1.55z" fill="url(#paint1_linear_19_1658)"/><path fill-rule="evenodd" clip-rule="evenodd" d="M6.546 12.425l4.08 4.08 6.76-7.381.004-.001v1.524l-6.764 7.386-4.08-4.08v-1.528zm0 0z" fill="#D18800"/><defs><linearGradient id="paint0_linear_19_1658" x1="4.364" y1="1.636" x2="21.273" y2="24" gradientUnits="userSpaceOnUse"><stop stop-color="#F4E72A"/><stop offset=".539" stop-color="#CD8105"/><stop offset=".68" stop-color="#CB7B00"/><stop offset="1" stop-color="#F4EC26"/><stop offset="1" stop-color="#F4E72A"/></linearGradient><linearGradient id="paint1_linear_19_1658" x1="5.455" y1="2.727" x2="19.091" y2="21.273" gradientUnits="userSpaceOnUse"><stop stop-color="#F9E87F"/><stop offset=".406" stop-color="#E2B719"/><stop offset=".989" stop-color="#E2B719"/></linearGradient></defs></svg>