<svg xmlns="http://www.w3.org/2000/svg" width="24" height="24" viewBox="0 0 24 24">
    <path id="bounds" opacity="0" d="M0 0h24v24H0z"/>
    <path d="M19.995 10.283c.447-1 .692-2.3.692-3.437C20.687 3.782 19.137 2 16.3 2c-2.918 0-4.625 2.263-4.625 5.246 0 2.955 1.368 5.49 3.628 6.646-.95 1.916-2.16 3.605-3.417 4.876C9.6 15.98 7.533 12.26 6.686 5.004H3.312c1.558 12.088 6.2 15.937 7.43 16.675.694.422 1.292.4 1.927.04.998-.573 3.988-3.592 5.65-7.13.695 0 1.532-.082 2.367-.27v-2.38c-.51.116-1.005.17-1.45.17-2.5 0-4.426-1.76-4.426-4.825 0-1.5.576-2.28 1.39-2.28.774 0 1.288.7 1.288 2.122 0 .806-.212 1.693-.373 2.217 0 0 .773 1.356 2.88.94z"/>
</svg>
