<svg xmlns="http://www.w3.org/2000/svg" width="55" height="9" viewBox="0 0 55 9"><linearGradient id="a" gradientUnits="userSpaceOnUse" x1="48.5" x2="48.5" y2="9"><stop offset="0" stop-color="#CCC"/><stop offset=".94" stop-color="#AEAFAD"/><stop offset="1" stop-color="#666"/></linearGradient><path fill="url(#a)" d="M53 7.393C53 8.28 52.28 9 51.393 9h-5.786C44.72 9 44 8.28 44 7.393V1.607C44 .72 44.72 0 45.607 0h5.786C52.28 0 53 .72 53 1.607v5.786z"/><g opacity=".8"><path fill="#FCFCFC" d="M47.053 5.295l-1.438-1.45 1.954-.286.904-2.077.89 2.025 2.017.33-1.413 1.383.325 1.965-1.777-1.09-1.797 1.13"/><path fill="#FFF" d="M48.48 1.693l.815 1.85.036.082.09.013 1.79.262-1.292 1.267-.06.06.014.084.313 1.717-1.622-.995-.086-.053-.085.055-1.555 1.024.298-1.747.014-.082-.06-.06-1.3-1.27 1.79-.26.09-.013.037-.084.773-1.85m-.003-.406L47.56 3.48l-2.11.307 1.525 1.494-.36 2.115 1.863-1.227 1.93 1.184-.38-2.067 1.528-1.494-2.112-.31-.967-2.192z"/></g><linearGradient id="b" gradientUnits="userSpaceOnUse" x1="37.5" x2="37.5" y2="9"><stop offset="0" stop-color="#CCC"/><stop offset=".94" stop-color="#AEAFAD"/><stop offset="1" stop-color="#666"/></linearGradient><path fill="url(#b)" d="M42 7.393C42 8.28 41.28 9 40.393 9h-5.786C33.72 9 33 8.28 33 7.393V1.607C33 .72 33.72 0 34.607 0h5.786C41.28 0 42 .72 42 1.607v5.786z"/><g opacity=".8"><path fill="#FCFCFC" d="M36.053 5.295l-1.438-1.45 1.954-.286.904-2.077.89 2.025 2.017.33-1.413 1.383.325 1.965-1.777-1.09-1.797 1.13"/><path fill="#FFF" d="M37.48 1.693l.815 1.85.036.082.09.013 1.79.262-1.292 1.267-.06.06.014.084.313 1.717-1.622-.995-.086-.053-.085.055-1.555 1.024.298-1.747.014-.082-.06-.06-1.3-1.27 1.79-.26.09-.013.037-.084.773-1.85m-.003-.406L36.56 3.48l-2.11.307 1.525 1.494-.36 2.115 1.863-1.227 1.93 1.184-.38-2.067 1.528-1.494-2.112-.31-.967-2.192z"/></g><linearGradient id="c" gradientUnits="userSpaceOnUse" x1="26.5" x2="26.5" y2="9"><stop offset="0" stop-color="#CCC"/><stop offset=".94" stop-color="#AEAFAD"/><stop offset="1" stop-color="#666"/></linearGradient><path fill="url(#c)" d="M31 7.393C31 8.28 30.28 9 29.393 9h-5.786C22.72 9 22 8.28 22 7.393V1.607C22 .72 22.72 0 23.607 0h5.786C30.28 0 31 .72 31 1.607v5.786z"/><linearGradient id="d" gradientUnits="userSpaceOnUse" x1="24.25" x2="24.25" y2="9"><stop offset="0" stop-color="#E5BA2B"/><stop offset=".94" stop-color="#D0A825"/><stop offset="1" stop-color="#666"/></linearGradient><path fill="url(#d)" d="M26.5 0h-2.893C22.72 0 22 .72 22 1.607v5.786C22 8.28 22.72 9 23.607 9H26.5V0z"/><path fill="#FFF" d="M26.476 1.286l.966 2.193 2.112.304-1.527 1.495.378 2.067-1.93-1.184-1.862 1.227.36-2.11-1.527-1.494 2.112-.308"/><g><linearGradient id="e" gradientUnits="userSpaceOnUse" x1="15.5" x2="15.5" y2="9"><stop offset="0" stop-color="#E5BA2B"/><stop offset=".94" stop-color="#D0A825"/><stop offset="1" stop-color="#666"/></linearGradient><path fill="url(#e)" d="M20 7.393C20 8.28 19.28 9 18.393 9h-5.786C11.72 9 11 8.28 11 7.393V1.607C11 .72 11.72 0 12.607 0h5.786C19.28 0 20 .72 20 1.607v5.786z"/><path fill="#FFF" d="M15.476 1.286l.966 2.193 2.112.304-1.527 1.495.378 2.067-1.93-1.184-1.862 1.227.36-2.11-1.527-1.494 2.112-.308"/></g><g><linearGradient id="f" gradientUnits="userSpaceOnUse" x1="4.5" x2="4.5" y2="9"><stop offset="0" stop-color="#E5BA2B"/><stop offset=".94" stop-color="#D0A825"/><stop offset="1" stop-color="#666"/></linearGradient><path fill="url(#f)" d="M9 7.393C9 8.28 8.28 9 7.393 9H1.607C.72 9 0 8.28 0 7.393V1.607C0 .72.72 0 1.607 0h5.786C8.28 0 9 .72 9 1.607v5.786z"/><path fill="#FFF" d="M4.476 1.286l.966 2.193 2.112.304L6.027 5.28l.378 2.068-1.93-1.184L2.613 7.39l.36-2.11-1.527-1.495 2.112-.308"/></g></svg>
