<svg xmlns="http://www.w3.org/2000/svg" width="55" height="9" viewBox="0 0 55 9"><linearGradient id="a" gradientUnits="userSpaceOnUse" x1="48.5" x2="48.5" y2="9"><stop offset="0" stop-color="#EC050B"/><stop offset=".94" stop-color="#C8060A"/><stop offset="1" stop-color="#666"/></linearGradient><path fill="url(#a)" d="M53 7.393C53 8.28 52.28 9 51.393 9h-5.786C44.72 9 44 8.28 44 7.393V1.607C44 .72 44.72 0 45.607 0h5.786C52.28 0 53 .72 53 1.607v5.786z"/><path fill="#FFF" d="M48.476 1.286l.966 2.193 2.112.304-1.527 1.495.378 2.067-1.93-1.184-1.862 1.227.36-2.11-1.527-1.494 2.112-.308"/><linearGradient id="b" gradientUnits="userSpaceOnUse" x1="37.5" x2="37.5" y2="9"><stop offset="0" stop-color="#EC050B"/><stop offset=".94" stop-color="#C8060A"/><stop offset="1" stop-color="#666"/></linearGradient><path fill="url(#b)" d="M42 7.393C42 8.28 41.28 9 40.393 9h-5.786C33.72 9 33 8.28 33 7.393V1.607C33 .72 33.72 0 34.607 0h5.786C41.28 0 42 .72 42 1.607v5.786z"/><path fill="#FFF" d="M37.476 1.286l.966 2.193 2.112.304-1.527 1.495.378 2.067-1.93-1.184-1.862 1.227.36-2.11-1.527-1.494 2.112-.308"/><linearGradient id="c" gradientUnits="userSpaceOnUse" x1="26.5" x2="26.5" y2="9"><stop offset="0" stop-color="#EC050B"/><stop offset=".94" stop-color="#C8060A"/><stop offset="1" stop-color="#666"/></linearGradient><path fill="url(#c)" d="M31 7.393C31 8.28 30.28 9 29.393 9h-5.786C22.72 9 22 8.28 22 7.393V1.607C22 .72 22.72 0 23.607 0h5.786C30.28 0 31 .72 31 1.607v5.786z"/><path fill="#FFF" d="M26.476 1.286l.966 2.193 2.112.304-1.527 1.495.378 2.067-1.93-1.184-1.862 1.227.36-2.11-1.527-1.494 2.112-.308"/><g><linearGradient id="d" gradientUnits="userSpaceOnUse" x1="15.5" x2="15.5" y2="9"><stop offset="0" stop-color="#EC050B"/><stop offset=".94" stop-color="#C8060A"/><stop offset="1" stop-color="#666"/></linearGradient><path fill="url(#d)" d="M20 7.393C20 8.28 19.28 9 18.393 9h-5.786C11.72 9 11 8.28 11 7.393V1.607C11 .72 11.72 0 12.607 0h5.786C19.28 0 20 .72 20 1.607v5.786z"/><path fill="#FFF" d="M15.476 1.286l.966 2.193 2.112.304-1.527 1.495.378 2.067-1.93-1.184-1.862 1.227.36-2.11-1.527-1.494 2.112-.308"/></g><g><linearGradient id="e" gradientUnits="userSpaceOnUse" x1="4.5" x2="4.5" y2="9"><stop offset="0" stop-color="#EC050B"/><stop offset=".94" stop-color="#C8060A"/><stop offset="1" stop-color="#666"/></linearGradient><path fill="url(#e)" d="M9 7.393C9 8.28 8.28 9 7.393 9H1.607C.72 9 0 8.28 0 7.393V1.607C0 .72.72 0 1.607 0h5.786C8.28 0 9 .72 9 1.607v5.786z"/><path fill="#FFF" d="M4.476 1.286l.966 2.193 2.112.304L6.027 5.28l.378 2.068-1.93-1.184L2.613 7.39l.36-2.11-1.527-1.495 2.112-.308"/></g></svg>
