<svg xmlns="http://www.w3.org/2000/svg" width="40" height="20" viewBox="0 0 40 20">
    <path fill="#FFF" stroke="#BCBEC0" stroke-width=".136" d="M37.292 16.134h-.002l-.004.002.006-.002zM24.135 7.622h.005c.002.002.004.002.005.002l-.01-.002zm15.135 3.53c-.255-.193-.297-.223-1.832-.728 1.33-.326 1.387-.36 1.622-.516.533-.36.818-.96.776-1.61l-.005-.072c-.108-1.042-1.45-3.008-2.354-3.45-.597-.284-1.26-.243-1.782.107-.246.163-.278.185-1.288 1.564-.096-1.61-.286-4.45-.333-4.717l-.01-.06-.017-.06c-.172-.624-.66-1.09-1.31-1.254-1.08-.27-3.94.536-4.708 1.328-.45.47-.624 1.103-.468 1.696l.03.118.054.11c.073.15.267.472 1.928 3.077l.61.964c-1.485-.61-1.543-.61-1.85-.614-.587-.026-1.174.288-1.527.84l-.007.01c-.183.296-.295.696-.366 1.114-.477-.646-1.2-1.163-2.292-1.377-.775-.156-1.5-.063-2.186.214-.628-.4-1.49-.447-2.21-.035-.223.126-.39.277-.52.438v-.883l-.07-.525-.02-.094c-.144-.572-.574-1.052-1.15-1.288l-.006-.002c-.632-.254-1.34-.194-1.942.165-.64.38-.97 1.007-.97 1.866V9.28c-.227-.355-.51-.663-.844-.917-.9-.682-2.106-.913-3.487-.665-.8.14-1.47.49-2.002 1.002-.008-.017-.017-.037-.026-.053-.27-.484-.706-.815-1.266-.96-.935-.26-2.12.06-2.612 1.73l-.188.64c-.215-.393-.77-1.467-.794-1.5-.5-.76-1.505-1.088-2.402-.73-.867.325-1.37 1.088-1.37 1.985 0 .282.05.577.154.876l.026.075 2.297 4.678c-.827.218-1.417.836-1.513 1.683-.01.08-.015.162-.015.243 0 .538.224 1.053.634 1.43.623.576 1.59.765 2.728.534 1.236-.243 1.946-.988 2.444-2.567l.757-2.38c.247 1.002.695 1.657 1.12 2.076.614.606 1.734 1.276 3.59 1.025 1.38-.193 2.333-.81 2.848-1.535l.033.175c.147.517.546.977 1.083 1.222.56.26 1.21.255 1.78-.013.296-.13.548-.333.745-.587v.75c0 1.24.717 1.768 1.145 1.972.558.28 1.226.304 1.808.052.55-.238.958-.69 1.118-1.242l.024-.084.074-.513v-.22c.746.077 1.524-.045 2.21-.4.303-.158.57-.347.806-.565h.503c.274.145.585.234.92.234.337 0 .648-.09.923-.234h1.46c.967.545 2.382.957 3.14.83.65-.117 1.164-.538 1.382-1.126l.01-.03c.093-.267.108-.316.114-1.83.83 1.34.873 1.376 1.105 1.56.5.39 1.158.476 1.766.232.976-.39 2.466-2.286 2.615-3.326.013-.09.02-.183.02-.272-.003-.546-.238-1.05-.658-1.386z"/>
    <path fill="#E6E7E8" d="M27.668 9.052c-.237.38-.336 1.57-.254 2.362.03.26.075.48.144.61.094.18.254.287.435.293.115.006.187-.014 2.37-.717 0 0 .97-.31.975-.31.24-.062.405-.284.42-.568.016-.292-.135-.55-.383-.642l-.684-.278c-2.346-.968-2.45-1.005-2.57-1.006-.18-.01-.34.08-.452.256zM32.916 16.26c.038-.11.042-.185.05-2.478l.005-1.024c.016-.247-.143-.474-.407-.575-.27-.106-.563-.04-.727.163 0 0-.478.568-.48.568-1.644 1.93-1.712 2.02-1.752 2.135-.025.065-.035.137-.026.208.01.102.055.205.133.298.382.454 2.21 1.126 2.792 1.026.204-.036.35-.152.414-.32zM36.62 15.463c.553-.22 1.756-1.75 1.84-2.337.028-.205-.036-.38-.177-.494-.092-.07-.164-.096-2.344-.813 0 0-.96-.317-.97-.322-.232-.09-.496-.007-.674.212-.185.226-.214.52-.066.746l.386.627c1.294 2.103 1.393 2.252 1.486 2.325.146.112.33.132.52.055zM35.496 10.048c2.48-.6 2.575-.63 2.673-.696.15-.1.224-.27.21-.477 0-.007.003-.013 0-.02-.062-.61-1.13-2.193-1.655-2.45-.186-.09-.373-.084-.526.02-.097.063-.168.155-1.494 1.972 0 0-.6.818-.608.824-.157.193-.16.47-.006.706.16.244.43.364.68.295 0 0-.012.02-.015.022.122-.045.34-.1.74-.194zM33.006 8c-.042-.982-.338-5.357-.373-5.56-.05-.184-.193-.314-.4-.366-.632-.157-3.05.522-3.5.984-.143.15-.197.335-.153.5.07.143 3.067 4.857 3.067 4.857.443.72.805.607.923.57.118-.034.477-.146.436-.984z"/>
    <path fill="#B12A31" d="M27.867 8.555c-.236.38-.336 1.57-.254 2.362.03.26.076.48.144.61.094.18.253.286.435.292.116.005.188-.015 2.37-.717 0 0 .97-.31.975-.31.242-.062.405-.285.42-.57.016-.29-.134-.548-.382-.64l-.686-.28c-2.346-.966-2.45-1.004-2.57-1.006-.18-.008-.34.083-.453.258zM33.114 15.764c.038-.11.042-.186.05-2.48l.005-1.023c.014-.247-.146-.472-.41-.575-.27-.104-.563-.04-.726.165 0 0-.478.568-.48.568-1.644 1.93-1.712 2.02-1.752 2.133-.024.07-.035.14-.026.212.01.102.056.203.133.297.38.453 2.207 1.125 2.79 1.025.204-.037.35-.15.414-.32zM36.82 14.966c.55-.22 1.754-1.75 1.84-2.337.028-.206-.036-.382-.177-.495-.092-.07-.164-.097-2.345-.813 0 0-.957-.316-.97-.322-.23-.09-.495-.007-.673.213-.184.225-.212.52-.065.746l.385.625c1.295 2.103 1.394 2.252 1.487 2.325.145.114.328.133.52.056zM35.694 9.552c2.48-.6 2.575-.632 2.673-.696.15-.1.225-.27.212-.476v-.02c-.064-.61-1.132-2.193-1.657-2.45-.186-.09-.373-.084-.526.02-.096.063-.167.157-1.494 1.972l-.607.825c-.158.192-.16.468-.006.704.16.245.43.365.68.296 0 0-.01.017-.014.02.122-.046.34-.1.738-.194zM33.205 7.505c-.042-.982-.338-5.357-.373-5.56-.05-.183-.193-.314-.4-.367-.633-.157-3.052.52-3.5.983-.144.15-.197.336-.154.5.07.145 3.068 4.86 3.068 4.86.443.718.804.607.922.57.12-.036.478-.147.437-.985z"/>
    <path d="M2.508 17.875c.312.288.903.37 1.622.224.674-.135 1.092-.435 1.495-1.713l2.002-6.29c.103-.335.095-.625-.023-.84-.097-.174-.257-.29-.484-.35-.356-.1-.802-.09-1.083.87l-1.05 3.568s-2.14-4.042-2.143-4.043c-.135-.27-.53-.463-.934-.303-.526.198-.7.67-.49 1.28 0 0 2.602 5.298 2.608 5.313 0 0 .07.188.07.22l.024.148c-.005.205-.073.376-.195.492-.12.112-.287.172-.48.163l-.438-.008c-.42.05-.68.29-.723.66-.03.238.047.447.22.608zM14.478 11.424c-.09-.91-.44-1.62-1.016-2.053-.613-.464-1.48-.612-2.506-.43-1.286.223-2.06 1.144-2.236 2.664-.218 1.817.08 3.186.867 3.96.594.588 1.47.82 2.537.676 1.52-.213 2.205-1.05 2.205-1.577 0-.388-.236-.694-.58-.74-.2-.04-.365 0-.734.328-.53.465-1.147.65-1.692.513-.416-.105-.74-.393-.887-.785 0 0-.065-.26-.062-.23-.044-.235-.065-.467.08-.562l.038-.026h3.34c.31 0 .465-.04.556-.137.182-.204.167-.786.088-1.6zm-1.712.485H9.978c-.076-.056-.112-.15-.056-.427.036-.146.074-.277.186-.46.035-.056.074-.112.11-.168.203-.258.48-.423.793-.496.98-.24 1.664.256 1.775 1.107.054.37.02.442-.02.442zM17.508 6.616c-.265-.107-.563-.078-.824.078-.252.15-.357.376-.357.785v7.966s.044.284.048.297c.057.2.204.367.408.46.226.105.487.104.72-.006.29-.125.463-.416.463-.777V7.44l-.05-.394c-.05-.185-.2-.345-.408-.43zM23.894 8.86c-.74-.152-1.37-.026-1.98.386 0 0-.068.056-.094.072l-.053.027-.167.074-.047-.187-.04-.068-.014-.042-.006-.013-.046-.062c-.174-.272-.65-.396-1.077-.152-.208.118-.328.285-.328.785v7.82c0 .428.134.695.428.835.248.125.528.135.766.03.204-.087.353-.245.41-.437l.048-.334V16.24l-.013-.218.007-.065.007-.03.08-.257.246.163s.06.04.087.068l.073.05.084.05.08.037c.656.31 1.534.274 2.24-.09.888-.465 1.327-1.288 1.43-2.673.213-2.764-.422-4.085-2.12-4.415zm-.082 5.85c-1.104 0-1.28-.98-1.314-1.72-.002-.002-.014-.433-.014-.433l.012-.333c.072-1.28.336-1.783 1.01-1.924.454-.106.8-.054 1.06.155.39.314.563.98.547 2.09-.012 1.3-.237 2.164-1.3 2.164zM27.42 14.887c.25 0 .463.197.463.457 0 .265-.212.46-.464.46-.254 0-.464-.196-.464-.456 0-.264.21-.46.463-.46zm0 .852c.215 0 .388-.17.388-.396 0-.22-.173-.39-.39-.39-.216 0-.39.17-.39.395.002.22.175.39.39.39zm-.173-.657h.196c.127 0 .187.047.187.154 0 .095-.062.135-.14.144l.153.236h-.08l-.147-.23h-.095v.23h-.073v-.533zm.074.237h.093c.074 0 .144-.004.144-.088 0-.074-.063-.083-.12-.083h-.115v.17z"/>
</svg>
